<svg xmlns="http://www.w3.org/2000/svg" width="626.813" height="397.045" viewBox="0 0 626.813 397.045">
  <g id="Connecting_teams-pana" data-name="Connecting teams-pana" transform="translate(-55.89 -57.895)">
    <g id="freepik--background-simple--inject-658">
      <path id="パス_509" data-name="パス 509" d="M138.55,123.55c11.77-34.9,45.09-61.48,81.73-65.2S294.9,74,313.45,105.76c10.6,18.17,15.13,39.55,27,56.93,17.31,25.43,50.33,39.12,80.55,33.4,26-4.92,47.73-22.27,72.25-32.2,25.17-10.19,54.09-12.25,79.58-2.9s46.92,30.78,53.56,57.11c6.73,26.69-2,55.64-18.43,77.74s-39.73,38.14-64.07,51a365.219,365.219,0,0,1-166.93,42c-68.94.52-140.18-20.41-189.66-68.42S112,187.18,138.55,123.55" fill="#f5f5f5"/>
    </g>
    <g id="freepik--character-4--inject-658">
      <path id="パス_510" data-name="パス 510" d="M557.84,132.3a12.6,12.6,0,0,0-9.32-8c-4.2-.92-9.41-2.2-13.21-.18-2.37,1.27-4.63,3.08-5.53,5.61-1.06,3,.76,8.54,1.67,11.59s1.61,6.54,0,9.27-4.93,3.73-7,6.07a8.28,8.28,0,0,0,1.07,11.48c-3.7-.15-6.76,3.67-6.56,7.37s3,6.9,6.29,8.52,7.15,1.9,10.85,1.84a65.909,65.909,0,0,0,13.64-1.66c3.69-.85,7.53-2.17,9.89-5.13,2.17-2.72,2.71-6.39,2.66-9.87-.2-12.31-6.87-24.39-4.29-36.42" fill="#263238"/>
      <path id="パス_511" data-name="パス 511" d="M451.43,157.7h0s-7.32-4.92-9.11-6.5c-3.34-3-3.09-3.27-2.69-3.61,1.08-.92,6.07,5,5.72,3.06s-6.93-6.46-5.76-7.37c1.52-1.19,6.64,5.07,7.11,5.57s1.19-.19.74-.62c-.65-.61-7.27-7.2-5.79-8.38.83-.65,1.83,1,1.83,1s5.75,6.64,6.44,6.06-2.56-4.61-3.75-5.88-1.07-2.34-.09-2.41c.66-.05,4.39,3.76,5.54,5s4.23,4.88,4.11,1.84v-.14c-.2-3,.64-5.36,1.35-5.88a1,1,0,0,1,1.57,1,1.08,1.08,0,0,1-.07.43.288.288,0,0,1-.07.22,14.61,14.61,0,0,0-.13,3.07,7.91,7.91,0,0,0,.55,2.68c.39,1,.77,1.83,1.1,2.52l2.06,4.68-5.77,5.44Z" fill="#b78876"/>
      <path id="パス_512" data-name="パス 512" d="M583.17,314.58l5.86,134,16.66.48s5-73.86,3.94-81.27-3.69-47.34-3.69-47.34Z" fill="#b78876"/>
      <path id="パス_513" data-name="パス 513" d="M557.76,314.58l5.87,134,16.65.48s5-73.86,4-81.27-3.7-47.34-3.7-47.34Z" fill="#b78876"/>
      <path id="パス_514" data-name="パス 514" d="M560.23,370.9l.2,4.55,23.86,1.48v-6.67Z" fill="#aa6550"/>
      <path id="パス_515" data-name="パス 515" d="M585.61,370.23l.29,6.7,23.75,1.54.13-8.88Z" fill="#aa6550"/>
      <path id="パス_516" data-name="パス 516" d="M618.38,369.36a6,6,0,0,0,5.84-6.56c-1.53-17.06-5.8-63.42-8.49-79.21a73.1,73.1,0,0,0-14.05-31.7l-16.36-24.42-.27-19.23s2.43-13.7,2.42-13.91c-.43-15.91-22.82-18.39-34-16.46l-6.61.18h-1.4l-53.57-1.3-31.45-29.84L450.75,161l34.83,35.48L532,202.29c.05.74-.09,2.56-.25,4.71-.52,6.51-.77,14.3,7.69,21.23,6.71,14.84,11.47,27.26,10,44.07h.09l.89,98.88Z" fill="#455a64"/>
      <path id="パス_517" data-name="パス 517" d="M584.82,227.25a9.113,9.113,0,0,1-1.2,1.19c-.39.38-.89.82-1.48,1.31s-1.26,1.08-2,1.66a65.649,65.649,0,0,1-5.62,3.9,71.41,71.41,0,0,1-7.4,3.93,73.492,73.492,0,0,1-7.84,3,66.114,66.114,0,0,1-6.64,1.66c-1,.21-1.82.32-2.59.45s-1.42.2-2,.25a10.109,10.109,0,0,1-1.69.12,11.318,11.318,0,0,1,1.66-.32c.53-.08,1.19-.19,1.94-.34s1.63-.29,2.57-.52c1.89-.4,4.12-1,6.57-1.76a71.92,71.92,0,0,0,15.13-6.86c2.18-1.34,4.1-2.62,5.65-3.78.8-.56,1.47-1.12,2.08-1.59s1.13-.89,1.54-1.24a13.489,13.489,0,0,1,1.32-1.06Z" fill="#263238"/>
      <path id="パス_518" data-name="パス 518" d="M585.22,227.62a3.76,3.76,0,0,1,.86-.54,22.915,22.915,0,0,1,2.5-1.18,29.866,29.866,0,0,1,3.9-1.27c.75-.19,1.55-.36,2.38-.49a7.491,7.491,0,0,1,1.32-.15,1.16,1.16,0,0,1,.76.27.94.94,0,0,1,.32.79,2.21,2.21,0,0,1-.62,1.33,3.73,3.73,0,0,1-1.1.81,7.81,7.81,0,0,1-2.39.64A25.149,25.149,0,0,1,589,228a18.279,18.279,0,0,1-2.75-.3,3.49,3.49,0,0,1-1-.27c0-.08,1.43.2,3.74.21a29.418,29.418,0,0,0,4-.29,7.36,7.36,0,0,0,2.23-.63,3.25,3.25,0,0,0,.94-.7,1.69,1.69,0,0,0,.49-1c0-.34-.21-.52-.59-.54a8.814,8.814,0,0,0-1.21.14c-.82.13-1.6.29-2.35.46a34.4,34.4,0,0,0-3.88,1.14C586.54,227,585.26,227.7,585.22,227.62Z" fill="#263238"/>
      <path id="パス_519" data-name="パス 519" d="M584.89,227a3,3,0,0,1,.24-.92,16.121,16.121,0,0,1,1.06-2.37,19.14,19.14,0,0,1,2.18-3.19,18.581,18.581,0,0,1,1.57-1.66c.3-.27.6-.54.92-.8a1.43,1.43,0,0,1,.62-.38.75.75,0,0,1,.79.39,1.65,1.65,0,0,1-.1,1.4,9.619,9.619,0,0,1-.49,1.13,12.2,12.2,0,0,1-1.23,2,20.1,20.1,0,0,1-2.67,2.79c-.83.72-1.53,1.25-2,1.62a3.26,3.26,0,0,1-.8.51c-.06-.06,1-.92,2.57-2.4a22.691,22.691,0,0,0,2.54-2.81,12.54,12.54,0,0,0,1.16-1.89,11.432,11.432,0,0,0,.45-1.07,1.34,1.34,0,0,0,.14-1c-.13-.24-.16-.16-.24-.14a1.25,1.25,0,0,0-.4.27c-.31.25-.6.51-.89.77a19.462,19.462,0,0,0-1.56,1.6,22.467,22.467,0,0,0-2.22,3.06C585.4,225.75,585,227,584.89,227Z" fill="#263238"/>
      <path id="パス_520" data-name="パス 520" d="M563.62,194.41l-14.11,91.46h17.15l18.66-81.57c2.83-14.68-4.18-19.57-12.41-18.81a5.976,5.976,0,0,0-.85.1A10.45,10.45,0,0,0,563.62,194.41Z" fill="#455a64"/>
      <path id="パス_521" data-name="パス 521" d="M576.62,185.73h-.51c-.35,0-.85-.08-1.52-.11a12.63,12.63,0,0,0-5.64,1.1,9.3,9.3,0,0,0-3.17,2.66,8.9,8.9,0,0,0-1.78,4.56c-.58,3.56-1.28,7.6-2,12.08-2.75,18-6.55,42.74-10.74,70.1-.51,3.31-1,6.59-1.52,9.81l-.25-.3h17.15l-.24.19c4.94-20.57,9.21-38.36,12.25-51,1.53-6.3,2.75-11.34,3.6-14.81.43-1.71.76-3,1-4,.11-.44.2-.77.26-1s.1-.34.1-.34a1.551,1.551,0,0,1-.06.35,5.442,5.442,0,0,1-.22,1l-.9,4c-.82,3.48-2,8.52-3.46,14.85-3,12.68-7.21,30.49-12.07,51.07v.2H549.2v-.3c.5-3.22,1-6.5,1.51-9.81,4.26-27.36,8.11-52.12,10.9-70.08.72-4.48,1.45-8.52,2.05-12.07.08-.45.16-.88.23-1.31a6.692,6.692,0,0,1,.42-1.24,10.309,10.309,0,0,1,1.22-2.11,9.47,9.47,0,0,1,3.28-2.69,12.61,12.61,0,0,1,5.74-1,11.815,11.815,0,0,1,1.51.16Z" fill="#263238"/>
      <path id="パス_522" data-name="パス 522" d="M542.88,228.41h-.36a8.708,8.708,0,0,1-1-.19,11.43,11.43,0,0,1-3.46-1.59,13.931,13.931,0,0,1-3.94-4.06,17.681,17.681,0,0,1-2.43-6.48,32.518,32.518,0,0,1,.71-12.48c.35-1.56.69-2.81.93-3.67a6.255,6.255,0,0,1,.43-1.32,7.454,7.454,0,0,1-.24,1.37c-.2,1-.45,2.21-.76,3.7A34.509,34.509,0,0,0,532.2,216a17.7,17.7,0,0,0,2.33,6.31,13.32,13.32,0,0,0,8.37,6.11Z" fill="#263238"/>
      <path id="パス_523" data-name="パス 523" d="M558.59,223.34a8.45,8.45,0,0,1-7.12-5.22,21.192,21.192,0,0,0,3.13,3.19,21.921,21.921,0,0,0,3.99,2.03Z" fill="#263238"/>
      <path id="パス_524" data-name="パス 524" d="M550.94,201.31a.922.922,0,0,1,.07-.13,2,2,0,0,1,.25-.34,3.7,3.7,0,0,1,1.28-1,3.89,3.89,0,0,1,5.25,1.83,4.23,4.23,0,0,1-.26,4.13l-2.65,3.94-6.11,9v.07h-.08l-.7.26-5.79,2.18-.35.13v-7.2l6.49-9.38,1.87-2.62a7.43,7.43,0,0,1,.7-.91,6.24,6.24,0,0,1-.58,1L548.6,205l-6.34,9.48v6.56l-.34-.23,5.79-2.2.7-.26-.13.1,6.15-9,2.68-3.9a3.85,3.85,0,0,0,.3-3.74,3.73,3.73,0,0,0-2.42-2,3.68,3.68,0,0,0-2.42.22,5.33,5.33,0,0,0-1.63,1.28Z" fill="#e0e0e0"/>
      <path id="パス_525" data-name="パス 525" d="M548.62,218.51a28.335,28.335,0,0,1-6.27-4.34,14.7,14.7,0,0,1,3.27,2,14.28,14.28,0,0,1,3,2.34Z" fill="#e0e0e0"/>
      <path id="パス_526" data-name="パス 526" d="M544.35,220.14c-.14.06-.48-.47-1.06-.95s-1.13-.74-1.1-.88.77-.09,1.44.49S544.48,220.09,544.35,220.14Z" fill="#e0e0e0"/>
      <path id="パス_527" data-name="パス 527" d="M557.46,205.42a14,14,0,0,1-3.13-2,13.449,13.449,0,0,1-2.82-2.4,13.359,13.359,0,0,1,3.13,2,13,13,0,0,1,2.82,2.4Z" fill="#e0e0e0"/>
      <path id="パス_528" data-name="パス 528" d="M545.5,216.08a9.851,9.851,0,0,1,1.14-2c.76-1.19,1.84-2.8,3.05-4.57s2.33-3.36,3.15-4.5a15.612,15.612,0,0,1,1.39-1.81c.17.11-1.68,3.07-4.11,6.6-1.21,1.77-2.34,3.36-3.18,4.49A9.421,9.421,0,0,1,545.5,216.08Z" fill="#e0e0e0"/>
      <path id="パス_529" data-name="パス 529" d="M550.31,286.16l-1.45,4.81-13.74,2.51h26.37l2.3-7.3Z" fill="#b78876"/>
      <path id="パス_530" data-name="パス 530" d="M563,449.08l.1-3.9,18.42.48-.13,8.33-1.14.05c-5.07.18-25.8.56-29.17-.53C547.31,452.28,563,449.08,563,449.08Z" fill="#90caf9"/>
      <g id="グループ_12" data-name="グループ 12" opacity="0.4">
        <path id="パス_531" data-name="パス 531" d="M555.32,450.92s-5.5,1.47-4.83,2.38,21.63,1.32,30.89.69v-.41l-24.46-.27S556.39,451,555.32,450.92Z" fill="#fff"/>
      </g>
      <path id="パス_532" data-name="パス 532" d="M581.65,453.57h-1.22l-3.34.08c-2.82,0-6.72.06-11,0s-8.2-.24-11-.39l-3.33-.2-.91-.08a2.346,2.346,0,0,1-.31,0h1.22l3.34.13c2.82.11,6.71.24,11,.32s8.19.09,11,.09h4.24Z" fill="#263238"/>
      <path id="パス_533" data-name="パス 533" d="M556.9,453.6a8.292,8.292,0,0,0-.59-1.61,8.1,8.1,0,0,0-1.12-1.3,3,3,0,0,1,1.71,2.91Z" fill="#263238"/>
      <path id="パス_534" data-name="パス 534" d="M562.37,451a3.652,3.652,0,0,1-.56-.71c-.26-.43-.43-.8-.38-.83s.31.29.57.71S562.42,450.92,562.37,451Z" fill="#263238"/>
      <path id="パス_535" data-name="パス 535" d="M563.87,450.2a3.2,3.2,0,0,1-.64-.45c-.32-.29-.52-.56-.48-.6s.33.15.64.44S563.92,450.15,563.87,450.2Z" fill="#263238"/>
      <path id="パス_536" data-name="パス 536" d="M564.85,448.48a2.2,2.2,0,0,1-1,.11,2.3,2.3,0,0,1-1-.12,2.2,2.2,0,0,1,1-.11A2.3,2.3,0,0,1,564.85,448.48Z" fill="#263238"/>
      <path id="パス_537" data-name="パス 537" d="M565.19,447.27a2.68,2.68,0,0,1-2.17.12,5.347,5.347,0,0,1,1.09-.06A4.83,4.83,0,0,1,565.19,447.27Z" fill="#263238"/>
      <path id="パス_538" data-name="パス 538" d="M561.78,449.34a3.3,3.3,0,0,1-1.18,0,6.571,6.571,0,0,1-1.25-.3,3.639,3.639,0,0,1-.72-.31.64.64,0,0,1-.28-.37.45.45,0,0,1,.19-.47,2.16,2.16,0,0,1,2.66.68,2,2,0,0,1,.37.8.87.87,0,0,1,0,.32,3.459,3.459,0,0,0-.52-1,2.13,2.13,0,0,0-1-.67,1.82,1.82,0,0,0-1.41.06c-.19.14-.12.36.09.49a3.6,3.6,0,0,0,.66.3,8.085,8.085,0,0,0,1.21.34A9.223,9.223,0,0,1,561.78,449.34Z" fill="#263238"/>
      <path id="パス_539" data-name="パス 539" d="M561.47,449.39a1.22,1.22,0,0,1-.12-.82,2,2,0,0,1,.34-.85,1.18,1.18,0,0,1,1-.59.47.47,0,0,1,.36.55,1.341,1.341,0,0,1-.21.53,3.907,3.907,0,0,1-.57.7,1.749,1.749,0,0,1-.69.47,7.284,7.284,0,0,0,.57-.58,3.734,3.734,0,0,0,.51-.7c.17-.24.29-.69,0-.75s-.6.26-.78.49a1.909,1.909,0,0,0-.35.76,4.64,4.64,0,0,0-.06.79Z" fill="#263238"/>
      <path id="パス_540" data-name="パス 540" d="M581.37,448.54a7.99,7.99,0,0,0-1.35,0,5.74,5.74,0,0,0-4.89,3.74c-.29.78-.33,1.31-.37,1.31a.931.931,0,0,1,0-.37,5.554,5.554,0,0,1,.22-1,5.62,5.62,0,0,1,5-3.85,4.789,4.789,0,0,1,1,.05C581.25,448.49,581.38,448.52,581.37,448.54Z" fill="#263238"/>
      <path id="パス_541" data-name="パス 541" d="M572.45,451.88a10.709,10.709,0,0,1-2.68.21,10.181,10.181,0,0,1-2.69-.27,24.3,24.3,0,0,1,2.69.05C571.25,451.92,572.45,451.81,572.45,451.88Z" fill="#263238"/>
      <path id="パス_542" data-name="パス 542" d="M576.05,451.94c.05.05-.1.25-.23.52s-.2.52-.26.51-.09-.29.06-.6S576,451.89,576.05,451.94Z" fill="#263238"/>
      <path id="パス_543" data-name="パス 543" d="M577.44,450.28a1.244,1.244,0,0,1-.27.42c-.19.19-.39.31-.43.26s.08-.23.27-.42S577.4,450.23,577.44,450.28Z" fill="#263238"/>
      <path id="パス_544" data-name="パス 544" d="M579.4,449.54c0,.07-.26.06-.53.15s-.47.23-.52.19.11-.3.45-.4S579.42,449.49,579.4,449.54Z" fill="#263238"/>
      <path id="パス_545" data-name="パス 545" d="M580.78,449.21c0,.05-.08.15-.23.2s-.3.06-.32,0,.09-.15.24-.21S580.76,449.15,580.78,449.21Z" fill="#263238"/>
      <path id="パス_546" data-name="パス 546" d="M587.78,449.08l.1-3.9,18.43.48-.13,8.33L605,454c-5.08.18-25.81.56-29.18-.53C572.1,452.28,587.78,449.08,587.78,449.08Z" fill="#90caf9"/>
      <g id="グループ_13" data-name="グループ 13" opacity="0.4">
        <path id="パス_547" data-name="パス 547" d="M580.11,450.92s-5.5,1.47-4.83,2.38,21.63,1.32,30.9.69v-.41l-24.46-.27S581.18,451,580.11,450.92Z" fill="#fff"/>
      </g>
      <path id="パス_548" data-name="パス 548" d="M606.44,453.57h-1.22l-3.34.08c-2.82,0-6.72.06-11,0s-8.2-.24-11-.39l-3.33-.2-.91-.08h.91l3.34.13c2.82.11,6.71.24,11,.32s8.2.09,11,.09h4.25Z" fill="#263238"/>
      <path id="パス_549" data-name="パス 549" d="M581.69,453.6a4.79,4.79,0,0,0-1.71-2.91,2.49,2.49,0,0,1,1.31,1.19,2.44,2.44,0,0,1,.4,1.72Z" fill="#263238"/>
      <path id="パス_550" data-name="パス 550" d="M587.16,451a3.652,3.652,0,0,1-.56-.71c-.26-.43-.43-.8-.38-.83s.31.29.57.71S587.22,450.92,587.16,451Z" fill="#263238"/>
      <path id="パス_551" data-name="パス 551" d="M588.66,450.2a3,3,0,0,1-.63-.45c-.31-.29-.53-.56-.49-.6s.33.15.64.44S588.71,450.15,588.66,450.2Z" fill="#263238"/>
      <path id="パス_552" data-name="パス 552" d="M589.64,448.48a2.2,2.2,0,0,1-1,.11,2.3,2.3,0,0,1-1-.12,2.2,2.2,0,0,1,1-.11A2.3,2.3,0,0,1,589.64,448.48Z" fill="#263238"/>
      <path id="パス_553" data-name="パス 553" d="M590,447.27a2.68,2.68,0,0,1-2.17.12,5.347,5.347,0,0,1,1.09-.06A4.83,4.83,0,0,1,590,447.27Z" fill="#263238"/>
      <path id="パス_554" data-name="パス 554" d="M586.57,449.34a3.3,3.3,0,0,1-1.18,0,6.571,6.571,0,0,1-1.25-.3,3.329,3.329,0,0,1-.71-.31.61.61,0,0,1-.29-.37.46.46,0,0,1,.19-.47,2.16,2.16,0,0,1,2.66.68,2,2,0,0,1,.37.8.66.66,0,0,1,0,.32,3.18,3.18,0,0,0-.52-1,2.13,2.13,0,0,0-1-.67,1.79,1.79,0,0,0-1.4.06c-.19.14-.13.36.08.49a3.6,3.6,0,0,0,.66.3,8.427,8.427,0,0,0,1.21.34A9.221,9.221,0,0,1,586.57,449.34Z" fill="#263238"/>
      <path id="パス_555" data-name="パス 555" d="M586.26,449.39a1.22,1.22,0,0,1-.12-.82,2,2,0,0,1,.34-.85,1.2,1.2,0,0,1,1-.59.47.47,0,0,1,.35.55,1.341,1.341,0,0,1-.21.53,3.9,3.9,0,0,1-.57.7,1.681,1.681,0,0,1-.69.47,7.242,7.242,0,0,0,.57-.58,3.734,3.734,0,0,0,.51-.7c.17-.24.29-.69,0-.75s-.6.26-.78.49a1.909,1.909,0,0,0-.35.76,4.643,4.643,0,0,0-.05.79Z" fill="#263238"/>
      <path id="パス_556" data-name="パス 556" d="M606.16,448.54a7.99,7.99,0,0,0-1.35,0,5.74,5.74,0,0,0-4.89,3.74c-.29.78-.33,1.31-.37,1.31a1.079,1.079,0,0,1,0-.37,4.2,4.2,0,0,1,.22-1,5.6,5.6,0,0,1,1.91-2.7,5.68,5.68,0,0,1,3.11-1.15,4.729,4.729,0,0,1,1,.05A2.019,2.019,0,0,1,606.16,448.54Z" fill="#263238"/>
      <path id="パス_557" data-name="パス 557" d="M597.24,451.88a10.709,10.709,0,0,1-2.68.21,10.181,10.181,0,0,1-2.69-.27,24.3,24.3,0,0,1,2.69.05C596.04,451.92,597.24,451.81,597.24,451.88Z" fill="#263238"/>
      <path id="パス_558" data-name="パス 558" d="M600.84,451.94a3.206,3.206,0,0,1-.23.52c-.13.27-.2.52-.26.51s-.09-.29.06-.6S600.8,451.89,600.84,451.94Z" fill="#263238"/>
      <path id="パス_559" data-name="パス 559" d="M602.23,450.28a1.244,1.244,0,0,1-.27.42c-.19.19-.39.31-.43.26s.08-.23.27-.42S602.19,450.23,602.23,450.28Z" fill="#263238"/>
      <path id="パス_560" data-name="パス 560" d="M604.19,449.54c0,.07-.26.06-.53.15s-.47.23-.52.19.11-.3.45-.4S604.21,449.49,604.19,449.54Z" fill="#263238"/>
      <path id="パス_561" data-name="パス 561" d="M605.58,449.21c0,.05-.09.15-.24.2s-.3.06-.32,0,.09-.15.24-.21S605.56,449.15,605.58,449.21Z" fill="#263238"/>
      <path id="パス_562" data-name="パス 562" d="M563.87,134.31v2.93l.2,43.82c0,5.08-4.34,9.15-9.79,9.14h0a9.949,9.949,0,0,1-10.15-9.34c-.11-5.39-.33-11.07-.33-11.07s-7-1-8.56-10.07c-.8-4.49-.71-11.89-.43-17.94a9.57,9.57,0,0,1,10.4-9.11Z" fill="#b78876"/>
      <path id="パス_563" data-name="パス 563" d="M536.93,147.3a1.16,1.16,0,0,0,1.14,1.15,1.11,1.11,0,0,0,1.18-1.07,1.16,1.16,0,0,0-1.14-1.15,1.1,1.1,0,0,0-1.18,1.07Z" fill="#263238"/>
      <path id="パス_564" data-name="パス 564" d="M536.47,145.6c.15.15,1-.52,2.27-.54s2.18.59,2.31.44-.09-.34-.49-.63a3.21,3.21,0,0,0-1.86-.53,3.07,3.07,0,0,0-1.8.61C536.52,145.26,536.4,145.53,536.47,145.6Z" fill="#263238"/>
      <path id="パス_565" data-name="パス 565" d="M548.78,147.09a1.16,1.16,0,0,0,1.14,1.15,1.11,1.11,0,0,0,1.18-1.07A1.16,1.16,0,0,0,550,146a1.1,1.1,0,0,0-1.22,1.09Z" fill="#263238"/>
      <path id="パス_566" data-name="パス 566" d="M548.77,145.62c.15.14,1-.52,2.27-.54s2.18.59,2.31.43-.08-.34-.49-.62a3.28,3.28,0,0,0-1.85-.54,3.13,3.13,0,0,0-1.81.62C548.83,145.27,548.7,145.55,548.77,145.62Z" fill="#263238"/>
      <path id="パス_567" data-name="パス 567" d="M544.4,155a8.58,8.58,0,0,0-2-.33c-.32,0-.63-.08-.68-.3a1.59,1.59,0,0,1,.19-1c.29-.78.59-1.59.9-2.45a42.173,42.173,0,0,0,2-6.4,42.088,42.088,0,0,0-2.52,6.22c-.3.86-.58,1.68-.86,2.47a1.87,1.87,0,0,0-.14,1.25.8.8,0,0,0,.53.46,2.36,2.36,0,0,0,.55.07,8.361,8.361,0,0,0,2.03.01Z" fill="#263238"/>
      <path id="パス_568" data-name="パス 568" d="M543.79,169.79a23,23,0,0,0,12.09-3.45S553,172.62,544,171.93Z" fill="#aa6550"/>
      <path id="パス_569" data-name="パス 569" d="M545,158a2.25,2.25,0,0,1,2-.87,2,2,0,0,1,1.44.73,1.29,1.29,0,0,1,.12,1.49,1.51,1.51,0,0,1-1.63.45,4.739,4.739,0,0,1-1.61-.93,1.591,1.591,0,0,1-.37-.36.42.42,0,0,1,0-.47" fill="#aa6550"/>
      <path id="パス_570" data-name="パス 570" d="M548.09,155.77c-.2,0-.18,1.35-1.32,2.34a5.892,5.892,0,0,1-2.61,1c-.01.14.33.26.94.26a3.43,3.43,0,0,0,2.18-.8,2.94,2.94,0,0,0,1-2C548.34,156.1,548.19,155.76,548.09,155.77Z" fill="#263238"/>
      <path id="パス_571" data-name="パス 571" d="M566.14,175.84c-2.69-.88-5.87-1.77-6.93-4.4a13.39,13.39,0,0,1-.34-8.35c.34-1.27.82-2.66.24-3.84a7.059,7.059,0,0,0-2-2,8.44,8.44,0,0,1-2.67-5.67,14.749,14.749,0,0,1,1-6.29c.42-1.11.91-2.32.5-3.42a5.27,5.27,0,0,0-1.61-1.88,14.811,14.811,0,0,1-3.22-4.16,4.21,4.21,0,0,1-.5-3.59c.63-1.37,2.34-1.83,3.84-2,3.58-.34,7.57.39,9.9,3.13,2.09,2.45,2.39,5.92,2.59,9.14.64,10.15,1.27,20.39-.31,30.44" fill="#263238"/>
      <path id="パス_572" data-name="パス 572" d="M531.22,133.88a15.45,15.45,0,0,0,1.56.82,9.427,9.427,0,0,1,1.33,1.11c.24.22.5.47.73.72.06.07.1.13.17.2l.26.25.64.59a15,15,0,0,0,2,1.5,10.12,10.12,0,0,0,10.26.45,10.8,10.8,0,0,0,3.72-3.1c1.5-2.08,1.71-3.75,1-4.64s-2.52-.74-4.51-.21a27.6,27.6,0,0,1-3,.64,7,7,0,0,1-2.36,0,5,5,0,0,1-1.11-.37c-.51-.22-1.15-.55-1.89-.88-.37-.16-.76-.33-1.17-.49l-.64-.21-.72-.21a8,8,0,0,0-2.72-.17,4.91,4.91,0,0,0-3.68,2,1.48,1.48,0,0,0,.13,2Z" fill="#263238"/>
      <path id="パス_573" data-name="パス 573" d="M548.36,140.72c.13.34,1.38.15,2.85.3s2.66.53,2.85.22c.09-.14-.13-.46-.61-.78a5,5,0,0,0-4.34-.4C548.57,140.29,548.31,140.56,548.36,140.72Z" fill="#263238"/>
      <path id="パス_574" data-name="パス 574" d="M536.87,142c.22.28,1.08,0,2.11-.06s1.92.16,2.12-.14-.06-.43-.45-.7a3.08,3.08,0,0,0-3.41.17C536.88,141.54,536.77,141.83,536.87,142Z" fill="#263238"/>
      <path id="パス_575" data-name="パス 575" d="M565.67,132.45A10.72,10.72,0,0,0,573.3,131a6.63,6.63,0,0,0,2.86-6.88,8.05,8.05,0,0,0-3.4-4.28,7.47,7.47,0,0,0-4.66-1.57,6.74,6.74,0,0,0-5.14,3.63,8.47,8.47,0,0,0-.59,7.46,6.41,6.41,0,0,0,6.16,3.87" fill="#263238"/>
      <path id="パス_576" data-name="パス 576" d="M568.91,132.81c0,.06-.43.18-1.16.16a6.56,6.56,0,0,1-4.89-2.58c-.43-.59-.57-1-.52-1a13.16,13.16,0,0,0,2.92,2.42,13.429,13.429,0,0,0,3.65,1Z" fill="#90caf9"/>
      <path id="パス_577" data-name="パス 577" d="M556.57,129.86A13.45,13.45,0,0,1,573.33,142c.31,4.7-1.81,9.63-.09,14,1.57,4,5.93,6.41,7.12,10.51s-1.21,8.5-.39,12.68c.67,3.48,3.47,6.38,3.6,9.91a8.36,8.36,0,0,1-3.48,6.73,14.53,14.53,0,0,1-7.31,2.62c-2.71.29-5.64,0-7.82-1.6-2.92-2.18-3.72-6.15-4.15-9.77a121.91,121.91,0,0,1,.48-32.27" fill="#263238"/>
    </g>
    <g id="freepik--character-2--inject-658">
      <path id="パス_578" data-name="パス 578" d="M337,342.78c7.77-.24,4.11-11.64,3.92-24-.12-7.77-5.28-15.4-10.92-20.76a26.65,26.65,0,0,0-9.89-5.52,61.6,61.6,0,0,0-30-1.93S287.8,344.34,337,342.78Z" fill="#455a64"/>
      <path id="パス_579" data-name="パス 579" d="M359,209.05c-.22.36-2.66,5-2.66,5l2-7.82c.63-2.47-.9-2.21-1.34-1.33s-3.23,8.34-3.23,8.34c2.59-9.71,1.78-10.56,1-10.72s-3,8.73-3,8.73a8.31,8.31,0,0,0-2.34-2.57c-2.35-1.61-6.26,0-6.45,1.11s1.21,1.41,1.21,1.41a3.53,3.53,0,0,1,5.64,3.2,2.2,2.2,0,0,1-4.3.42c-1-4.38-2.47-2.95-2.47-2.95l1.51,9.65-1.6,4.86L334.3,250l-16.7-17.39s-8.93,19.73-9.14,20.4c-.14.44,8.37,9.3,14,15.05a15.8,15.8,0,0,0,26.71-7.41l6.6-34,3.09-11.15,1.38-5.58C360.56,208.54,359.58,208.1,359,209.05Z" fill="#ffbe9d"/>
      <path id="パス_580" data-name="パス 580" d="M289.22,454.48s-6.3-5.63-17.71-6.09V347.92h-4.23V448.45c-10.92.79-17.39,6-17.39,6h17.39v.07h4.23v-.07Z" fill="#263238"/>
      <path id="パス_581" data-name="パス 581" d="M262.47,243.05c-4.64-.42-9.36-.79-13.94.13s-9.05,3.3-11.48,7.28-2.53,9-2.53,13.65v59.35h53Z" fill="#455a64"/>
      <path id="パス_582" data-name="パス 582" d="M234.52,320.72c-.24,11.7.85,21.21,9.49,25.8,6.46,3.45,14.28,3.53,21.71,3.52l32.2-.05c3.26,0,6.76-.07,9.42-1.84a9.09,9.09,0,0,0,3.65-9c-.5-3.33-2.49-6.33-4.9-8.83-9.3-9.68-24-12.55-37.67-14.9" fill="#455a64"/>
      <path id="パス_583" data-name="パス 583" d="M274.76,188.59A2,2,0,0,1,272,191c-1.31-.64-1.49-2.43-1.25-3.87s.7-3,.08-4.3a9.63,9.63,0,0,0-2.26-2.43,6.33,6.33,0,0,1-1.82-5.32,5.32,5.32,0,0,1,3.59-4.21c1.91-.56,4.27,0,5.68-1.4,1-1,1.06-2.66,1.84-3.86,1.22-1.88,3.83-2.2,6.05-1.93s4.48,1,6.64.4c1.8-.48,3.27-1.76,5-2.56a9.78,9.78,0,0,1,12.89,13.27c-.66,1.29-2,5-6.12,5" fill="#263238"/>
      <path id="パス_584" data-name="パス 584" d="M273.9,173.07l.06,3,.6,44.55c.07,5.17,4.57,9.23,10.11,9.12h0c5.59-.12,10.13-4.45,10.15-9.68,0-5.48.13-11.25.13-11.25s7.07-1.18,8.53-10.4c.73-4.58.5-12.1.11-18.24a9.73,9.73,0,0,0-10.73-9.08Z" fill="#ffbe9d"/>
      <path id="パス_585" data-name="パス 585" d="M301.71,185.37a1.18,1.18,0,0,1-1.14,1.19,1.12,1.12,0,0,1-1.22-1.06,1.18,1.18,0,0,1,1.14-1.2,1.15,1.15,0,0,1,1.22,1.07Z" fill="#263238"/>
      <path id="パス_586" data-name="パス 586" d="M302,184.05c-.14.15-1-.51-2.31-.51s-2.21.64-2.34.49.08-.35.48-.65a3.33,3.33,0,0,1,1.88-.58,3.14,3.14,0,0,1,1.84.6A1.257,1.257,0,0,1,302,184.05Z" fill="#263238"/>
      <path id="パス_587" data-name="パス 587" d="M289,185.37a1.18,1.18,0,0,1-1.14,1.19,1.13,1.13,0,0,1-1.22-1.06,1.19,1.19,0,0,1,1.14-1.2,1.14,1.14,0,0,1,1.22,1.07Z" fill="#263238"/>
      <path id="パス_588" data-name="パス 588" d="M289.46,184.28c-.15.16-1-.5-2.32-.5s-2.2.64-2.34.48.08-.34.49-.64a3.22,3.22,0,0,1,1.87-.58,3.17,3.17,0,0,1,1.85.6C289.4,183.94,289.53,184.22,289.46,184.28Z" fill="#263238"/>
      <path id="パス_589" data-name="パス 589" d="M294.07,193.72a8.591,8.591,0,0,1,2.07-.37c.33,0,.63-.1.69-.32a1.71,1.71,0,0,0-.22-1c-.3-.78-.62-1.61-1-2.47a43.6,43.6,0,0,1-2.16-6.47,42.153,42.153,0,0,1,2.68,6.28c.32.87.62,1.7.92,2.49a1.93,1.93,0,0,1,.17,1.27.83.83,0,0,1-.54.48,2.43,2.43,0,0,1-.55.08,8.349,8.349,0,0,1-2.06.03Z" fill="#263238"/>
      <path id="パス_590" data-name="パス 590" d="M295,208.78a23.51,23.51,0,0,1-12.34-3.3s3,6.33,12.22,5.47Z" fill="#eb996e"/>
      <path id="パス_591" data-name="パス 591" d="M290.33,194.6c.21,0,.21,1.37,1.39,2.35s2.65.83,2.66,1-.32.27-.94.29a3.48,3.48,0,0,1-2.23-.78,3,3,0,0,1-1.08-2C290.08,194.93,290.24,194.59,290.33,194.6Z" fill="#263238"/>
      <path id="パス_592" data-name="パス 592" d="M289.79,179.3c-.13.34-1.4.18-2.89.36s-2.7.59-2.9.28c-.09-.15.12-.48.61-.81a4.75,4.75,0,0,1,2.15-.75,4.86,4.86,0,0,1,2.26.26C289.56,178.86,289.84,179.13,289.79,179.3Z" fill="#263238"/>
      <path id="パス_593" data-name="パス 593" d="M301.5,180.36c-.23.29-1.1,0-2.16,0s-1.94.19-2.15-.11c-.09-.15.05-.43.44-.71a3,3,0,0,1,1.75-.47,2.93,2.93,0,0,1,1.72.58C301.47,179.93,301.59,180.22,301.5,180.36Z" fill="#263238"/>
      <path id="パス_594" data-name="パス 594" d="M303.9,176.05s-4.71,2.46-11-.45c-4.15-1.91-8.94-2.75-10-1.9s-1.11,5.07-5.12,6.43c0,0,.53,8-2.68,7.83s-2.72-16.28-2.72-16.28l8.83-.47,8.49-1.89,8.09.88,6.28,1.51Z" fill="#263238"/>
      <path id="パス_595" data-name="パス 595" d="M272.17,169.39c0-.12.71-.4,1.6-.08s1.29,1,1.18,1.08-.6-.37-1.34-.63S272.2,169.53,272.17,169.39Z" fill="#263238"/>
      <path id="パス_596" data-name="パス 596" d="M274.83,166.68c.15,0,.1.95.27,2s.63,1.88.52,2-.82-.66-1-1.88A3.16,3.16,0,0,1,274.83,166.68Z" fill="#263238"/>
      <path id="パス_597" data-name="パス 597" d="M275.3,184.65c-.13-.06-5.33-1.82-5.38,3.56s5.35,4.32,5.36,4.17S275.3,184.65,275.3,184.65Z" fill="#ffbe9d"/>
      <path id="パス_598" data-name="パス 598" d="M273.66,190.32a1.273,1.273,0,0,1-.25.14,1,1,0,0,1-.7,0,2.32,2.32,0,0,1-1-2.1,3,3,0,0,1,.27-1.33,1.1,1.1,0,0,1,.71-.72.48.48,0,0,1,.55.27c.07.15,0,.26.07.26s.11-.08.07-.31a.61.61,0,0,0-.21-.34.7.7,0,0,0-.51-.14,1.32,1.32,0,0,0-1,.83,3.12,3.12,0,0,0-.34,1.49,2.45,2.45,0,0,0,1.34,2.34,1,1,0,0,0,.86-.14C273.65,190.45,273.68,190.33,273.66,190.32Z" fill="#eb996e"/>
      <path id="パス_599" data-name="パス 599" d="M250.91,242.61s-2.13,64.29-2,70.45l67.1-.78-5.52-34.11V255.96l7.53,9.55,16-18.62L315.23,227h0a32.57,32.57,0,0,0-12.59-8.15,26.271,26.271,0,0,0-7.88-1.51h0a31.55,31.55,0,0,1-19.06,0c-.77.1-1.84.2-3.2.36h-.24A24.33,24.33,0,0,0,251,240.59Z" fill="#90caf9"/>
      <path id="パス_600" data-name="パス 600" d="M288.56,253.62a25.846,25.846,0,0,1-3.09-2.42l-.12-.1.11-.12.06-.07a24.689,24.689,0,0,1,2.84-2.83,26.669,26.669,0,0,1-2.62,3l-.05.06v-.23a23.846,23.846,0,0,1,2.87,2.71Z" fill="#fff"/>
      <path id="パス_601" data-name="パス 601" d="M294,248a24.326,24.326,0,0,1,3,2.51l.12.1-.11.12-.06.06a23.729,23.729,0,0,1-2.84,2.83,26.591,26.591,0,0,1,2.61-3l.06-.06v.22A26.448,26.448,0,0,1,294,248Z" fill="#fff"/>
      <path id="パス_602" data-name="パス 602" d="M289.36,254.76a30.1,30.1,0,0,1,1.68-4,31.875,31.875,0,0,1,2-3.86,29.784,29.784,0,0,1-1.67,4,30.3,30.3,0,0,1-2.01,3.86Z" fill="#fff"/>
      <path id="パス_603" data-name="パス 603" d="M301.54,257.22a.38.38,0,0,0,.16-.08c.11-.07.07-.25.07-.49v-2.08c0-1.86,0-4.46-.07-7.64v-4.22a.09.09,0,0,0-.06-.11H281.06s-.06,0-.06.1v14.21a.07.07,0,0,0,.06.09h10.12l7.63.07h0l-7.63.07H281.01a.45.45,0,0,1-.39-.46V242.47a.49.49,0,0,1,.47-.52h19.93a5.208,5.208,0,0,1,.76,0,.44.44,0,0,1,.29.43v4.22c0,3.18,0,5.78-.07,7.64v2.08c0,.22,0,.44-.12.52a.255.255,0,1,1-.34.38Z" fill="#fff"/>
      <path id="パス_604" data-name="パス 604" d="M301.81,244.7c0,.08-4.72.15-10.54.15s-10.53-.07-10.53-.15,4.71-.16,10.53-.16S301.81,244.61,301.81,244.7Z" fill="#fff"/>
      <circle id="楕円形_6" data-name="楕円形 6" cx="0.23" cy="0.23" r="0.23" transform="translate(281.95 243.46)" fill="#fff"/>
      <path id="パス_605" data-name="パス 605" d="M283.31,243.69a.23.23,0,1,1-.22-.22.22.22,0,0,1,.22.22Z" fill="#fff"/>
      <path id="パス_606" data-name="パス 606" d="M284.22,243.69a.23.23,0,1,1-.45,0,.225.225,0,0,1,.45,0Z" fill="#fff"/>
      <path id="パス_607" data-name="パス 607" d="M310.34,256.24a73.86,73.86,0,0,1-.26-8.85,73.994,73.994,0,0,1,.26-8.85,76.6,76.6,0,0,1,.26,8.85A76.466,76.466,0,0,1,310.34,256.24Z" fill="#263238"/>
      <g id="グループ_14" data-name="グループ 14" opacity="0.2">
        <path id="パス_608" data-name="パス 608" d="M310.45,252.25a91.094,91.094,0,0,0,10,10.33L318,265.51,310.47,256Z"/>
      </g>
      <path id="パス_609" data-name="パス 609" d="M272.5,217.68s-22.61.17-25.41,24.06l-1.41,17.74,20.5-.4Z" fill="#90caf9"/>
      <path id="パス_610" data-name="パス 610" d="M267.8,238.31l3.25,28.5-7.33,4.43.72-12.12,1.99-.04,1.37-20.77" opacity="0.2"/>
      <path id="パス_611" data-name="パス 611" d="M245.68,259.48a1.871,1.871,0,0,1,.4-.05l1.14-.06,4.28-.15,14.92-.39-.24.23c.22-3.41.46-7.14.71-11,.28-4.38.6-8.56.81-12.34a20.811,20.811,0,0,0-.37-5.32,10.7,10.7,0,0,0-1.88-4.18,7,7,0,0,0-2.95-2.31,6.34,6.34,0,0,0-2.81-.49,6.77,6.77,0,0,0-2.37.65l.13-.1a2.808,2.808,0,0,1,.42-.24,4.94,4.94,0,0,1,1.8-.51,6.489,6.489,0,0,1,2.94.42,7.19,7.19,0,0,1,3.13,2.35,10.88,10.88,0,0,1,2,4.31,20.82,20.82,0,0,1,.43,5.43c-.18,3.82-.49,8-.77,12.37-.26,3.89-.51,7.62-.74,11v.23h-.23l-14.92.2h-5.43a1.171,1.171,0,0,1-.4-.05Z" fill="#263238"/>
      <path id="パス_612" data-name="パス 612" d="M378,389.71,373.8,381l-16.42,7.81,6.05,12.85,1-.42c4.65-1.9,23.52-10,26.11-12.37C393.47,386.21,378,389.71,378,389.71Z" fill="#455a64"/>
      <path id="パス_613" data-name="パス 613" d="M363,401.37a2,2,0,0,0,.3-.11l.84-.33c.82-.36,1.84-.79,3-1.29,2.57-1.11,6.09-2.69,9.94-4.51s7.3-3.56,9.78-4.85l2.93-1.54.79-.43c.18-.1.27-.16.26-.17l-.28.13-.81.4-3,1.48c-2.5,1.24-6,3-9.8,4.78s-7.36,3.42-9.91,4.56l-3,1.36-.82.37Z" fill="#263238"/>
      <path id="パス_614" data-name="パス 614" d="M385.35,391.3a8,8,0,0,1-.11-1.69,7.471,7.471,0,0,1,.47-1.62,2.39,2.39,0,0,0-.69,1.6,2.43,2.43,0,0,0,.33,1.71Z" fill="#263238"/>
      <path id="パス_615" data-name="パス 615" d="M379.34,391.15a3.7,3.7,0,0,0,.22-1.78,3.7,3.7,0,0,0-.22,1.78Z" fill="#263238"/>
      <path id="パス_616" data-name="パス 616" d="M377.68,391.08a1.732,1.732,0,0,0,.39-.66c.16-.38.25-.73.19-.75s-.23.27-.39.66S377.62,391.05,377.68,391.08Z" fill="#263238"/>
      <path id="パス_617" data-name="パス 617" d="M376.1,389.93a2.25,2.25,0,0,0,.91-.3c.47-.22.84-.44.81-.5a2.23,2.23,0,0,0-.9.3C376.44,389.65,376.07,389.87,376.1,389.93Z" fill="#263238"/>
      <path id="パス_618" data-name="パス 618" d="M375.29,389a1.8,1.8,0,0,0,1.09-.18c.58-.22,1-.55.92-.6a6.719,6.719,0,0,0-1,.4,5.751,5.751,0,0,0-1.01.38Z" fill="#263238"/>
      <path id="パス_619" data-name="パス 619" d="M379.22,389.45a3.382,3.382,0,0,0,1-.51,6.741,6.741,0,0,0,1-.78,3.171,3.171,0,0,0,.51-.57.66.66,0,0,0,.11-.45.46.46,0,0,0-.36-.35,2.16,2.16,0,0,0-2.13,1.71,2.07,2.07,0,0,0,0,.86c.05.2.1.31.11.3a3.79,3.79,0,0,1,.05-1.13,2.11,2.11,0,0,1,.63-1,1.78,1.78,0,0,1,1.3-.51c.22,0,.25.27.12.47a3.429,3.429,0,0,1-.48.53,7,7,0,0,1-.95.8C379.6,389.23,379.2,389.42,379.22,389.45Z" fill="#263238"/>
      <path id="パス_620" data-name="パス 620" d="M379.52,389.37a1.21,1.21,0,0,0-.23-.79,1.91,1.91,0,0,0-.66-.63,1.14,1.14,0,0,0-1.13-.12.46.46,0,0,0-.09.64,1.24,1.24,0,0,0,.4.39,3.72,3.72,0,0,0,.8.4,1.9,1.9,0,0,0,.81.14,7.024,7.024,0,0,1-.75-.29,3.8,3.8,0,0,1-.74-.42c-.25-.15-.54-.51-.3-.68a1,1,0,0,1,.91.12,2,2,0,0,1,.62.54A5.44,5.44,0,0,1,379.52,389.37Z" fill="#263238"/>
      <path id="パス_621" data-name="パス 621" d="M361.21,396.71a6.708,6.708,0,0,1,1.24-.53,5.869,5.869,0,0,1,3.16-.17,5.94,5.94,0,0,1,2.77,1.55c.58.59.83,1.05.87,1a1,1,0,0,0-.16-.33,4.321,4.321,0,0,0-.6-.8,5.489,5.489,0,0,0-6.99-.98,2.208,2.208,0,0,0-.29.26Z" fill="#263238"/>
      <path id="パス_622" data-name="パス 622" d="M359.67,389.07a31.1,31.1,0,0,0,1.46,3.44,32.8,32.8,0,0,0,1.66,3.35,30.219,30.219,0,0,0-1.46-3.44,31.569,31.569,0,0,0-1.66-3.35Z" fill="#263238"/>
      <path id="パス_623" data-name="パス 623" d="M370.62,396.09a10.668,10.668,0,0,0,2.51-.9,9.919,9.919,0,0,0,2.31-1.34c0-.05-1.07.52-2.4,1.14A25.808,25.808,0,0,0,370.62,396.09Z" fill="#263238"/>
      <path id="パス_624" data-name="パス 624" d="M367.4,397.61c0,.06.2.19.42.38s.39.39.45.35,0-.3-.3-.52S367.42,397.56,367.4,397.61Z" fill="#263238"/>
      <path id="パス_625" data-name="パス 625" d="M365.47,396.68c0,.06.17.18.42.27s.47.12.49.06-.16-.18-.42-.27S365.49,396.62,365.47,396.68Z" fill="#263238"/>
      <path id="パス_626" data-name="パス 626" d="M363.41,396.81c0,.05.25-.05.54-.08a2.825,2.825,0,0,1,.54,0,.671.671,0,0,0-.57-.18C363.57,396.59,363.37,396.77,363.41,396.81Z" fill="#263238"/>
      <path id="パス_627" data-name="パス 627" d="M362,397.08c0,.06.14.1.3.08s.29-.07.28-.13-.14-.1-.3-.09S362,397,362,397.08Z" fill="#263238"/>
      <path id="パス_628" data-name="パス 628" d="M325.59,449.51l-.13-9.7-18.18.14v14.2l1.13.06c5,.24,25.54.87,28.89-.17C341.07,452.88,325.59,449.51,325.59,449.51Z" fill="#455a64"/>
      <path id="パス_629" data-name="パス 629" d="M307.07,453.73a1.11,1.11,0,0,0,.31,0l.9.05,3.3.12c2.79.08,6.65.14,10.91.12s8.13-.14,10.92-.25l3.3-.16.9-.06h.31a1.5,1.5,0,0,0-.31,0h-.9l-3.31.09c-2.79.08-6.65.16-10.91.19s-8.11,0-10.9-.05h-4.52Z" fill="#263238"/>
      <path id="パス_630" data-name="パス 630" d="M331.56,454.06a8,8,0,0,1,.61-1.58,7.118,7.118,0,0,1,1.12-1.27,2.39,2.39,0,0,0-1.31,1.16,2.52,2.52,0,0,0-.42,1.69Z" fill="#263238"/>
      <path id="パス_631" data-name="パス 631" d="M326.18,451.38a2.3,2.3,0,0,0,.57-.7c.26-.42.43-.79.38-.82s-.31.28-.57.7S326.13,451.35,326.18,451.38Z" fill="#263238"/>
      <path id="パス_632" data-name="パス 632" d="M324.7,450.61a2.806,2.806,0,0,0,.64-.43c.31-.28.53-.55.49-.6s-.33.15-.64.43S324.66,450.56,324.7,450.61Z" fill="#263238"/>
      <path id="パス_633" data-name="パス 633" d="M323.76,448.9a2.14,2.14,0,0,0,.95.11,2.09,2.09,0,0,0,1-.1,2.27,2.27,0,0,0-1-.12A2.18,2.18,0,0,0,323.76,448.9Z" fill="#263238"/>
      <path id="パス_634" data-name="パス 634" d="M323.43,447.69a1.82,1.82,0,0,0,1.06.3,1.74,1.74,0,0,0,1.09-.15,125.812,125.812,0,0,1-2.15-.15Z" fill="#263238"/>
      <path id="パス_635" data-name="パス 635" d="M326.79,449.79a3.6,3.6,0,0,0,1.16,0,6.38,6.38,0,0,0,1.25-.28,3.747,3.747,0,0,0,.71-.3.65.65,0,0,0,.28-.36.46.46,0,0,0-.18-.47,2.16,2.16,0,0,0-3,1.43.809.809,0,0,0,0,.31,3.41,3.41,0,0,1,.53-1,2.12,2.12,0,0,1,1-.65,1.8,1.8,0,0,1,1.4.08c.18.14.11.36-.09.48a3.887,3.887,0,0,1-.66.29,9.474,9.474,0,0,1-1.2.32C327.23,449.75,326.79,449.75,326.79,449.79Z" fill="#263238"/>
      <path id="パス_636" data-name="パス 636" d="M327.09,449.84a1.08,1.08,0,0,0,.13-.81,1.9,1.9,0,0,0-.33-.85,1.17,1.17,0,0,0-1-.59.47.47,0,0,0-.36.54,1.29,1.29,0,0,0,.2.52,4,4,0,0,0,.56.71c.37.35.66.49.67.46s-.23-.2-.56-.57a3.712,3.712,0,0,1-.49-.7c-.16-.24-.28-.69,0-.74s.59.26.77.49a1.86,1.86,0,0,1,.33.76,3.871,3.871,0,0,1,.08.78Z" fill="#263238"/>
      <path id="パス_637" data-name="パス 637" d="M307.4,448.75c0,.05.52-.05,1.34,0a5.88,5.88,0,0,1,2.94,1.19,5.8,5.8,0,0,1,1.85,2.58c.29.77.32,1.3.36,1.29a1.171,1.171,0,0,0,0-.37,4.508,4.508,0,0,0-.21-1,5.52,5.52,0,0,0-4.92-3.87,4.339,4.339,0,0,0-1,0,1.719,1.719,0,0,0-.36.18Z" fill="#263238"/>
      <path id="パス_638" data-name="パス 638" d="M309.23,441.18a31.51,31.51,0,0,0-.13,3.73,32.425,32.425,0,0,0,.09,3.74,31.757,31.757,0,0,0,.13-3.74A32.171,32.171,0,0,0,309.23,441.18Z" fill="#263238"/>
      <path id="パス_639" data-name="パス 639" d="M316.19,452.17a10.76,10.76,0,0,0,2.66.24,10,10,0,0,0,2.66-.23c0-.06-1.2,0-2.66,0S316.2,452.1,316.19,452.17Z" fill="#263238"/>
      <path id="パス_640" data-name="パス 640" d="M312.63,452.19c-.05,0,.1.25.22.52s.19.51.25.51.1-.29-.05-.6S312.67,452.14,312.63,452.19Z" fill="#263238"/>
      <path id="パス_641" data-name="パス 641" d="M311.27,450.52a.909.909,0,0,0,.27.43c.19.19.38.3.42.26s-.08-.23-.27-.42S311.32,450.48,311.27,450.52Z" fill="#263238"/>
      <path id="パス_642" data-name="パス 642" d="M309.35,449.77c0,.07.25.06.52.15s.46.24.51.2-.11-.3-.44-.41S309.33,449.72,309.35,449.77Z" fill="#263238"/>
      <path id="パス_643" data-name="パス 643" d="M308,449.42c0,.06.08.15.23.21s.29.06.31,0-.08-.15-.23-.21S308,449.37,308,449.42Z" fill="#263238"/>
      <path id="パス_644" data-name="パス 644" d="M251.48,313.72S334.8,289.43,342.32,293,381,383.7,381,383.7l-23.91,11.62L326.7,321s-59.19,23-68.7,21.07S251.48,313.72,251.48,313.72Z" fill="#263238"/>
      <path id="パス_645" data-name="パス 645" d="M286.65,311.26c1.19.39,46.86,15.35,50,21.26s-1.49,112.31-1.49,112.31l-29.66-.05,2-101.35-50-1.26Z" fill="#263238"/>
      <path id="パス_646" data-name="パス 646" d="M257.28,342.16a3.361,3.361,0,0,0,.74-.09l2.09-.37c1.81-.34,4.42-.85,7.64-1.54,6.44-1.37,15.31-3.44,25-6.22,4.83-1.41,9.39-2.87,13.51-4.29s7.78-2.84,10.81-4.14c1.53-.62,2.89-1.23,4.08-1.77s2.22-1,3-1.43l1.89-1a3,3,0,0,0,.64-.37,3.617,3.617,0,0,0-.69.27l-1.94.85c-.83.39-1.87.84-3.07,1.34s-2.57,1.1-4.1,1.69c-3,1.25-6.73,2.58-10.84,4s-8.67,2.84-13.5,4.24c-9.64,2.77-18.48,4.9-24.9,6.37l-7.6,1.73L258,342a3.41,3.41,0,0,0-.72.16Z" fill="#455a64"/>
      <path id="パス_647" data-name="パス 647" d="M337.38,356a7.349,7.349,0,0,0,.23-1.47c.11-1.07.25-2.42.42-4s.34-3.76.55-6a27.4,27.4,0,0,0,0-7.41,11.57,11.57,0,0,0-3.74-6.41,19.6,19.6,0,0,0-5.11-3.27c-1.57-.71-2.89-1.17-3.8-1.48a6.919,6.919,0,0,0-1.43-.42c0,.11,2,.8,5.05,2.28a19.73,19.73,0,0,1,4.92,3.29,11.14,11.14,0,0,1,3.53,6.12,28.049,28.049,0,0,1,0,7.26c-.16,2.23-.3,4.25-.42,6s-.18,3-.24,4.05a6.328,6.328,0,0,0,.04,1.46Z" fill="#455a64"/>
      <path id="パス_648" data-name="パス 648" d="M301.79,266.34l-25.57,23.24c-6.14,5.57-17.26,7-24.15,2.37-4.14-2.75-5-7.8-5.8-12.7-1.54-9,.45-28.84.39-28.31l18.12.43-.85,19.47,30.8-17.42.55-.67c.34-.86.72-1.89,1.1-3.1a9.66,9.66,0,0,0,.45-3.29,18.162,18.162,0,0,0-.43-3.72.638.638,0,0,0-.1-.26,1.349,1.349,0,0,1-.12-.51,1.25,1.25,0,0,1,1.81-1.34c.9.56,2.11,3.35,2.14,7v.17c.12,3.68,3.53-.92,4.8-2.57s5.44-6.57,6.25-6.57c1.18,0,1.41,1.3.1,2.92s-4.9,6.76-4,7.41,7.23-7.86,7.23-7.86,1.08-2,2.12-1.33c1.9,1.3-5.52,9.82-6.24,10.61-.51.55.43,1.3.94.68s6.15-8.64,8.09-7.34c1.49,1-6,7.07-6.3,9.4s5.24-5.2,6.63-4.19c.51.37.84.73-2.93,4.58a116.327,116.327,0,0,1-9.73,8.12Z" fill="#ffbe9d"/>
      <path id="パス_649" data-name="パス 649" d="M283.62,346.1c7.76-.51,4.11-11.65,3.92-24.05-.12-7.77-5.28-15.4-10.92-20.75a26.53,26.53,0,0,0-9.89-5.53,61.48,61.48,0,0,0-30-1.92S222.05,350.16,283.62,346.1Z" fill="#455a64"/>
    </g>
    <g id="freepik--Desk--inject-658">
      <path id="パス_650" data-name="パス 650" d="M575.93,293.47H193.6a3.29,3.29,0,0,0,0,6.58h18.19V454.13h7.86V300.05H548.88V454.13h7.86V300.05h19.19a3.29,3.29,0,0,0,0-6.58Z" fill="#e0e0e0"/>
    </g>
    <g id="freepik--character-3--inject-658">
      <path id="パス_651" data-name="パス 651" d="M439.19,353.78c-7.77-.24-4.11-11.64-3.92-24,.12-7.78,5.29-15.4,10.92-20.76a26.61,26.61,0,0,1,9.9-5.52c9.58-3.27,20-3.62,30-1.93C486.08,301.53,488.41,355.34,439.19,353.78Z" fill="#90caf9"/>
      <path id="パス_652" data-name="パス 652" d="M439.19,353.78c-7.77-.24-4.11-11.64-3.92-24,.12-7.78,5.29-15.4,10.92-20.76a26.61,26.61,0,0,1,9.9-5.52c9.58-3.27,20-3.62,30-1.93C486.08,301.53,488.41,355.34,439.19,353.78Z" opacity="0.3"/>
      <rect id="長方形_3" data-name="長方形 3" width="4.23" height="102.25" transform="translate(505.1 454.68) rotate(180)" fill="#263238"/>
      <path id="パス_653" data-name="パス 653" d="M522.49,454.61H483.16s7.08-6.2,19.83-6C515.19,448.81,522.49,454.61,522.49,454.61Z" fill="#263238"/>
      <path id="パス_654" data-name="パス 654" d="M509.91,248.58c4.64-.42,9.37-.79,13.94.13s9,3.3,11.49,7.28,2.52,9,2.52,13.65v59.35h-53Z" fill="#90caf9"/>
      <path id="パス_655" data-name="パス 655" d="M537.87,326.25c.22,11.7-.8,21.2-8.9,25.8-6.06,3.44-13.39,3.52-20.36,3.51H478.42c-3.06,0-6.34-.07-8.84-1.84-2.75-1.94-3.9-5.63-3.42-9a17.19,17.19,0,0,1,4.59-8.83c8.72-9.68,22.52-12.55,35.33-14.9" fill="#90caf9"/>
      <path id="パス_656" data-name="パス 656" d="M434.58,448.83l.27-10.58,19.82.39-.24,15.48-1.23.06c-5.47.19-27.85.6-31.48-.58C417.66,452.29,434.58,448.83,434.58,448.83Z" fill="#90caf9"/>
      <g id="グループ_15" data-name="グループ 15" opacity="0.4">
        <path id="パス_657" data-name="パス 657" d="M426.31,450.81s-5.94,1.59-5.22,2.57,23.34,1.42,33.34.74v-.44L428,453.4S427.46,450.88,426.31,450.81Z" fill="#fff"/>
      </g>
      <path id="パス_658" data-name="パス 658" d="M454.72,453.67h-1.34l-3.61.09c-3,.05-7.25.07-11.89,0s-8.85-.26-11.89-.42l-3.6-.22-1-.07a1.379,1.379,0,0,1-.34-.05h1.34l3.6.14c3,.12,7.25.26,11.89.35s8.85.1,11.89.09h4.93Z" fill="#263238"/>
      <path id="パス_659" data-name="パス 659" d="M428,453.71a7.572,7.572,0,0,0-.64-1.74,8.237,8.237,0,0,0-1.2-1.4,3.19,3.19,0,0,1,1.84,3.14Z" fill="#263238"/>
      <path id="パス_660" data-name="パス 660" d="M433.91,450.85a2.629,2.629,0,0,1-.61-.77c-.28-.46-.46-.86-.4-.9s.33.31.61.77S434,450.82,433.91,450.85Z" fill="#263238"/>
      <path id="パス_661" data-name="パス 661" d="M435.54,450c-.05.05-.36-.16-.69-.48s-.57-.6-.53-.65.35.16.69.48A2.082,2.082,0,0,1,435.54,450Z" fill="#263238"/>
      <path id="パス_662" data-name="パス 662" d="M436.59,448.18a2.23,2.23,0,0,1-1,.11,2.491,2.491,0,0,1-1-.12,2.34,2.34,0,0,1,1-.12,2.59,2.59,0,0,1,1,.13Z" fill="#263238"/>
      <path id="パス_663" data-name="パス 663" d="M437,446.87a2,2,0,0,1-1.16.31,2.06,2.06,0,0,1-1.19-.18,6.324,6.324,0,0,1,1.18-.06A6.121,6.121,0,0,1,437,446.87Z" fill="#263238"/>
      <path id="パス_664" data-name="パス 664" d="M433.28,449.11a3.56,3.56,0,0,1-1.28,0,8,8,0,0,1-1.35-.33,3.791,3.791,0,0,1-.77-.33.75.75,0,0,1-.31-.4.51.51,0,0,1,.21-.51,2.32,2.32,0,0,1,2.87.74,2.289,2.289,0,0,1,.4.86.74.74,0,0,1,0,.34,4,4,0,0,0-.56-1.1,2.29,2.29,0,0,0-1.08-.72,2,2,0,0,0-1.52.07c-.2.15-.13.39.1.52a3.273,3.273,0,0,0,.71.32,8.493,8.493,0,0,0,1.3.37C432.79,449.06,433.28,449.07,433.28,449.11Z" fill="#263238"/>
      <path id="パス_665" data-name="パス 665" d="M432.94,449.17a1.34,1.34,0,0,1-.13-.89,2.12,2.12,0,0,1,.37-.92,1.26,1.26,0,0,1,1.07-.63.5.5,0,0,1,.38.59,1.451,1.451,0,0,1-.22.57,4.609,4.609,0,0,1-.62.76,1.89,1.89,0,0,1-.74.5s.26-.23.62-.62a4.544,4.544,0,0,0,.55-.76c.18-.26.31-.74,0-.81s-.65.28-.85.53a2.08,2.08,0,0,0-.38.82,5.447,5.447,0,0,0-.05.86Z" fill="#263238"/>
      <path id="パス_666" data-name="パス 666" d="M454.42,448.24c0,.05-.57-.06-1.46,0a6.19,6.19,0,0,0-5.27,4c-.32.85-.36,1.42-.41,1.41a1.22,1.22,0,0,1,0-.4,4.56,4.56,0,0,1,.24-1.06,6,6,0,0,1,2.06-2.92,6.13,6.13,0,0,1,3.35-1.23,4.36,4.36,0,0,1,1.09,0,1.4,1.4,0,0,1,.4.2Z" fill="#263238"/>
      <path id="パス_667" data-name="パス 667" d="M452.52,440a33.9,33.9,0,0,1,.1,4.07,34.543,34.543,0,0,1-.15,4.07,32.794,32.794,0,0,1-.09-4.07,36.007,36.007,0,0,1,.14-4.07Z" fill="#263238"/>
      <path id="パス_668" data-name="パス 668" d="M444.79,451.85a11.863,11.863,0,0,1-2.9.23,11.6,11.6,0,0,1-2.89-.29c0-.07,1.3,0,2.9,0A22.375,22.375,0,0,1,444.79,451.85Z" fill="#263238"/>
      <path id="パス_669" data-name="パス 669" d="M448.68,451.91s-.11.28-.25.57-.22.56-.29.55-.09-.31.07-.65S448.64,451.87,448.68,451.91Z" fill="#263238"/>
      <path id="パス_670" data-name="パス 670" d="M450.18,450.12a1.026,1.026,0,0,1-.3.46c-.21.21-.41.33-.46.28s.08-.25.29-.46S450.13,450.07,450.18,450.12Z" fill="#263238"/>
      <path id="パス_671" data-name="パス 671" d="M452.29,449.33c0,.07-.28.06-.58.15s-.5.25-.55.21.12-.32.48-.43S452.31,449.27,452.29,449.33Z" fill="#263238"/>
      <path id="パス_672" data-name="パス 672" d="M453.79,449c0,.07-.1.17-.26.23s-.32.06-.34,0,.09-.16.25-.22S453.76,448.9,453.79,449Z" fill="#263238"/>
      <g id="グループ_16" data-name="グループ 16" opacity="0.3">
        <path id="パス_673" data-name="パス 673" d="M454.4,447.71,434.61,447l.08-2.38,19.88.52Z"/>
      </g>
      <path id="パス_674" data-name="パス 674" d="M387,402.14l4-9.81,18.42,7.32-5.66,14.42-1.17-.39c-5.2-1.74-26.29-9.21-29.28-11.59C369.93,399.43,387,402.14,387,402.14Z" fill="#90caf9"/>
      <g id="グループ_17" data-name="グループ 17" opacity="0.4">
        <path id="パス_675" data-name="パス 675" d="M378.54,401.09s-6.12-.6-5.79.57,21.36,9.53,31,12.41l.13-.43-24.62-9.53S379.59,401.56,378.54,401.09Z" fill="#fff"/>
      </g>
      <path id="パス_676" data-name="パス 676" d="M404.14,413.75l-.33-.1-.93-.3-3.41-1.19c-2.87-1-6.81-2.48-11.13-4.19s-8.2-3.35-11-4.57l-3.29-1.47-.89-.42-.31-.15a1.431,1.431,0,0,1,.33.11l.9.37,3.33,1.4c2.8,1.18,6.69,2.79,11,4.5s8.25,3.2,11.1,4.26l3.38,1.26.91.35a1.581,1.581,0,0,1,.34.14Z" fill="#263238"/>
      <path id="パス_677" data-name="パス 677" d="M379.12,404.4a9.11,9.11,0,0,0,0-1.85,8.392,8.392,0,0,0-.64-1.74,3.23,3.23,0,0,1,.63,3.59Z" fill="#263238"/>
      <path id="パス_678" data-name="パス 678" d="M385.65,403.8a2.108,2.108,0,0,1-.3-.94,2.229,2.229,0,0,1-.07-1c.07,0,.2.4.3.93A2.28,2.28,0,0,1,385.65,403.8Z" fill="#263238"/>
      <path id="パス_679" data-name="パス 679" d="M387.45,403.6a1.763,1.763,0,0,1-.47-.69c-.2-.41-.33-.77-.27-.8s.28.28.48.69S387.51,403.57,387.45,403.6Z" fill="#263238"/>
      <path id="パス_680" data-name="パス 680" d="M389.09,402.24a2.44,2.44,0,0,1-1-.26c-.54-.21-.95-.42-.93-.49a2.44,2.44,0,0,1,1,.26C388.7,402,389.11,402.17,389.09,402.24Z" fill="#263238"/>
      <path id="パス_681" data-name="パス 681" d="M389.9,401.14a3,3,0,0,1-2.25-.7,6.14,6.14,0,0,1,1.12.36,6.458,6.458,0,0,1,1.13.34Z" fill="#263238"/>
      <path id="パス_682" data-name="パス 682" d="M385.66,401.94a3.561,3.561,0,0,1-1.18-.48,7,7,0,0,1-1.15-.77,3.7,3.7,0,0,1-.6-.59.63.63,0,0,1-.15-.48.48.48,0,0,1,.37-.4,2.34,2.34,0,0,1,2.43,1.7,2.31,2.31,0,0,1,.07.94.72.72,0,0,1-.09.33,3.791,3.791,0,0,0-.14-1.22,2.29,2.29,0,0,0-.75-1.06,2,2,0,0,0-1.45-.46c-.25.06-.26.31-.1.52a4.079,4.079,0,0,0,.55.55,10,10,0,0,0,1.1.8C385.22,401.72,385.68,401.91,385.66,401.94Z" fill="#263238"/>
      <path id="パス_683" data-name="パス 683" d="M385.33,401.88a1.25,1.25,0,0,1,.19-.88,2,2,0,0,1,.67-.73,1.27,1.27,0,0,1,1.22-.22.52.52,0,0,1,.15.7,1.34,1.34,0,0,1-.41.44,3.851,3.851,0,0,1-.84.5,1.9,1.9,0,0,1-.87.21,7.437,7.437,0,0,0,.79-.37A4.3,4.3,0,0,0,387,401c.26-.18.55-.59.28-.76a1.13,1.13,0,0,0-1,.19,2,2,0,0,0-.64.64,4.671,4.671,0,0,0-.31.81Z" fill="#263238"/>
      <path id="パス_684" data-name="パス 684" d="M405.76,408.56a14.494,14.494,0,0,0-1.38-.5,6.42,6.42,0,0,0-3.45.05A6.49,6.49,0,0,0,398,410c-.59.68-.83,1.2-.87,1.18a1.1,1.1,0,0,1,.15-.37,5.141,5.141,0,0,1,.59-.92,6.11,6.11,0,0,1,3-2,6,6,0,0,1,3.57,0,5,5,0,0,1,1,.43C405.66,408.46,405.77,408.54,405.76,408.56Z" fill="#263238"/>
      <path id="パス_685" data-name="パス 685" d="M406.9,400.13a35.783,35.783,0,0,1-1.34,3.85,36.806,36.806,0,0,1-1.57,3.76,35.783,35.783,0,0,1,1.34-3.85,34.307,34.307,0,0,1,1.57-3.76Z" fill="#263238"/>
      <path id="パス_686" data-name="パス 686" d="M395.48,408.55a11.407,11.407,0,0,1-2.79-.8,10.879,10.879,0,0,1-2.61-1.29c0-.06,1.21.49,2.69,1.06S395.5,408.48,395.48,408.55Z" fill="#263238"/>
      <path id="パス_687" data-name="パス 687" d="M399.1,410c0,.06-.2.21-.44.44s-.39.44-.45.41,0-.32.29-.58S399.07,409.92,399.1,410Z" fill="#263238"/>
      <path id="パス_688" data-name="パス 688" d="M401.13,408.82c0,.06-.17.21-.44.33s-.5.16-.53.1.17-.21.44-.32S401.1,408.76,401.13,408.82Z" fill="#263238"/>
      <path id="パス_689" data-name="パス 689" d="M403.38,408.82c0,.06-.28,0-.59-.05s-.56.05-.59,0,.23-.25.61-.23S403.43,408.77,403.38,408.82Z" fill="#263238"/>
      <path id="パス_690" data-name="パス 690" d="M404.92,409c0,.06-.15.12-.32.11s-.32-.05-.32-.12.14-.12.32-.12S404.92,408.94,404.92,409Z" fill="#263238"/>
      <g id="グループ_18" data-name="グループ 18" opacity="0.3">
        <path id="パス_691" data-name="パス 691" d="M405.93,408.05l-18.28-7.61.91-2.21L407,405.7Z"/>
      </g>
      <path id="パス_692" data-name="パス 692" d="M515,309.86s5.41,34.62-8.76,38.7c-15.07,4.35-47.36,12.49-47.36,12.49l-2.43,84.81L432.8,445l-2.26-95.53a10.45,10.45,0,0,1,4.74-8.27l34.16-31.36Z" fill="#263238"/>
      <path id="パス_693" data-name="パス 693" d="M386.35,398.22l22.13,8.52,30-62.28s50.8,6,65.4,4c5.21-.71,11.37-3.43,14.47-7.38,5.66-7.22,5.91-17.09,4.85-26.2l-.42-2-37.44-2L428,319.48a15.55,15.55,0,0,0-11.54,9Z" fill="#263238"/>
      <path id="パス_694" data-name="パス 694" d="M435.55,342.27a8,8,0,0,0-2.87,2.52,9.82,9.82,0,0,0-1.51,3.85,25.77,25.77,0,0,0-.26,5.15c.09,3.7.14,7.06.15,9.49v2.87a4.771,4.771,0,0,1-.08,1.06,4,4,0,0,1-.13-1c0-.68-.1-1.66-.15-2.88-.1-2.42-.21-5.77-.3-9.48a24.089,24.089,0,0,1,.31-5.25,9.76,9.76,0,0,1,1.68-4,6.61,6.61,0,0,1,2.17-1.93,2.37,2.37,0,0,1,.99-.4Z" fill="#455a64"/>
      <path id="パス_695" data-name="パス 695" d="M506.2,348.56a2.841,2.841,0,0,1-.72,0l-2.07-.07c-1.79-.07-4.39-.2-7.59-.38-6.41-.36-15.26-.95-25-1.79s-18.59-1.81-25-2.6c-3.18-.4-5.76-.74-7.54-1l-2-.31a6,6,0,0,1-.71-.14,3,3,0,0,1,.72,0l2.06.21,7.55.84c6.38.71,15.2,1.61,25,2.45s18.6,1.49,25,1.94l7.58.55,2.07.17A4.425,4.425,0,0,1,506.2,348.56Z" fill="#455a64"/>
      <path id="パス_696" data-name="パス 696" d="M505.45,213.63c.94,1.63,3.28,1.9,5,1.16a15.35,15.35,0,0,0,4.34-3.51c1.34-1.31,3-2.55,4.82-2.65,1.41-.07,2.93.52,4.2-.11s1.72-2.32,2.35-3.67a11.111,11.111,0,0,1,2.83-3.6,7,7,0,0,0,1.7-8.53c-.06-.09-.11-.19-.17-.29a8.83,8.83,0,0,0-4.76-4.17c-1.7-.54-3.71-.44-5-1.64-1.52-1.39-1.39-3.87-2.62-5.52a6.48,6.48,0,0,0-4.13-2.18,26.09,26.09,0,0,1-4.68-1,4.43,4.43,0,0,1-3-3.39" fill="#263238"/>
      <path id="パス_697" data-name="パス 697" d="M496.9,179.55a10.47,10.47,0,0,0-18.55-2.89c-1,1.36-1.64,3-3,3.92-1.2.78-2.7.88-4,1.39a6.86,6.86,0,0,0-4.12,7.41c.34,1.78,1.4,3.51,1,5.28-.54,2.42-3.59,3.84-3.68,6.32-.06,1.67,1.31,3,2.63,4.07s2.8,2.14,3.16,3.78a24.371,24.371,0,0,1,0,3.31,4.8,4.8,0,0,0,4.82,4.25c1.26-.06,2.67-.6,3.68.16a8.79,8.79,0,0,1,1,1.23c1.17,1.29,3.3,1.25,4.85.44a16.22,16.22,0,0,0,3.9-3.46,7.84,7.84,0,0,1,4.39-2.69" fill="#263238"/>
      <path id="パス_698" data-name="パス 698" d="M506.94,184.43l-.06,2.93-.59,43.9c-.07,5.1-4.5,9.1-10,9h0c-5.51-.11-10-4.38-10-9.53,0-5.4-.13-11.09-.13-11.09s-7-1.16-8.41-10.24c-.72-4.52-.49-11.93-.11-18a9.59,9.59,0,0,1,10.58-8.94Z" fill="#ffb29d"/>
      <path id="パス_699" data-name="パス 699" d="M479.54,196.56a1.16,1.16,0,0,0,1.13,1.17,1.11,1.11,0,0,0,1.2-1,1.16,1.16,0,0,0-1.12-1.17,1.11,1.11,0,0,0-1.21,1Z" fill="#263238"/>
      <path id="パス_700" data-name="パス 700" d="M479.29,195.25c.14.15,1-.5,2.28-.5s2.17.64,2.31.48-.08-.34-.48-.63a3.17,3.17,0,0,0-1.85-.57,3.09,3.09,0,0,0-1.82.58C479.35,194.91,479.22,195.18,479.29,195.25Z" fill="#263238"/>
      <path id="パス_701" data-name="パス 701" d="M492.09,196.56a1.16,1.16,0,0,0,1.12,1.17,1.1,1.1,0,0,0,1.2-1,1.15,1.15,0,0,0-1.12-1.17,1.11,1.11,0,0,0-1.2,1Z" fill="#263238"/>
      <path id="パス_702" data-name="パス 702" d="M491.61,195.49c.15.15,1-.5,2.28-.5s2.18.63,2.31.48-.08-.35-.48-.64a3.22,3.22,0,0,0-1.85-.57,3,3,0,0,0-1.81.59C491.67,195.14,491.54,195.42,491.61,195.49Z" fill="#263238"/>
      <path id="パス_703" data-name="パス 703" d="M487.06,204.78a8.421,8.421,0,0,0-2-.36c-.32,0-.63-.1-.68-.32a1.63,1.63,0,0,1,.21-.95c.3-.77.62-1.58.95-2.44a43,43,0,0,0,2.13-6.37,42.465,42.465,0,0,0-2.64,6.19c-.32.85-.62,1.67-.91,2.45a1.83,1.83,0,0,0-.16,1.26.8.8,0,0,0,.52.47,2.361,2.361,0,0,0,.55.07A8,8,0,0,0,487.06,204.78Z" fill="#263238"/>
      <path id="パス_704" data-name="パス 704" d="M486.2,219.62a23.11,23.11,0,0,0,12.16-3.25s-2.95,6.24-12,5.39Z" fill="#e8947e"/>
      <path id="パス_705" data-name="パス 705" d="M487.59,207.8a2.26,2.26,0,0,1,2-.83,2,2,0,0,1,1.42.76,1.3,1.3,0,0,1,.1,1.49,1.5,1.5,0,0,1-1.64.42,4.53,4.53,0,0,1-1.6-1,1.27,1.27,0,0,1-.36-.37.39.39,0,0,1,0-.46" fill="#e8947e"/>
      <path id="パス_706" data-name="パス 706" d="M490.75,205.65c-.2,0-.2,1.35-1.37,2.32s-2.61.81-2.62,1,.32.27.93.28a3.39,3.39,0,0,0,2.19-.76,2.91,2.91,0,0,0,1.06-1.94C491,206,490.84,205.64,490.75,205.65Z" fill="#263238"/>
      <path id="パス_707" data-name="パス 707" d="M491.29,190.57c.12.34,1.37.18,2.84.36s2.66.58,2.86.27c.09-.14-.12-.46-.6-.79a4.91,4.91,0,0,0-4.34-.48C491.51,190.14,491.23,190.41,491.29,190.57Z" fill="#263238"/>
      <path id="パス_708" data-name="パス 708" d="M479.75,191.62c.22.29,1.08,0,2.12,0s1.92.19,2.12-.11c.09-.14-.05-.43-.43-.7a3,3,0,0,0-1.73-.46,2.92,2.92,0,0,0-1.69.57C479.77,191.19,479.65,191.49,479.75,191.62Z" fill="#263238"/>
      <path id="パス_709" data-name="パス 709" d="M496.61,177.32a.32.32,0,0,1-.28-.13l-.55-.54.84.32a3,3,0,0,0,.45.15c.35.1.68,0,.75.18s-.3.47-.87.33a1,1,0,0,1-.58-.39l.29-.22C496.69,177.17,496.67,177.29,496.61,177.32Z" fill="#263238"/>
      <path id="パス_710" data-name="パス 710" d="M496.5,178.36a7.49,7.49,0,0,0-1.57,6.94,8.09,8.09,0,0,0,5.15,5.22c.6.2,1.31.41,1.54,1a2,2,0,0,1-.25,1.49,7.37,7.37,0,0,0,2.68,8.59,10.16,10.16,0,0,0,3,9.27c0-1.57,1.17-2.91,2.46-3.89a25,25,0,0,0,3.86-2.93,6.22,6.22,0,0,0,.83-7.05,4.34,4.34,0,0,1-.85-2.1c0-.9.82-1.58,1.44-2.26a8,8,0,0,0-.3-10.92c-.69-.67-1.5-1.22-2.14-1.94a31.008,31.008,0,0,1-2-3.06,10.19,10.19,0,0,0-10.09-3.9c-3.77.77-6.1,4.44-5.3,8.58" fill="#263238"/>
      <path id="パス_711" data-name="パス 711" d="M495.49,179.56a12.67,12.67,0,0,1-1.06,4.95,5.22,5.22,0,0,1-3.85,3c-1.65.19-3.23-.66-4.83-1.11-2.1-.59-4.72-.31-5.93,1.5-.85,1.26-1,4.18-3,5-1.42.58-2.3-1.06-3.69-.42-2.32,1.06-1.93,5.07-4.27,6.09.75-1.94.39-4.1.37-6.17s.55-4.44,2.38-5.43a25,25,0,0,1,3.29-.95c1.68-.62,2.85-2.13,4.07-3.46s2.75-2.62,4.55-2.57,3.26,1.3,5,1.22c1.39-.07,2.57-1,3.82-1.61s3-.8,3.85.3" fill="#263238"/>
      <path id="パス_712" data-name="パス 712" d="M513.9,181.92a3.883,3.883,0,0,0-.73-.4,4,4,0,0,0-2.16-.24,13.709,13.709,0,0,0-3.15,1.08,9.13,9.13,0,0,1-4.16.79,8.89,8.89,0,0,1-4.05-1.24,8.54,8.54,0,0,1-2.53-2.36,7.839,7.839,0,0,1-1.07-2.06,2.15,2.15,0,0,1-.18-.83,15.15,15.15,0,0,0,1.54,2.67,8.93,8.93,0,0,0,2.48,2.16,8.6,8.6,0,0,0,3.84,1.14c2.93.26,5.19-1.59,7.24-1.71a3.82,3.82,0,0,1,2.29.42C513.75,181.62,513.92,181.9,513.9,181.92Z" fill="#455a64"/>
      <path id="パス_713" data-name="パス 713" d="M465.68,200a14.456,14.456,0,0,0,1.72.13,7,7,0,0,0,4.28-1.65,6.34,6.34,0,0,0,1.8-2.59,12.53,12.53,0,0,0,.65-3.64c.08-1.32.06-2.73.26-4.19a8.07,8.07,0,0,1,1.7-4.24,5,5,0,0,1,1.9-1.43,4.68,4.68,0,0,1,2.29-.31c1.5.16,2.81.71,4.1.84a10,10,0,0,0,6.62-1.51,10.55,10.55,0,0,0,3.23-3.36c.57-1,.77-1.56.81-1.54a1.409,1.409,0,0,1-.11.44,8.944,8.944,0,0,1-.53,1.2,10,10,0,0,1-3.2,3.56,10.24,10.24,0,0,1-6.88,1.69c-1.36-.14-2.69-.67-4.08-.81a4.21,4.21,0,0,0-2.05.27,4.64,4.64,0,0,0-1.7,1.29,7.63,7.63,0,0,0-1.59,4c-.2,1.41-.19,2.81-.29,4.15a12.62,12.62,0,0,1-.73,3.76,6.5,6.5,0,0,1-2,2.72,6.92,6.92,0,0,1-4.51,1.57,5.661,5.661,0,0,1-1.29-.17C465.82,200.07,465.67,200,465.68,200Z" fill="#455a64"/>
      <path id="パス_714" data-name="パス 714" d="M476.81,200.64a2.85,2.85,0,0,1-.39,1.36,9,9,0,0,1-4.91,4.61c-.83.3-1.37.36-1.39.29a17,17,0,0,0,3.94-2.5,17.863,17.863,0,0,0,2.75-3.76Z" fill="#455a64"/>
      <path id="パス_715" data-name="パス 715" d="M531,199.84a6.9,6.9,0,0,0-.33-1.85,5.519,5.519,0,0,0-1.11-1.87,5.37,5.37,0,0,0-2.37-1.55,8.29,8.29,0,0,0-3.48,0,9.2,9.2,0,0,1-2.05.09,4,4,0,0,1-2.07-.81c-1.22-1-1.86-2.44-2.77-3.67a4.35,4.35,0,0,0-3.94-2,27.433,27.433,0,0,0-4.76.84,10.72,10.72,0,0,1-10.86-4.69,10.58,10.58,0,0,1-1.63-5,9,9,0,0,1,0-1.43,1.679,1.679,0,0,1,.09-.49s0,.69.09,1.9a10.87,10.87,0,0,0,1.74,4.77A10.38,10.38,0,0,0,508,188.46a26.471,26.471,0,0,1,4.85-.86,4.83,4.83,0,0,1,4.35,2.27c.94,1.3,1.57,2.72,2.66,3.59a4.83,4.83,0,0,0,3.77.67,8.53,8.53,0,0,1,3.64.09,5.71,5.71,0,0,1,3.57,3.71,4.79,4.79,0,0,1,.2,1.42A1.779,1.779,0,0,1,531,199.84Z" fill="#455a64"/>
      <path id="パス_716" data-name="パス 716" d="M524.34,206.31a1.35,1.35,0,0,1-1.06.64,2.63,2.63,0,0,1-1.47-.24,3.5,3.5,0,0,1-1.39-1.39,13.526,13.526,0,0,1-.93-2.14,5.942,5.942,0,0,0-1.25-2.19,4.22,4.22,0,0,0-2.52-1c-1-.1-2.05-.13-3.12-.19a18.61,18.61,0,0,1-6-1.05,7.62,7.62,0,0,1-3.9-3.12,5.52,5.52,0,0,1-.8-3.27,3.788,3.788,0,0,1,.19-.9c.08-.2.13-.3.14-.29a6.785,6.785,0,0,0-.12,1.2,5.54,5.54,0,0,0,.9,3.07,7.43,7.43,0,0,0,3.76,2.86,18.8,18.8,0,0,0,5.88,1c1.07.06,2.12.09,3.15.2a4.61,4.61,0,0,1,2.79,1.16A6,6,0,0,1,519.9,203a14.009,14.009,0,0,0,.84,2.11,3.16,3.16,0,0,0,1.21,1.31,2.51,2.51,0,0,0,1.31.3,2.21,2.21,0,0,0,1.08-.41Z" fill="#455a64"/>
      <path id="パス_717" data-name="パス 717" d="M431.53,257.35l-4.06-5c-2.46-3.73.49-5.68.79-6.5a9.24,9.24,0,0,1,1.93-3.47l-.91-1.54a41.989,41.989,0,0,1-3.07-4.95c-.35-1,1.37-1.77,2-.93,1.44,1.92,3.92,5.15,5,6.27,1.42,1.48,4.86,5.46,5.37,1.93s-.34-5.14-.41-6.15a1.155,1.155,0,1,1,2.31,0c.15.89.63,2.37.91,4.53.12,1,.07,2.23.17,3.19.13,1.13,1.52,4.95,1.66,5.75Z" fill="#ffb29d"/>
      <path id="パス_718" data-name="パス 718" d="M468.4,237.09,455,270.57l-10.94-21.91-13.85,8.26,13.51,27.62a12.56,12.56,0,0,0,11.86,6.94,11.58,11.58,0,0,0,9.09-5.39c4.93-7.85,12.64-26.68,12.64-26.68C477.32,260.37,468.4,237.09,468.4,237.09Z" fill="#455a64"/>
      <path id="パス_719" data-name="パス 719" d="M517.29,264l6.76-29.23c-7-6.74-17.71-7.3-17.71-7.3l-3.49,2.34a12.14,12.14,0,0,1-14.08-.4l-2.57-1.94c-8.28,1-14.3,3.78-17.8,9.65l3.66,29.12,4.26,14L468,310.63,523.67,313l-10.23-35.37c-.44.76,3.85-13.61,3.85-13.61" fill="#455a64"/>
      <path id="パス_720" data-name="パス 720" d="M518.54,269.23a11.394,11.394,0,0,0-.35-1.41c-.24-.9-.58-2.21-.9-3.85a53.547,53.547,0,0,1-1-13,33.918,33.918,0,0,1,1-7.08,13.659,13.659,0,0,1,2.53-5.17,10,10,0,0,1,3-2.51c.82-.43,1.33-.57,1.31-.61s-.13,0-.37.08a5.91,5.91,0,0,0-1,.38,9.66,9.66,0,0,0-3.13,2.47,13.56,13.56,0,0,0-2.68,5.26,33.49,33.49,0,0,0-1,7.16A50,50,0,0,0,517,264c.37,1.64.75,2.94,1,3.84.14.44.27.78.35,1A1.135,1.135,0,0,0,518.54,269.23Z" fill="#263238"/>
      <path id="パス_721" data-name="パス 721" d="M495.88,308a100.01,100.01,0,0,1-9.38,5.69c-4.11,1.95-4.3,1.59-4.46,1.08-.43-1.38,7.09-3.71,5.16-4.14s-8.84,3.91-9.23,2.45c-.5-1.9,7.42-4.2,8.07-4.44s.31-1.19-.27-.94c-.83.36-9.67,3.94-10.18,2.07-.29-1,1.64-1.32,1.64-1.32s8.53-2.75,8.25-3.62-5.34.56-7,1.16-2.63.07-2.3-.88c.22-.64,5.29-2.62,6.95-3.18s6.27-2,3.37-3.13-4.72-3-4.86-3.87,1-1.32,1.7-.64a11.66,11.66,0,0,0,2.66,1.64,7.6,7.6,0,0,0,2.41.71c.72.09,1.37.14,1.94.18l6.16.47,3.11,8.15Z" fill="#ffb29d"/>
      <path id="パス_722" data-name="パス 722" d="M522.86,233.62a21.7,21.7,0,0,1,7.29,10.91c1.37,4.48,5.29,19.62,8.18,30.9a14.45,14.45,0,0,1-9.46,17.3l-32.61,17.62-5.32-13.78,28.6-18.8-6.91-25.61c-1.14-3.89-1.63-7.85-.2-11.65S516.85,232.9,522.86,233.62Z" fill="#455a64"/>
      <path id="パス_723" data-name="パス 723" d="M530.77,291.93l-.15.11-.48.27-1.85,1-7,3.83L496.4,310.52l-.23.13-.1-.25c-1.65-4.27-3.46-8.91-5.34-13.77l-.08-.19.18-.11,12.82-8.44,15.78-10.36-.1.27c-1.88-7.05-3.28-13.69-4.61-19.63-.33-1.49-.64-2.94-1-4.33a34.471,34.471,0,0,1-.75-4.1,20.848,20.848,0,0,1,.62-7.37,10.85,10.85,0,0,1,3.1-5.14,8,8,0,0,1,4.06-1.91,6.52,6.52,0,0,1,2.8.17,4,4,0,0,1,.9.37,7.665,7.665,0,0,0-.92-.29,6.83,6.83,0,0,0-2.76-.08,7.83,7.83,0,0,0-3.91,1.92,10.689,10.689,0,0,0-3,5.05,20.679,20.679,0,0,0-.55,7.24,33.46,33.46,0,0,0,.78,4.05c.31,1.4.63,2.84,1,4.32,1.35,5.93,2.79,12.58,4.67,19.6l.05.18-.15.1-15.77,10.37-12.84,8.43.1-.3c1.87,4.86,3.66,9.51,5.31,13.78l-.33-.12,25-13.22,7.09-3.71,1.89-1,.49-.24Z" fill="#263238"/>
      <path id="パス_724" data-name="パス 724" d="M477.31,244.15a5,5,0,0,1,.06,1.32,15.256,15.256,0,0,1-.6,3.56,49.912,49.912,0,0,1-1.79,5,34.282,34.282,0,0,0-2,6.14,18.561,18.561,0,0,0,0,6.39,37.5,37.5,0,0,0,1.23,5.14c.45,1.44.85,2.6,1.12,3.4a7,7,0,0,1,.37,1.27,5.4,5.4,0,0,1-.56-1.19c-.33-.79-.78-1.93-1.28-3.36a33.539,33.539,0,0,1-1.35-5.18,18.57,18.57,0,0,1,0-6.57,32.639,32.639,0,0,1,2-6.22,53.36,53.36,0,0,0,1.89-5,23.152,23.152,0,0,0,.91-4.7Z" fill="#263238"/>
      <path id="パス_725" data-name="パス 725" d="M520.11,277.46c0-.06.33-.2.93-.19a4.36,4.36,0,0,1,3.75,2.39c.26.54.28.91.22.93a8.68,8.68,0,0,0-2-2.2,8.589,8.589,0,0,0-2.9-.93Z" fill="#263238"/>
      <path id="パス_726" data-name="パス 726" d="M494.8,254.11a.548.548,0,0,1,.07-.13,2.731,2.731,0,0,1,.25-.35,3.92,3.92,0,0,1,1.28-1,3.83,3.83,0,0,1,2.58-.31,4,4,0,0,1,2.68,2.14,4.21,4.21,0,0,1-.27,4.13l-2.65,3.94-6.11,9v.07h-.08l-.7.27L486,274.08l-.35.13v-7.19c2.64-3.82,4.88-7,6.49-9.38L494.1,255a6.713,6.713,0,0,1,.7-.9,5.793,5.793,0,0,1-.58,1l-1.76,2.7-6.34,9.48v6.56l-.34-.24,5.79-2.19.7-.26-.13.09c2.19-3.19,4.26-6.22,6.15-9l2.68-3.91a3.81,3.81,0,0,0,.3-3.73,3.65,3.65,0,0,0-2.42-2,3.69,3.69,0,0,0-2.42.21,5.25,5.25,0,0,0-1.63,1.3Z" fill="#e0e0e0"/>
      <path id="パス_727" data-name="パス 727" d="M492.48,271.31a28.108,28.108,0,0,1-6.24-4.34,28.111,28.111,0,0,1,6.24,4.34Z" fill="#e0e0e0"/>
      <path id="パス_728" data-name="パス 728" d="M488.21,272.93c-.14.06-.48-.46-1-.94s-1.14-.74-1.11-.89.77-.08,1.44.49S488.34,272.89,488.21,272.93Z" fill="#e0e0e0"/>
      <path id="パス_729" data-name="パス 729" d="M501.32,258.21a26.191,26.191,0,0,1-5.95-4.36A26.191,26.191,0,0,1,501.32,258.21Z" fill="#e0e0e0"/>
      <path id="パス_730" data-name="パス 730" d="M489.36,268.88a10,10,0,0,1,1.14-2c.76-1.18,1.84-2.8,3.05-4.56s2.33-3.36,3.15-4.5a15.619,15.619,0,0,1,1.39-1.81c.17.11-1.68,3.06-4.11,6.6-1.21,1.77-2.34,3.35-3.18,4.48A9.76,9.76,0,0,1,489.36,268.88Z" fill="#e0e0e0"/>
      <path id="パス_731" data-name="パス 731" d="M428.47,247.07a15.693,15.693,0,0,1,1.12,1.5,13.332,13.332,0,0,0,1.35,1.47,3.61,3.61,0,0,1,.82,1,1.27,1.27,0,0,1-.18,1.49,1.55,1.55,0,0,1-1.45.28,3.42,3.42,0,0,1-1.17-.55,5.46,5.46,0,0,1-1.43-1.53,4.92,4.92,0,0,1-.82-1.71,11.714,11.714,0,0,1,1.12,1.5,5.851,5.851,0,0,0,1.4,1.35,3.26,3.26,0,0,0,1,.44,1.12,1.12,0,0,0,1-.15.77.77,0,0,0,.08-.9,3.31,3.31,0,0,0-.7-.86,11.318,11.318,0,0,1-1.31-1.61,4.62,4.62,0,0,1-.83-1.72Z" fill="#e8947e"/>
      <path id="パス_732" data-name="パス 732" d="M430.27,244.17A11.919,11.919,0,0,1,432,246l1.75,2.06a16.106,16.106,0,0,1,1,1.27,1.91,1.91,0,0,1,.32.91,1.46,1.46,0,0,1-.35,1,1.82,1.82,0,0,1-1.78.61,3,3,0,0,1-1.51-.8,19.111,19.111,0,0,1-1.73-2.11,10.919,10.919,0,0,1-1.41-2.06,12.892,12.892,0,0,1,1.7,1.83,25.994,25.994,0,0,0,1.76,2,2.66,2.66,0,0,0,1.27.65,1.33,1.33,0,0,0,1.3-.44,1,1,0,0,0,0-1.28c-.28-.42-.65-.84-.95-1.24l-1.66-2.13A11.73,11.73,0,0,1,430.27,244.17Z" fill="#e8947e"/>
      <path id="パス_733" data-name="パス 733" d="M454.89,276.76a19,19,0,0,1,.11-6.32,19.72,19.72,0,0,1-.11,6.32Z" fill="#263238"/>
      <path id="パス_734" data-name="パス 734" d="M489.43,353.78c-7.77-.24-4.11-11.64-3.92-24,.12-7.78,5.29-15.4,10.92-20.76a26.65,26.65,0,0,1,9.89-5.52c9.59-3.27,20-3.62,30-1.93C536.32,301.53,538.65,355.34,489.43,353.78Z" fill="#90caf9"/>
    </g>
    <g id="freepik--character-1--inject-658">
      <path id="パス_735" data-name="パス 735" d="M228.12,351.29c7.77-.25,4.11-11.65,3.92-24.05-.12-7.77-5.28-15.4-10.92-20.75a26.67,26.67,0,0,0-9.89-5.53,61.48,61.48,0,0,0-30-1.92S178.9,352.84,228.12,351.29Z" fill="#455a64"/>
      <path id="パス_736" data-name="パス 736" d="M177.32,454.67s-6.3-5.5-17.71-6V352.5h-4.23v96.28c-10.92.77-17.39,5.89-17.39,5.89h17.39v.08h4.23v-.08Z" fill="#263238"/>
      <path id="パス_737" data-name="パス 737" d="M150.57,246.83c-4.64-.42-9.37-.78-13.94.13s-9,3.3-11.49,7.28-2.52,9-2.52,13.66v59.34h53Z" fill="#455a64"/>
      <path id="パス_738" data-name="パス 738" d="M122.61,324.51c-.22,11.69.8,21.2,8.9,25.8,6.06,3.44,13.39,3.52,20.36,3.51h30.19c3.06,0,6.34-.08,8.84-1.84,2.75-1.95,3.9-5.64,3.42-9a17.15,17.15,0,0,0-4.59-8.83c-8.72-9.68-22.51-12.56-35.33-14.91" fill="#455a64"/>
      <path id="パス_739" data-name="パス 739" d="M237.86,448.9l-.2-10.58-19.82.25.13,15.49,1.23.06c5.47.23,27.85.81,31.49-.35C254.75,452.48,237.86,448.9,237.86,448.9Z" fill="#90caf9"/>
      <g id="グループ_19" data-name="グループ 19" opacity="0.4">
        <path id="パス_740" data-name="パス 740" d="M246.12,451s5.92,1.62,5.2,2.61-23.36,1.25-33.35.5v-.45l26.4-.09S245,451,246.12,451Z" fill="#fff"/>
      </g>
      <path id="パス_741" data-name="パス 741" d="M217.68,453.6h1.35l3.61.12c3,.07,7.25.11,11.9.06s8.85-.19,11.89-.33l3.6-.2,1-.06a1.378,1.378,0,0,0,.34,0,3,3,0,0,0-.34,0h-1l-3.61.12c-3,.1-7.24.21-11.89.26s-8.84,0-11.89,0h-4.93Z" fill="#263238"/>
      <path id="パス_742" data-name="パス 742" d="M244.39,453.83a8.53,8.53,0,0,1,.66-1.73,7.738,7.738,0,0,1,1.21-1.39,2.63,2.63,0,0,0-1.42,1.27,2.66,2.66,0,0,0-.45,1.85Z" fill="#263238"/>
      <path id="パス_743" data-name="パス 743" d="M238.51,450.93a2.573,2.573,0,0,0,.62-.77,2.27,2.27,0,0,0,.41-.89,2.417,2.417,0,0,0-.62.77C238.64,450.5,238.45,450.9,238.51,450.93Z" fill="#263238"/>
      <path id="パス_744" data-name="パス 744" d="M236.89,450.1a2.164,2.164,0,0,0,.7-.47c.34-.31.57-.61.53-.65s-.36.16-.7.47S236.85,450.05,236.89,450.1Z" fill="#263238"/>
      <path id="パス_745" data-name="パス 745" d="M235.86,448.24a2.25,2.25,0,0,0,1,.12,2.28,2.28,0,0,0,1-.12,2.45,2.45,0,0,0-1-.12A2.42,2.42,0,0,0,235.86,448.24Z" fill="#263238"/>
      <path id="パス_746" data-name="パス 746" d="M235.49,446.93a2,2,0,0,0,1.16.32,2.08,2.08,0,0,0,1.19-.17,5.7,5.7,0,0,0-1.17-.07,5.809,5.809,0,0,0-1.18-.08Z" fill="#263238"/>
      <path id="パス_747" data-name="パス 747" d="M239.16,449.19a3.68,3.68,0,0,0,1.28,0,7,7,0,0,0,1.35-.32,4.361,4.361,0,0,0,.77-.32.75.75,0,0,0,.31-.4.49.49,0,0,0-.2-.51,2.35,2.35,0,0,0-3.28,1.57c0,.22,0,.35,0,.35a3.43,3.43,0,0,1,.56-1.1,2.34,2.34,0,0,1,1.08-.72,2,2,0,0,1,1.52.09c.21.15.13.38-.09.52a4.53,4.53,0,0,1-.71.32,8.625,8.625,0,0,1-1.31.35C239.65,449.15,239.16,449.15,239.16,449.19Z" fill="#263238"/>
      <path id="パス_748" data-name="パス 748" d="M239.49,449.25a1.24,1.24,0,0,0,.14-.88,2.13,2.13,0,0,0-.36-.93,1.28,1.28,0,0,0-1.07-.64.51.51,0,0,0-.38.6,1.221,1.221,0,0,0,.22.56,3.9,3.9,0,0,0,.61.77,1.76,1.76,0,0,0,.73.5,8.292,8.292,0,0,1-.61-.62,4.539,4.539,0,0,1-.54-.76c-.18-.27-.3-.75,0-.81s.65.28.85.53a2.11,2.11,0,0,1,.37.82,4.7,4.7,0,0,1,.04.86Z" fill="#263238"/>
      <path id="パス_749" data-name="パス 749" d="M218,448.18a13.669,13.669,0,0,1,1.47,0,6.22,6.22,0,0,1,5.24,4.07c.31.85.35,1.42.39,1.42a1.07,1.07,0,0,0,0-.4,5.63,5.63,0,0,0-.23-1.07,6,6,0,0,0-5.37-4.2,5.045,5.045,0,0,0-1.09,0A1,1,0,0,0,218,448.18Z" fill="#263238"/>
      <path id="パス_750" data-name="パス 750" d="M220,439.9a33.78,33.78,0,0,0-.12,4.07,35.16,35.16,0,0,0,.11,4.08,34.789,34.789,0,0,0,.13-4.07,33.883,33.883,0,0,0-.12-4.08Z" fill="#263238"/>
      <path id="パス_751" data-name="パス 751" d="M227.63,451.85a11.691,11.691,0,0,0,2.89.25,11.222,11.222,0,0,0,2.9-.27c0-.07-1.3,0-2.9,0A28.447,28.447,0,0,0,227.63,451.85Z" fill="#263238"/>
      <path id="パス_752" data-name="パス 752" d="M223.74,451.89c-.05.05.11.27.24.57s.22.55.28.55.1-.32-.06-.66S223.78,451.84,223.74,451.89Z" fill="#263238"/>
      <path id="パス_753" data-name="パス 753" d="M222.25,450.08a1.026,1.026,0,0,0,.3.46c.21.21.41.33.46.29s-.09-.26-.3-.46S222.3,450,222.25,450.08Z" fill="#263238"/>
      <path id="パス_754" data-name="パス 754" d="M220.15,449.28c0,.06.28.06.57.16s.5.25.56.2-.12-.32-.49-.43S220.13,449.21,220.15,449.28Z" fill="#263238"/>
      <path id="パス_755" data-name="パス 755" d="M218.65,448.9c0,.06.1.16.26.22s.32.07.34,0-.09-.16-.26-.22S218.68,448.84,218.65,448.9Z" fill="#263238"/>
      <g id="グループ_20" data-name="グループ 20" opacity="0.3">
        <path id="パス_756" data-name="パス 756" d="M218.04,447.64l19.8-.56-.06-2.39-19.89.38Z"/>
      </g>
      <path id="パス_757" data-name="パス 757" d="M206.85,449l-.06-10.58H187l-.06,15.48,1.23.08c5.46.3,27.83,1.16,31.49.05C223.69,452.76,206.85,449,206.85,449Z" fill="#90caf9"/>
      <g id="グループ_21" data-name="グループ 21" opacity="0.4">
        <path id="パス_758" data-name="パス 758" d="M215.08,451.12s5.9,1.7,5.17,2.67-23.37,1-33.35.08v-.44l26.4.24S213.93,451.16,215.08,451.12Z" fill="#fff"/>
      </g>
      <path id="パス_759" data-name="パス 759" d="M186.62,453.41h.34l1,.06,3.6.16c3,.11,7.25.21,11.89.21s8.86-.08,11.9-.18l3.6-.15,1-.05a1.727,1.727,0,0,0,.34,0h-1.32l-3.6.07c-3.05.06-7.25.12-11.9.11s-8.84-.07-11.89-.14l-3.6-.08h-1a1.717,1.717,0,0,0-.36-.01Z" fill="#263238"/>
      <path id="パス_760" data-name="パス 760" d="M213.32,454a7.8,7.8,0,0,1,.68-1.72,8.179,8.179,0,0,1,1.22-1.38,3.2,3.2,0,0,0-1.9,3.1Z" fill="#263238"/>
      <path id="パス_761" data-name="パス 761" d="M207.47,451a2.414,2.414,0,0,0,.63-.76c.29-.46.48-.85.42-.88s-.33.3-.62.76a2.24,2.24,0,0,0-.43.88Z" fill="#263238"/>
      <path id="パス_762" data-name="パス 762" d="M205.87,450.16a2.938,2.938,0,0,0,.7-.47c.34-.31.58-.6.54-.65s-.36.16-.7.47S205.83,450.11,205.87,450.16Z" fill="#263238"/>
      <path id="パス_763" data-name="パス 763" d="M204.86,448.28a2.25,2.25,0,0,0,1,.14,2.589,2.589,0,0,0,1-.11,2.2,2.2,0,0,0-1-.13,2.42,2.42,0,0,0-1,.1Z" fill="#263238"/>
      <path id="パス_764" data-name="パス 764" d="M204.51,447a2.87,2.87,0,0,0,2.34.18,6.128,6.128,0,0,0-1.17-.08,6.812,6.812,0,0,0-1.17-.1Z" fill="#263238"/>
      <path id="パス_765" data-name="パス 765" d="M208.15,449.28a4.108,4.108,0,0,0,1.27,0,7.7,7.7,0,0,0,1.36-.3,3.32,3.32,0,0,0,.77-.32.67.67,0,0,0,.32-.39.51.51,0,0,0-.19-.51,2.36,2.36,0,0,0-3.31,1.53c-.05.22-.05.34,0,.34a3.57,3.57,0,0,1,.58-1.08,2.24,2.24,0,0,1,1.09-.71,2,2,0,0,1,1.52.1c.2.15.12.39-.11.53a4.086,4.086,0,0,1-.71.3,8.489,8.489,0,0,1-1.31.34C208.63,449.24,208.15,449.24,208.15,449.28Z" fill="#263238"/>
      <path id="パス_766" data-name="パス 766" d="M208.48,449.34a1.29,1.29,0,0,0,.15-.88,2.27,2.27,0,0,0-.35-.94,1.31,1.31,0,0,0-1.06-.65.5.5,0,0,0-.39.59,1.33,1.33,0,0,0,.21.57,3.61,3.61,0,0,0,.6.77,2,2,0,0,0,.73.52s-.25-.23-.6-.63a4.489,4.489,0,0,1-.54-.77c-.17-.27-.29-.75,0-.81s.64.29.84.54a2.18,2.18,0,0,1,.36.83,5.2,5.2,0,0,1,.05.86Z" fill="#263238"/>
      <path id="パス_767" data-name="パス 767" d="M187,448a8.217,8.217,0,0,1,1.47.05,6.42,6.42,0,0,1,3.19,1.32,6.52,6.52,0,0,1,2,2.82c.3.85.33,1.42.37,1.42s0-.14,0-.4a5.32,5.32,0,0,0-.21-1.07,6,6,0,0,0-5.33-4.26,5.242,5.242,0,0,0-1.1,0,1.15,1.15,0,0,0-.39.12Z" fill="#263238"/>
      <path id="パス_768" data-name="パス 768" d="M189.09,439.74a66.471,66.471,0,0,0-.11,8.15,37,37,0,0,0,.17-4.07A37.428,37.428,0,0,0,189.09,439.74Z" fill="#263238"/>
      <path id="パス_769" data-name="パス 769" d="M196.58,451.78a11.061,11.061,0,0,0,2.89.29,11.289,11.289,0,0,0,2.9-.23c0-.07-1.3,0-2.89,0S196.59,451.71,196.58,451.78Z" fill="#263238"/>
      <path id="パス_770" data-name="パス 770" d="M192.69,451.77a4.756,4.756,0,0,0,.24.58c.13.3.21.56.27.55s.11-.31,0-.65S192.74,451.73,192.69,451.77Z" fill="#263238"/>
      <path id="パス_771" data-name="パス 771" d="M191.23,450a.965.965,0,0,0,.29.46c.21.21.41.34.45.29s-.08-.25-.28-.46S191.28,449.9,191.23,450Z" fill="#263238"/>
      <path id="パス_772" data-name="パス 772" d="M189.14,449.12c0,.06.27.06.56.16s.51.26.56.22-.12-.32-.48-.44S189.12,449.06,189.14,449.12Z" fill="#263238"/>
      <path id="パス_773" data-name="パス 773" d="M187.65,448.72c0,.06.09.17.25.23s.32.07.34,0-.09-.16-.25-.22S187.67,448.66,187.65,448.72Z" fill="#263238"/>
      <g id="グループ_22" data-name="グループ 22" opacity="0.3">
        <path id="パス_774" data-name="パス 774" d="M187.05,447.46l19.8-.32-.03-2.38-19.89.12Z"/>
      </g>
      <path id="パス_775" data-name="パス 775" d="M163,221.45a44.37,44.37,0,0,0-9.63-4,15,15,0,0,0-10.22.76,22.06,22.06,0,0,0-6.14,5.27c-2.07,2.28-4.24,4.75-4.65,7.81a9.1,9.1,0,0,0,2.74,7.43,13.67,13.67,0,0,0,7.27,3.57A18.7,18.7,0,0,0,155.2,240c5.1-3,8.83-8.51,14.59-9.91" fill="#90caf9"/>
      <g id="グループ_23" data-name="グループ 23" opacity="0.5">
        <path id="パス_776" data-name="パス 776" d="M160.1,220.76a26.21,26.21,0,0,0-9.93-2.49,16.41,16.41,0,0,0-9.77,2.67c-1.28.89-2.51,2.29-2.2,3.81s1.78,2.26,3.21,2.54c3.44.65,6.88-.91,10-2.43l8.36-4"/>
      </g>
      <g id="グループ_24" data-name="グループ 24" opacity="0.2">
        <path id="パス_777" data-name="パス 777" d="M132.69,230a4,4,0,0,0,3.45,4.74,6.25,6.25,0,0,0,4-1.1c1.2-.73,2.27-1.65,3.5-2.33a5.5,5.5,0,0,1,4-.74,25.69,25.69,0,0,0-9.92,10.1c-3-1.79-4.81-4.07-5.33-7.29a6.38,6.38,0,0,1,.3-3.38"/>
      </g>
      <path id="パス_778" data-name="パス 778" d="M190.41,206.78c1.94-.56,2.89-2.78,3.06-4.79s-.15-4.07.39-6c.39-1.38,1.21-2.64,1.32-4.07s-.63-3-.67-4.57c-.06-2.15,1.24-4.15,1.27-6.31a5.45,5.45,0,1,0-10.85.61" fill="#263238"/>
      <path id="パス_779" data-name="パス 779" d="M160.77,182.41v3l.6,44.55c.07,5.17,4.57,9.23,10.11,9.12h0c5.59-.12,10.14-4.45,10.15-9.68,0-5.48.14-11.25.14-11.25s7.06-1.18,8.53-10.4c.72-4.58.49-12.1.11-18.24a9.74,9.74,0,0,0-10.74-9.08Z" fill="#a3705d"/>
      <path id="パス_780" data-name="パス 780" d="M188.57,194.71a1.18,1.18,0,0,1-1.14,1.19,1.13,1.13,0,0,1-1.22-1.06,1.19,1.19,0,0,1,1.14-1.2,1.14,1.14,0,0,1,1.22,1.07Z" fill="#263238"/>
      <path id="パス_781" data-name="パス 781" d="M188.83,193.39c-.15.15-1.05-.51-2.32-.51s-2.2.64-2.34.49.08-.35.49-.65a3.29,3.29,0,0,1,1.87-.58,3.17,3.17,0,0,1,1.85.6C188.77,193,188.9,193.32,188.83,193.39Z" fill="#263238"/>
      <path id="パス_782" data-name="パス 782" d="M175.83,194.71a1.16,1.16,0,0,1-1.14,1.19,1.12,1.12,0,0,1-1.21-1.06,1.18,1.18,0,0,1,1.13-1.2,1.13,1.13,0,0,1,1.22,1.07Z" fill="#263238"/>
      <path id="パス_783" data-name="パス 783" d="M176.32,193.62c-.15.16-1-.5-2.31-.5s-2.21.64-2.35.48.08-.34.49-.64a3.23,3.23,0,0,1,1.88-.58,3.14,3.14,0,0,1,1.84.6C176.26,193.28,176.39,193.56,176.32,193.62Z" fill="#263238"/>
      <path id="パス_784" data-name="パス 784" d="M180.94,203.06a8.289,8.289,0,0,1,2.06-.37c.33,0,.64-.1.69-.32a1.63,1.63,0,0,0-.22-1c-.3-.78-.62-1.61-1-2.47a41.48,41.48,0,0,1-2.15-6.47,42.79,42.79,0,0,1,2.67,6.28l.92,2.49a2,2,0,0,1,.17,1.28.84.84,0,0,1-.54.47,2.35,2.35,0,0,1-.55.08,8.21,8.21,0,0,1-2.05.03Z" fill="#263238"/>
      <path id="パス_785" data-name="パス 785" d="M181.82,218.12a23.44,23.44,0,0,1-12.35-3.3s3,6.33,12.22,5.47Z" fill="#85503b"/>
      <path id="パス_786" data-name="パス 786" d="M180.4,206.13a2.31,2.31,0,0,0-2.06-.86,2.1,2.1,0,0,0-1.44.78,1.32,1.32,0,0,0-.1,1.52,1.55,1.55,0,0,0,1.67.42,4.73,4.73,0,0,0,1.62-1,1.48,1.48,0,0,0,.37-.38.42.42,0,0,0,0-.47" fill="#85503b"/>
      <path id="パス_787" data-name="パス 787" d="M177.19,203.94c.21,0,.21,1.37,1.4,2.35s2.65.83,2.66,1-.33.27-.95.29a3.44,3.44,0,0,1-2.22-.78,3,3,0,0,1-1.08-2C177,204.27,177.1,203.93,177.19,203.94Z" fill="#263238"/>
      <path id="パス_788" data-name="パス 788" d="M176.65,188.64c-.13.34-1.4.18-2.89.36s-2.7.59-2.9.28c-.09-.15.12-.48.61-.81a4.75,4.75,0,0,1,2.15-.75,4.82,4.82,0,0,1,2.26.26C176.43,188.2,176.7,188.47,176.65,188.64Z" fill="#263238"/>
      <path id="パス_789" data-name="パス 789" d="M188.36,189.7c-.22.29-1.1,0-2.16,0s-1.94.19-2.15-.11c-.09-.14,0-.43.44-.71a3,3,0,0,1,1.75-.47A2.9,2.9,0,0,1,188,189C188.34,189.27,188.46,189.56,188.36,189.7Z" fill="#263238"/>
      <path id="パス_790" data-name="パス 790" d="M169.81,175.58a22.65,22.65,0,0,0,2.38,7.89,9.16,9.16,0,0,0,6.45,4.73c2.13.28,4.25-.45,6.28-1.16l5.87-2.07a11,11,0,0,0,3.29-1.58,6.79,6.79,0,0,0,2-6.95,10.21,10.21,0,0,0-7.48-6.91,16.51,16.51,0,0,0-10.43,1.2,44.649,44.649,0,0,0-9,5.65" fill="#263238"/>
      <path id="パス_791" data-name="パス 791" d="M172.55,175.74l-1.71-.31a7,7,0,0,0-3-2.52,5,5,0,0,0,.5-.88,5.24,5.24,0,0,0-2.82-6.63,8.17,8.17,0,0,1-2.36-1c-.87-.68-1.14-1.88-1.85-2.72-1.1-1.29-3-1.5-4.7-1.61a10.53,10.53,0,0,0-3.41.16,3.54,3.54,0,0,0-2.54,2.11c-.4,1.13,0,2.48-.57,3.54s-1.72,1.42-2.58,2.15c-2,1.69-1.9,4.89-.68,7.18a9.81,9.81,0,0,0,8.22,5.08,8.251,8.251,0,0,0,1.11-.05,8.171,8.171,0,0,1-1,1.88,25,25,0,0,1-3.42,2.87,8.51,8.51,0,0,0,0,12.69,13.291,13.291,0,0,1,2.75,2.53c.71,1.11.79,2.49,1.21,3.73a6.91,6.91,0,0,0,10.34,3.51,4.46,4.46,0,0,0,2.19-3.9c-.18-1.8-1.83-3.18-2-5s1-3.36,1-5.11c-.07-2-1.84-3.8-1.45-5.77s2.53-2.82,4.05-4.05a8.09,8.09,0,0,0,2.72-7.88Z" fill="#263238"/>
      <path id="パス_792" data-name="パス 792" d="M165.13,174.13a2.64,2.64,0,0,1-.47,1.23,7.78,7.78,0,0,1-2.14,2.33,7.61,7.61,0,0,1-2.89,1.31c-.79.16-1.3.13-1.31.06a15.181,15.181,0,0,0,3.9-1.79,16.08,16.08,0,0,0,2.91-3.14Z" fill="#90caf9"/>
      <path id="パス_793" data-name="パス 793" d="M151.87,216.63a8.7,8.7,0,0,0,.59.84,3.52,3.52,0,0,0,2.43,1.12,3.85,3.85,0,0,0,3.36-1.86,5.08,5.08,0,0,0,.81-2.22,2.52,2.52,0,0,0-.68-2.25,1.42,1.42,0,0,0-1-.37,1.18,1.18,0,0,0-.87.57c-.39.63.26,1.37.94,1.43a2.49,2.49,0,0,0,1.85-.77,4.27,4.27,0,0,0,1.05-1.55,4.65,4.65,0,0,0,.2-2.72c-.15-.64-.34-1-.3-1a2.05,2.05,0,0,1,.5.93,4.59,4.59,0,0,1-.06,2.91,4.45,4.45,0,0,1-1.09,1.73,2.85,2.85,0,0,1-2.21.93,1.73,1.73,0,0,1-1.21-.67,1.33,1.33,0,0,1-.12-1.47,1.69,1.69,0,0,1,1.26-.85,1.94,1.94,0,0,1,1.45.5,3,3,0,0,1,.85,2.7,5.55,5.55,0,0,1-.92,2.43,4.21,4.21,0,0,1-3.78,2,3.61,3.61,0,0,1-2.56-1.36,2.31,2.31,0,0,1-.39-.7C151.87,216.73,151.85,216.64,151.87,216.63Z" fill="#263238"/>
      <path id="パス_794" data-name="パス 794" d="M151,207a4.56,4.56,0,0,0,.59,1.26,2.78,2.78,0,0,0,1.16.86,3.14,3.14,0,0,0,1.76.11,5.19,5.19,0,0,0,2.79-1.76c.58-.66.89-1.13,1-1.09a3,3,0,0,1-.68,1.32,4.92,4.92,0,0,1-3,2,3.34,3.34,0,0,1-2-.18,2.93,2.93,0,0,1-1.28-1.09A1.728,1.728,0,0,1,151,207Z" fill="#263238"/>
      <path id="パス_795" data-name="パス 795" d="M171.25,175.19c-.06,0-.08-.15-.05-.3l.29.22a1,1,0,0,1-.59.39c-.57.14-1-.22-.88-.34s.4-.07.76-.17a3.109,3.109,0,0,0,.46-.15l.84-.33-.55.55C171.41,175.17,171.31,175.22,171.25,175.19Z" fill="#263238"/>
      <path id="パス_796" data-name="パス 796" d="M178.13,161.32a1.534,1.534,0,0,1,.23.25,3.75,3.75,0,0,1,.43.86,4.33,4.33,0,0,1-4.81,5.72,3.32,3.32,0,0,1-2.63-1.75,1.73,1.73,0,0,1,.26-1.77,2.08,2.08,0,0,1,1.64-.8,2.64,2.64,0,0,1,2.43,2.3,4.3,4.3,0,0,1-.8,3.05,11.789,11.789,0,0,1-1.9,2,15.82,15.82,0,0,1-1.93,1.48,10.71,10.71,0,0,1-3.19,1.45,3.47,3.47,0,0,1-1.27.17,13,13,0,0,0,4.26-1.93,17.461,17.461,0,0,0,1.84-1.49,11.191,11.191,0,0,0,1.79-2,3.83,3.83,0,0,0,.7-2.7,2.15,2.15,0,0,0-1.93-1.86c-1,0-1.84,1-1.43,1.85a2.84,2.84,0,0,0,2.23,1.47,4.07,4.07,0,0,0,4.17-1.93,4.39,4.39,0,0,0,.37-3.25,9.831,9.831,0,0,0-.46-1.12Z" fill="#263238"/>
      <path id="パス_797" data-name="パス 797" d="M142.07,186.19a8.27,8.27,0,0,1,1,.34,7,7,0,0,0,2.85.36,4.57,4.57,0,0,0,3.47-2.06,2.91,2.91,0,0,0,.4-2.28,1.27,1.27,0,0,0-.73-.83.93.93,0,0,0-1,.14,1,1,0,0,0-.15,1,1.54,1.54,0,0,0,.8.83,4.19,4.19,0,0,0,2.38.35,7.16,7.16,0,0,0,3.75-1.86,20.659,20.659,0,0,0,2-2.13c.45-.54.71-.83.74-.8a3.86,3.86,0,0,1-.58.92,15.271,15.271,0,0,1-1.92,2.28,7.29,7.29,0,0,1-3.94,2.06,4.54,4.54,0,0,1-2.68-.37,2.1,2.1,0,0,1-1.05-1.1,1.52,1.52,0,0,1,.27-1.59,1.45,1.45,0,0,1,1.6-.25,1.76,1.76,0,0,1,1,1.16,3.3,3.3,0,0,1-.48,2.68,4.89,4.89,0,0,1-3.84,2.18,6.59,6.59,0,0,1-2.95-.54A3.121,3.121,0,0,1,142.07,186.19Z" fill="#263238"/>
      <path id="パス_798" data-name="パス 798" d="M158.13,177.69a11.522,11.522,0,0,0-1.2.09,26.589,26.589,0,0,0-3.22.58,12,12,0,0,1-4.92.24,8.43,8.43,0,0,1-5.18-3.07,7,7,0,0,1-1.19-5.89,5.44,5.44,0,0,1,3.23-3.67,5.17,5.17,0,0,1,3.31-.29,3.14,3.14,0,0,1,.85.34c.18.1.27.16.26.18a8.33,8.33,0,0,0-1.15-.32,5.28,5.28,0,0,0-3.12.42,5.14,5.14,0,0,0-2.91,3.46,6.6,6.6,0,0,0,1.14,5.45,8,8,0,0,0,4.85,2.92,12,12,0,0,0,4.76-.14,20.45,20.45,0,0,1,3.28-.41,3.369,3.369,0,0,1,1.21.11Z" fill="#263238"/>
      <path id="パス_799" data-name="パス 799" d="M165.56,172.58a5.69,5.69,0,0,0,2.33-1.39,4.41,4.41,0,0,0,.24-5.9,5.06,5.06,0,0,0-2.95-1.87,5.8,5.8,0,0,0-2.91.16,10.27,10.27,0,0,0-2.43,1.31,2.576,2.576,0,0,1,.51-.58,5.68,5.68,0,0,1,1.8-1.08,5.83,5.83,0,0,1,3.12-.28,5.36,5.36,0,0,1,3.27,2,5,5,0,0,1,1.05,3.69,4.82,4.82,0,0,1-1.44,2.79,4.17,4.17,0,0,1-1.83,1.06,1.59,1.59,0,0,1-.76.09Z" fill="#263238"/>
      <path id="パス_800" data-name="パス 800" d="M193.38,193.09c-.06-.07.64-.64,1.59-1.7a5.82,5.82,0,0,0,1.23-2.08,4.7,4.7,0,0,0-.19-2.89c-.34-1-.84-1.94-1.16-2.86a5.57,5.57,0,0,1-.39-2.58,3.19,3.19,0,0,1,.63-1.64c.27-.33.47-.44.49-.42a4.1,4.1,0,0,0-.75,2.09,5.67,5.67,0,0,0,.47,2.38c.33.87.84,1.79,1.21,2.87a5,5,0,0,1,.15,3.19,5.77,5.77,0,0,1-1.42,2.19,6.77,6.77,0,0,1-1.86,1.45Z" fill="#263238"/>
      <path id="パス_801" data-name="パス 801" d="M249.81,276.56l-34.57-.46-15.33-39.89c-3.55-6-9.66-8.79-18.06-9.8l-2.61,2a12.34,12.34,0,0,1-14.29.4l-3.54-2.37s-9.62.51-16.68,6.27h-.09a22.11,22.11,0,0,0-7.4,11.07c-1.38,4.54-5.36,19.92-8.29,31.36a14.65,14.65,0,0,0,9.6,17.56l9.54,3.16-4.69,14.22,57.06-.76-7.91-32.15.94-2.35c1.47,3,3.79,7.55,5.27,10.49A16,16,0,0,0,214,294.05l37.28-3.31Zm-101.8.92,3.07-11.36c1.23,4.16,3.45,11.73,3.12,11.18l-.8,2.44Z" fill="#90caf9"/>
      <path id="パス_802" data-name="パス 802" d="M176.22,301.4a83.494,83.494,0,0,0,7.64,4.64c3.36,1.59,3.51,1.3,3.64.88.35-1.13-5.78-3-4.21-3.38s7.21,3.19,7.53,2c.41-1.55-6-3.42-6.59-3.62s-.24-1,.23-.77c.68.3,7.89,3.22,8.3,1.7.24-.85-1.33-1.09-1.33-1.09s-7-2.24-6.74-2.95,4.36.46,5.72.95,2.15.06,1.88-.72c-.18-.52-4.31-2.13-5.67-2.59s-5.12-1.65-2.75-2.55,3.86-2.47,4-3.16-.82-1.08-1.38-.52a9.6,9.6,0,0,1-2.17,1.33,6.21,6.21,0,0,1-2,.58c-.59.08-1.11.12-1.58.15l-5,.38-2.53,6.65Z" fill="#a3705d"/>
      <path id="パス_803" data-name="パス 803" d="M138.19,292.54h.16l.46.14,1.78.59,6.72,2.29,23.84,8.28-.29.13c1.76-4.45,3.71-9.36,5.75-14.53l.14.32L162,283.64l-14.13-5.92-.2-.09.06-.22c1.9-7.07,3.35-13.78,4.72-19.79.34-1.51.67-3,1-4.39a36.5,36.5,0,0,0,.8-4.1,21.2,21.2,0,0,0-.52-7.37,10.92,10.92,0,0,0-3-5.16,8,8,0,0,0-4-2,7,7,0,0,0-2.82.08c-.62.16-.93.32-.94.29a4.491,4.491,0,0,1,.92-.38,6.57,6.57,0,0,1,2.87-.16,8.05,8.05,0,0,1,4.13,2,11.09,11.09,0,0,1,3.13,5.26,21.38,21.38,0,0,1,.6,7.5,39.678,39.678,0,0,1-.78,4.15l-1,4.39c-1.35,6-2.77,12.74-4.66,19.84l-.15-.3,14.13,5.91,14.7,6.18.23.09-.09.23c-2.06,5.17-4,10.07-5.8,14.52l-.08.2-.2-.07-23.78-8.45-6.68-2.42-1.76-.65-.44-.18Z" fill="#263238"/>
      <path id="パス_804" data-name="パス 804" d="M190.87,243.36a23.6,23.6,0,0,0,.9,4.85c.45,1.46,1.14,3.15,1.92,5a33.589,33.589,0,0,1,2.08,6.31,18.66,18.66,0,0,1,0,6.67,33,33,0,0,1-1.37,5.25c-.5,1.46-1,2.62-1.29,3.41a7.5,7.5,0,0,1-.57,1.22,5.769,5.769,0,0,1,.38-1.29c.27-.81.68-2,1.13-3.45a37.218,37.218,0,0,0,1.25-5.22,18.88,18.88,0,0,0,0-6.49,35.289,35.289,0,0,0-2-6.23,49.143,49.143,0,0,1-1.82-5.11,15.641,15.641,0,0,1-.61-3.61A5.25,5.25,0,0,1,190.87,243.36Z" fill="#263238"/>
      <path id="パス_805" data-name="パス 805" d="M215.24,276.1a12.47,12.47,0,0,1-2.05,2.77,18.249,18.249,0,0,1-2.37,2.49c-.16-.11.74-1.39,2-2.83A11.17,11.17,0,0,1,215.24,276.1Z" fill="#263238"/>
      <path id="パス_806" data-name="パス 806" d="M148,277.48a14,14,0,0,0-3.16.78,5.2,5.2,0,0,0-1.79,1.32c-.37.45-.52.79-.6.77s0-.42.3-1a4.89,4.89,0,0,1,5.25-1.89Z" fill="#263238"/>
      <path id="パス_807" data-name="パス 807" d="M152.17,228.5c0,.09-1.2.62-3.09,1.66a31.411,31.411,0,0,0-6.79,4.92,19.52,19.52,0,0,0-4.6,6.92c-.76,2-.95,3.35-1.05,3.33a3.89,3.89,0,0,1,.08-.94,15,15,0,0,1,.62-2.52,18.49,18.49,0,0,1,4.58-7.16,27.771,27.771,0,0,1,7-4.88,19.084,19.084,0,0,1,2.36-1,2.859,2.859,0,0,1,.89-.33Z" fill="#263238"/>
      <path id="パス_808" data-name="パス 808" d="M169.86,235.79a4.91,4.91,0,0,1-2,.12,11.27,11.27,0,0,1-4.71-1.54A11.14,11.14,0,0,1,159.5,231a4.91,4.91,0,0,1-.88-1.85c.08,0,.43.66,1.18,1.63a12.57,12.57,0,0,0,8.06,4.78A17.906,17.906,0,0,1,169.86,235.79Z" fill="#263238"/>
      <path id="パス_809" data-name="パス 809" d="M183.93,228.55a8.9,8.9,0,0,1-5.59,5.09c-.06-.14,1.48-.89,3-2.31S183.8,228.47,183.93,228.55Z" fill="#263238"/>
      <path id="パス_810" data-name="パス 810" d="M154,251.77s4.69,20.71,4.61,22.73a48.141,48.141,0,0,1-1.35,6.86l-3.87-1.62.8-2.44-3.28-11.72Z" opacity="0.2"/>
      <g id="グループ_25" data-name="グループ 25" opacity="0.2">
        <path id="パス_811" data-name="パス 811" d="M196.16,264l5.22,17.88a20.29,20.29,0,0,0,2.71,6.4c2.78,3.78,11,4.35,15.62,5.28l-6.75.61a16.32,16.32,0,0,1-13.75-8l-5.72-11.38Z"/>
      </g>
      <path id="パス_812" data-name="パス 812" d="M174.7,244.18a21.55,21.55,0,0,1-.43-4.71,21.27,21.27,0,0,1,.08-4.74,22.15,22.15,0,0,1,.44,4.72,21.439,21.439,0,0,1-.09,4.73Z" fill="#fafafa"/>
      <path id="パス_813" data-name="パス 813" d="M178.5,242.44a35,35,0,0,1-2.24-3.81,32.529,32.529,0,0,1-2.17-3.85,20.61,20.61,0,0,1,4.41,7.66Z" fill="#fafafa"/>
      <path id="パス_814" data-name="パス 814" d="M174.13,263a27.178,27.178,0,0,1-3.09-2.42l-.12-.11.11-.12.06-.06a25.662,25.662,0,0,1,2.84-2.83,26.589,26.589,0,0,1-2.61,3l-.06.07v-.23A24.177,24.177,0,0,1,174.13,263Z" fill="#fff"/>
      <path id="パス_815" data-name="パス 815" d="M179.56,257.36a25.631,25.631,0,0,1,3,2.51l.12.1-.11.12-.06.06a24.688,24.688,0,0,1-2.84,2.83,26.587,26.587,0,0,1,2.61-3l.06-.06v.22a25.72,25.72,0,0,1-2.78-2.78Z" fill="#fff"/>
      <path id="パス_816" data-name="パス 816" d="M174.94,264.11a57.349,57.349,0,0,1,3.64-7.85,31.421,31.421,0,0,1-1.68,4,33.866,33.866,0,0,1-1.96,3.85Z" fill="#fff"/>
      <path id="パス_817" data-name="パス 817" d="M187.12,266.57a.235.235,0,0,0,.15-.08c.08-.08.08-.25.07-.49v-2.08c0-1.86,0-4.46-.06-7.64v-4.22a.09.09,0,0,0-.06-.11H166.65s-.07,0-.06.1v14.21a.08.08,0,0,0,.06.09h10.12l7.64.07h0l-7.64.06H166.6a.45.45,0,0,1-.39-.46V251.81a.49.49,0,0,1,.48-.52h19.92a5.208,5.208,0,0,1,.76,0,.43.43,0,0,1,.29.43v4.22c0,3.18-.05,5.78-.07,7.64v2.08c0,.22,0,.44-.13.52A1.885,1.885,0,0,0,187.12,266.57Z" fill="#fff"/>
      <path id="パス_818" data-name="パス 818" d="M187.38,254.05c0,.08-4.72.15-10.53.15s-10.54-.07-10.54-.15,4.71-.16,10.54-.16S187.38,254,187.38,254.05Z" fill="#fff"/>
      <path id="パス_819" data-name="パス 819" d="M168,253a.266.266,0,1,1-.23-.22.22.22,0,0,1,.23.22Z" fill="#fff"/>
      <path id="パス_820" data-name="パス 820" d="M168.89,253a.266.266,0,1,1-.23-.22A.23.23,0,0,1,168.89,253Z" fill="#fff"/>
      <path id="パス_821" data-name="パス 821" d="M169.79,253a.23.23,0,1,1-.22-.22.22.22,0,0,1,.22.22Z" fill="#fff"/>
      <path id="パス_822" data-name="パス 822" d="M251.12,289.29l1,.11a102.855,102.855,0,0,0,10.95.64c4.55-.2,4.55-.61,4.45-1.14-.27-1.42-8,0-6.5-1.24s9.64-.69,9.3-2.16c-.45-1.91-8.52-.23-9.21-.14s-.83-.91-.2-1c.91-.07,10.39-1,10-2.94-.24-1-2.07-.4-2.07-.4s-8.82,1.57-9,.67,5-2,6.74-2.25,2.35-1.18,1.62-1.86c-.49-.47-5.9.16-7.63.45s-6.49,1.15-4.45-1.19,2.76-4.88,2.48-5.7a1,1,0,0,0-1.79.23,12,12,0,0,1-1.59,2.7,7.67,7.67,0,0,1-1.79,1.76c-.6.41-1.14.76-1.64,1.06L250,278.07Z" fill="#a3705d"/>
      <path id="パス_823" data-name="パス 823" d="M172.6,309.22S168.43,334,180.94,341s38.85,14.78,38.85,14.78l-2.89,89.4h21.73l7.88-96.83a10.61,10.61,0,0,0-3.53-8.8l-41.73-30.29Z" fill="#263238"/>
      <path id="パス_824" data-name="パス 824" d="M143.68,309.22s-5.27,22.54,7.24,29.5,35.35,16,35.35,16l-.51,90.4h25.12l5.37-96.83a10.61,10.61,0,0,0-3.53-8.8L176.85,309.2Z" fill="#263238"/>
      <path id="パス_825" data-name="パス 825" d="M215.24,368.38a3.56,3.56,0,0,1,0-.78c0-.55.08-1.29.14-2.21.13-1.92.34-4.71.5-8.15a81.252,81.252,0,0,0-.18-12.05,12.94,12.94,0,0,0-2.24-6.57,37.922,37.922,0,0,0-5.16-5.59c-7.85-7-15.47-12.71-20.92-16.92l-6.46-5-1.74-1.39a4.832,4.832,0,0,1-.58-.51,3.751,3.751,0,0,1,.65.43l1.79,1.31,6.56,4.86c5.51,4.14,13.16,9.83,21.06,16.83a38.088,38.088,0,0,1,5.22,5.68,10,10,0,0,1,1.64,3.33,21.607,21.607,0,0,1,.66,3.47,78.4,78.4,0,0,1,.07,12.13c-.21,3.45-.48,6.23-.67,8.15l-.24,2.2A6.753,6.753,0,0,1,215.24,368.38Z" fill="#455a64"/>
      <path id="パス_826" data-name="パス 826" d="M162.15,309.18a2,2,0,0,1-.1.75,9,9,0,0,1-.72,1.93,10.27,10.27,0,0,1-4.8,4.76,9.43,9.43,0,0,1-6.73.42,8.419,8.419,0,0,1-1.89-.85c-.41-.26-.61-.44-.59-.47a23.423,23.423,0,0,0,2.58,1,9.67,9.67,0,0,0,6.41-.54,10.74,10.74,0,0,0,4.7-4.46C161.84,310.21,162.06,309.15,162.15,309.18Z" fill="#455a64"/>
      <path id="パス_827" data-name="パス 827" d="M192.31,346.3a50.912,50.912,0,0,1-5.68,8.45,49.311,49.311,0,0,1,5.68-8.45Z" fill="#455a64"/>
      <path id="パス_828" data-name="パス 828" d="M194.57,351a17.34,17.34,0,0,1-3.68,2.17,17.54,17.54,0,0,1-3.92,1.7,18.1,18.1,0,0,1,3.68-2.16,17.879,17.879,0,0,1,3.92-1.71Z" fill="#455a64"/>
      <path id="パス_829" data-name="パス 829" d="M228.58,349.58a.533.533,0,0,1,.11-.27l.12.11a40.7,40.7,0,0,1-3.28,3.18,23,23,0,0,1-3.79,3,22.563,22.563,0,0,1,3.44-3.42,40.007,40.007,0,0,1,3.52-2.91l.12.12C228.68,349.54,228.61,349.59,228.58,349.58Z" fill="#455a64"/>
      <path id="パス_830" data-name="パス 830" d="M231.17,354a19.12,19.12,0,0,1-4.2,1.4,18.7,18.7,0,0,1-4.35.9,19.592,19.592,0,0,1,4.21-1.4,18.771,18.771,0,0,1,4.34-.9Z" fill="#455a64"/>
      <path id="パス_831" data-name="パス 831" d="M255.59,268.76l2.43,25.23h12.29l2.95-25.23Z" fill="#455a64"/>
      <path id="パス_832" data-name="パス 832" d="M255.59,265.5a5.24,5.24,0,0,0-1.16,3.33h20a3.74,3.74,0,0,0-1.15-3.33Z" fill="#263238"/>
      <path id="パス_833" data-name="パス 833" d="M257.86,263.19l-.67,2.49,15.07.12-.99-2.64Z" fill="#263238"/>
      <path id="パス_834" data-name="パス 834" d="M255.33,275.07c0,.24,1.47,12.7,1.47,12.7h15l1.44-12.7Z" fill="#90caf9"/>
      <path id="パス_835" data-name="パス 835" d="M171.72,351.29c7.77-.25,4.11-11.65,3.92-24.05-.12-7.77-5.29-15.4-10.92-20.75a26.67,26.67,0,0,0-9.89-5.53,61.48,61.48,0,0,0-30-1.92S122.5,352.84,171.72,351.29Z" fill="#455a64"/>
    </g>
    <g id="freepik--Puzzle--inject-658">
      <path id="パス_836" data-name="パス 836" d="M381.57,131.65a7.62,7.62,0,0,1,3.89.86,4.35,4.35,0,0,0,1.77.43h1.58v-20a3,3,0,0,0-3-3H366.23v-1.32a4,4,0,0,1,.43-1.76,8.06,8.06,0,0,0,.69-4.9,8.3,8.3,0,0,0-7.11-6.64c-8.57-1.27-9.06,3.27-9.06,8a8.07,8.07,0,0,0,.69,3.26,4,4,0,0,1,.36,1.63v1.69H333.16a3,3,0,0,0-3,3v52.73a2.45,2.45,0,0,0,2.46,2.44h53.75a2.45,2.45,0,0,0,2.46-2.44v-19h-2.18a4.13,4.13,0,0,0-1.47.28,8,8,0,0,1-3,.59A8.1,8.1,0,0,1,374,139,7.86,7.86,0,0,1,381.57,131.65Z" fill="#90caf9"/>
      <g id="グループ_26" data-name="グループ 26" opacity="0.3">
        <path id="パス_837" data-name="パス 837" d="M381.57,131.65a7.62,7.62,0,0,1,3.89.86,4.35,4.35,0,0,0,1.77.43h1.58v-20a3,3,0,0,0-3-3H366.23v-1.32a4,4,0,0,1,.43-1.76,8.06,8.06,0,0,0,.69-4.9,8.36,8.36,0,0,0-7.28-6.67c-9.61-1.06-8.89,3.3-8.89,8.07a8.07,8.07,0,0,0,.69,3.26,4,4,0,0,1,.36,1.63v1.69H333.16a3,3,0,0,0-3,3v52.73a2.45,2.45,0,0,0,2.46,2.44h53.75a2.45,2.45,0,0,0,2.46-2.44v-19h-2.18a4.13,4.13,0,0,0-1.47.28,8,8,0,0,1-3,.59A8.1,8.1,0,0,1,374,139a7.86,7.86,0,0,1,7.57-7.35Z"/>
      </g>
      <path id="パス_838" data-name="パス 838" d="M378.19,131.65a7.62,7.62,0,0,1,3.89.86,4.35,4.35,0,0,0,1.77.43h1.57v-20a3,3,0,0,0-3-3H362.85v-1.32a4.14,4.14,0,0,1,.42-1.76,7.92,7.92,0,0,0,.69-4.9,8.15,8.15,0,0,0-16.16,1.4,7.91,7.91,0,0,0,.69,3.26,4,4,0,0,1,.36,1.63v1.69H329.78a3,3,0,0,0-3,3v52.73a2.45,2.45,0,0,0,2.46,2.44H383a2.45,2.45,0,0,0,2.45-2.44v-19h-2.17a4.08,4.08,0,0,0-1.47.28,8.13,8.13,0,0,1-11.2-7.95,7.87,7.87,0,0,1,7.58-7.35Z" fill="#90caf9"/>
      <path id="パス_839" data-name="パス 839" d="M391.1,146.7v19.08a3,3,0,0,0,3,3h53.05a2.46,2.46,0,0,0,2.46-2.45V112.59a2.46,2.46,0,0,0-2.46-2.46H428v2.18a3.841,3.841,0,0,0,.29,1.46,8.133,8.133,0,1,1-14.93-.43,4.08,4.08,0,0,0,.4-1.71V110.1H394.11a3,3,0,0,0-3,3v33.6Z" fill="#263238"/>
      <path id="パス_840" data-name="パス 840" d="M406.85,117.38a8,8,0,0,1,.75-4,4.07,4.07,0,0,0,.39-1.71v-1.53H388.36a3,3,0,0,0-3,3V132.7H384a4.08,4.08,0,0,1-1.78-.42,8.14,8.14,0,1,0-.24,14.79,4,4,0,0,1,1.64-.37h1.7v19.08a3,3,0,0,0,3,3h53.05a2.45,2.45,0,0,0,2.45-2.45V112.59a2.45,2.45,0,0,0-2.45-2.46H422.24v2.18a4,4,0,0,0,.28,1.46,8.139,8.139,0,1,1-15.67,3.61Z" fill="#455a64"/>
    </g>
    <g id="freepik--Floor--inject-658">
      <path id="パス_841" data-name="パス 841" d="M682.11,454.68c0,.14-140.2.26-313.1.26s-313.12-.12-313.12-.26,140.17-.26,313.12-.26S682.11,454.53,682.11,454.68Z" fill="#263238"/>
    </g>
    <g id="freepik--Plant--inject-658">
      <path id="パス_842" data-name="パス 842" d="M667,428.48a15.88,15.88,0,0,1,9.84-1.19,8.18,8.18,0,0,1,4.86,2.17c1.21,1.34,1.44,3.7.05,4.85a4.661,4.661,0,0,1-3.07.78c-2.6,0-5.48-.49-7.56,1.08-1.19.89-2,2.37-3.39,2.81a3.35,3.35,0,0,1-3.69-1.64,5.73,5.73,0,0,1-.42-4.23,6.45,6.45,0,0,1,3.38-4.63Z" fill="#90caf9"/>
      <path id="パス_843" data-name="パス 843" d="M660.11,415.25c1.83,2.61,5.39,1.75,7,.15s2.34-3.91,3-6.11c1.45-5,2.91-10.33,1.83-15.46a8.56,8.56,0,0,0-2-4.2,4.48,4.48,0,0,0-4.25-1.41c-1.8.47-2.91,2.23-3.72,3.9a37,37,0,0,0-3.64,15.81c0,2.54.29,5.21,1.73,7.32" fill="#90caf9"/>
      <path id="パス_844" data-name="パス 844" d="M655.09,419a9.54,9.54,0,0,0,1.48-8.75,16.91,16.91,0,0,0-5.19-7.52,27.86,27.86,0,0,0-9.28-5.48,9.859,9.859,0,0,0-4.18-.71,4.37,4.37,0,0,0-3.5,2.12c-1,1.86,0,4.12,1,6a72.044,72.044,0,0,0,6.1,9.28c1.83,2.36,3.92,4.68,6.71,5.75s5.67.93,7.15-1" fill="#90caf9"/>
      <path id="パス_845" data-name="パス 845" d="M660,454.68a5.9,5.9,0,0,0,.16-1.19c.09-.87.19-1.95.32-3.24a46.192,46.192,0,0,1,.73-4.76,37.067,37.067,0,0,1,1.73-5.61,20.438,20.438,0,0,1,2.86-5.08,10.83,10.83,0,0,1,3.62-3,10.23,10.23,0,0,1,3.05-1,6.458,6.458,0,0,0,1.19-.17,6,6,0,0,0-1.21,0,9.26,9.26,0,0,0-3.18.83,10.689,10.689,0,0,0-3.82,3,20.119,20.119,0,0,0-3,5.18,34.339,34.339,0,0,0-1.71,5.7,40.772,40.772,0,0,0-.64,4.82c-.1,1.37-.14,2.49-.16,3.26a5.42,5.42,0,0,0,.06,1.26Z" fill="#263238"/>
      <path id="パス_846" data-name="パス 846" d="M660.21,452.18a2,2,0,0,0,0-.55v-1.57c0-1.37,0-3.35.07-5.8.12-4.88.54-10.14,1.35-17.56.77-7,1.81-15.09,2.9-20.37.23-1.2.47-2.28.69-3.22s.39-1.77.56-2.43.28-1.13.37-1.53a2.932,2.932,0,0,0,.1-.55,2.471,2.471,0,0,0-.19.52c-.12.4-.27.9-.46,1.51s-.41,1.47-.65,2.41-.51,2-.76,3.22a178.127,178.127,0,0,0-3,18.9c-.82,7.43-1.19,14.2-1.22,19.1,0,2.45,0,4.43.09,5.8,0,.64.07,1.16.09,1.58a2.18,2.18,0,0,0,.06.54Z" fill="#263238"/>
      <path id="パス_847" data-name="パス 847" d="M660.24,439.13a9.5,9.5,0,0,0,0-1.65c-.06-1.05-.2-2.58-.5-4.46a60.886,60.886,0,0,0-1.45-6.49,52.814,52.814,0,0,0-2.72-7.69,41,41,0,0,0-8-12.43,20.7,20.7,0,0,0-1.88-1.75c-.29-.24-.54-.48-.8-.67l-.73-.51a10.7,10.7,0,0,0-1.38-.88,48.789,48.789,0,0,1,4.54,4,43.271,43.271,0,0,1,7.79,12.4,59.278,59.278,0,0,1,2.73,7.62,65,65,0,0,1,1.55,6.43c.34,1.86.53,3.37.65,4.42a11.884,11.884,0,0,0,.2,1.66Z" fill="#263238"/>
    </g>
  </g>
</svg>
