<svg xmlns="http://www.w3.org/2000/svg" width="533.6" height="150" viewBox="0 0 533.6 150">
  <path id="Meet" d="M16.6,0V-150h7.8L95.6-79l71-71h16.8V0H150V-91.6L91.6-33.2,33.4-91.6V0Zm300-50H250v16.6a16.3,16.3,0,0,0,4.9,11.8,15.813,15.813,0,0,0,11.7,5h16.8q16.6,0,16.6-16.8h16.6Q312.8,0,283.4,0H250a32.269,32.269,0,0,1-23.5-9.8,32.008,32.008,0,0,1-9.9-23.6v-50a31.78,31.78,0,0,1,9.9-23.4,32.269,32.269,0,0,1,23.5-9.8h33.4a31.939,31.939,0,0,1,23.4,9.8,31.939,31.939,0,0,1,9.8,23.4ZM250-66.6h33.4V-83.4a15.97,15.97,0,0,0-4.9-11.7,16.2,16.2,0,0,0-11.9-4.9,15.97,15.97,0,0,0-11.7,4.9A15.97,15.97,0,0,0,250-83.4ZM450-50H383.4v16.6a16.3,16.3,0,0,0,4.9,11.8,15.813,15.813,0,0,0,11.7,5h16.8q16.6,0,16.6-16.8H450Q446.2,0,416.8,0H383.4a32.269,32.269,0,0,1-23.5-9.8A32.007,32.007,0,0,1,350-33.4v-50a31.78,31.78,0,0,1,9.9-23.4,32.269,32.269,0,0,1,23.5-9.8h33.4a31.939,31.939,0,0,1,23.4,9.8A31.939,31.939,0,0,1,450-83.4ZM383.4-66.6h33.4V-83.4a15.97,15.97,0,0,0-4.9-11.7A16.2,16.2,0,0,0,400-100a15.97,15.97,0,0,0-11.7,4.9,15.97,15.97,0,0,0-4.9,11.7ZM500.2-150h33.2v33.4h16.8V-100H533.4v66.6q0,8.2,5.4,12.5t9.8,4.3h1.6V0H533.4A31.939,31.939,0,0,1,510-9.8a32.169,32.169,0,0,1-9.8-23.6V-100H483.4v-16.6h16.8Z" transform="translate(-16.6 150)" fill="#00bbd3"/>
</svg>
