<svg xmlns="http://www.w3.org/2000/svg" width="479.3" height="443.31" viewBox="0 0 479.3 443.31">
  <g id="Time_management-amico" data-name="Time management-amico" transform="translate(-10.35 -39.47)">
    <g id="freepik--Floor--inject-1--inject-193">
      <ellipse id="freepik--floor--inject-1--inject-193-2" data-name="freepik--floor--inject-1--inject-193" cx="239.65" cy="138.36" rx="239.65" ry="138.36" transform="translate(10.35 206.06)" fill="#f5f5f5"/>
    </g>
    <g id="freepik--Shadows--inject-1--inject-193">
      <path id="freepik--Shadow--inject-1--inject-193" d="M213.53,421.53l71.39,41.22a3.83,3.83,0,0,0,3.46,0l96.35-55.63c1-.55,1-1.44,0-2l-71.39-41.21a3.79,3.79,0,0,0-3.47,0l-96.34,55.62a1.05,1.05,0,0,0,0,2Z" fill="#e0e0e0"/>
      <path id="freepik--shadow--inject-1--inject-193-2" data-name="freepik--shadow--inject-1--inject-193" d="M317,331.87l54.42,31.4a3.83,3.83,0,0,0,3.46,0l76.42-44c1-.55,1-1.44,0-2l-54.41-31.39a3.79,3.79,0,0,0-3.47,0L317,329.87a1.06,1.06,0,0,0,0,2Z" fill="#e0e0e0"/>
      <path id="freepik--shadow--inject-1--inject-193-3" data-name="freepik--shadow--inject-1--inject-193" d="M452.59,343.5l-4.69-2.71a2.84,2.84,0,0,0-2.86,0l-53.75,31.5-6.37,7.5,13.27-3.52,54.4-31.41a.79.79,0,0,0,0-1.36Z" fill="#455a64" opacity="0.1"/>
      <path id="freepik--shadow--inject-1--inject-193-4" data-name="freepik--shadow--inject-1--inject-193" d="M149.85,431.44a27.5,27.5,0,0,1-13.73-3.36l-.64-.39a2.69,2.69,0,0,1-1.23-2.85,2.94,2.94,0,0,1,2.68-2.23l13.9-2,.74-1.55-3.33-1.95-13.66,2h-.49a3.32,3.32,0,0,1-2.79-5.1,14.07,14.07,0,0,1,5-4.54,27.76,27.76,0,0,1,13.5-3.23,32.079,32.079,0,0,1,5.58.48l58-33.48a8.49,8.49,0,0,1-.11-4.5c.72-2.87,2.87-5.4,6.22-7.3a29.78,29.78,0,0,1,27.25.12l.64.39a2.7,2.7,0,0,1,1.22,2.85A2.94,2.94,0,0,1,246,367l-13.91,2-.74,1.55,3.33,1.95,13.66-2a2.766,2.766,0,0,1,.49,0,3.32,3.32,0,0,1,2.79,5.1,14.089,14.089,0,0,1-5,4.55,27.749,27.749,0,0,1-13.5,3.22,32.08,32.08,0,0,1-5.58-.48l-58,33.48a8.53,8.53,0,0,1,.11,4.51c-.72,2.87-2.87,5.39-6.22,7.3a27.86,27.86,0,0,1-13.58,3.26Z" fill="#e0e0e0"/>
      <path id="freepik--shadow--inject-1--inject-193-5" data-name="freepik--shadow--inject-1--inject-193" d="M268.61,316.55l-43.84-25.31a1.25,1.25,0,0,1,0-2.36L341,221.76a4.51,4.51,0,0,1,4.08,0L389,247.07a1.25,1.25,0,0,1,0,2.36L272.69,316.55a4.51,4.51,0,0,1-4.08,0Z" fill="#e0e0e0"/>
      <path id="freepik--shadow--inject-1--inject-193-6" data-name="freepik--shadow--inject-1--inject-193" d="M104.22,416.49l129-74.38c4.78-2.76,4.78-7.24,0-10l-43.61-25.18c-4.78-2.76-12.54-2.76-17.32,0l-129,74.38c-4.78,2.77-4.78,7.24,0,10L86.9,416.49C91.68,419.25,99.44,419.25,104.22,416.49Z" fill="#e0e0e0"/>
    </g>
    <g id="freepik--Calendar--inject-1--inject-193">
      <g id="freepik--calendar--inject-1--inject-193-2" data-name="freepik--calendar--inject-1--inject-193">
        <g id="freepik--calendar--inject-1--inject-193-3" data-name="freepik--calendar--inject-1--inject-193">
          <path id="パス_1" data-name="パス 1" d="M231.89,292.08a1.89,1.89,0,0,1-.8-2L250.31,205a3.58,3.58,0,0,1,1.47-2l114.4-66a2.52,2.52,0,0,1,2.27,0,1.91,1.91,0,0,1,.81,2L350,224a3.49,3.49,0,0,1-1.47,2L234.16,292A2.52,2.52,0,0,1,231.89,292.08Z" fill="#90caf9"/>
          <path id="パス_2" data-name="パス 2" d="M231.89,292.08a1.89,1.89,0,0,1-.8-2L250.31,205a3.58,3.58,0,0,1,1.47-2l114.4-66a2.52,2.52,0,0,1,2.27,0,1.91,1.91,0,0,1,.81,2L350,224a3.49,3.49,0,0,1-1.47,2L234.16,292A2.52,2.52,0,0,1,231.89,292.08Z" fill="#fff" opacity="0.8"/>
          <path id="パス_3" data-name="パス 3" d="M252.51,206.29l-19.22,85.1c-.17.73.23,1,.87.65L348.56,226a3.49,3.49,0,0,0,1.47-2l19.23-85.1c.16-.73-.23-1-.88-.64L254,204.29a3.55,3.55,0,0,0-1.49,2Z" fill="#90caf9"/>
          <path id="パス_4" data-name="パス 4" d="M252.51,206.29l-19.22,85.1c-.17.73.23,1,.87.65L348.56,226a3.49,3.49,0,0,0,1.47-2l19.23-85.1c.16-.73-.23-1-.88-.64L254,204.29a3.55,3.55,0,0,0-1.49,2Z" fill="#fff" opacity="0.6"/>
          <path id="パス_5" data-name="パス 5" d="M252.51,206.29l-19.22,85.1c-.17.73.23,1,.87.65L348.56,226a3.49,3.49,0,0,0,1.47-2l19.23-85.1c.16-.73-.23-1-.88-.64L254,204.29a3.55,3.55,0,0,0-1.49,2Z" opacity="0.05"/>
          <path id="パス_6" data-name="パス 6" d="M370.66,138.2a2.51,2.51,0,0,0-2.28.05L254,204.29a2.15,2.15,0,0,0-1,2L268,311.7a3.1,3.1,0,0,0,1.29,2,2.54,2.54,0,0,0,2.28,0L386,247.61a2.17,2.17,0,0,0,1-2L372,140.18A3.1,3.1,0,0,0,370.66,138.2Z" fill="#90caf9"/>
          <path id="パス_7" data-name="パス 7" d="M370.66,138.2a2.51,2.51,0,0,0-2.28.05L254,204.29a2.15,2.15,0,0,0-1,2L268,311.7a3.1,3.1,0,0,0,1.29,2,2.54,2.54,0,0,0,2.28,0L386,247.61a2.17,2.17,0,0,0,1-2L372,140.18A3.1,3.1,0,0,0,370.66,138.2Z" fill="#fff" opacity="0.8"/>
          <path id="パス_8" data-name="パス 8" d="M255.21,207.58l15,105.41a.86.86,0,0,0,1.37.67L386,247.61a2.17,2.17,0,0,0,1-2L372,140.18a.85.85,0,0,0-1.37-.66l-114.39,66a2.16,2.16,0,0,0-1.03,2.06Z" fill="#90caf9"/>
          <path id="パス_9" data-name="パス 9" d="M255.21,207.58l15,105.41a.86.86,0,0,0,1.37.67L386,247.61a2.17,2.17,0,0,0,1-2L372,140.18a.85.85,0,0,0-1.37-.66l-114.39,66a2.16,2.16,0,0,0-1.03,2.06Z" fill="#fff" opacity="0.95"/>
          <path id="パス_10" data-name="パス 10" d="M263.54,280.17l-13.43,7.75h0a2,2,0,0,0-.83,0l-15.85,3.05h0L262.67,274Z" fill="#90caf9"/>
          <path id="パス_11" data-name="パス 11" d="M263.54,280.17l-13.43,7.75h0a2,2,0,0,0-.83,0l-15.85,3.05h0L262.67,274Z" fill="#fff" opacity="0.5"/>
          <path id="パス_12" data-name="パス 12" d="M263.54,280.17l-13.43,7.75h0a2,2,0,0,0-.83,0l-15.85,3.05h0L262.67,274Z" opacity="0.2"/>
          <path id="パス_13" data-name="パス 13" d="M267.92,310.9l-16.5-22.24a2.26,2.26,0,0,0-1.25-.78l13.37-7.71Z" fill="#90caf9"/>
          <path id="パス_14" data-name="パス 14" d="M267.92,310.9l-16.5-22.24a2.26,2.26,0,0,0-1.25-.78l13.37-7.71Z" fill="#fff" opacity="0.6"/>
          <path id="パス_15" data-name="パス 15" d="M267.92,310.9l-16.5-22.24a2.26,2.26,0,0,0-1.25-.78l13.37-7.71Z" opacity="0.1"/>
          <path id="パス_16" data-name="パス 16" d="M267.41,311.94l-16-20.75a2.59,2.59,0,0,0-2.17-.88l-14.94,2.16a4.4,4.4,0,0,1-2.44-.44c-.61-.35-.51-.75.23-.89l17.16-3.31a2.34,2.34,0,0,1,2.14.84l18.21,24.52c.44.61.31.81-.3.46A8,8,0,0,1,267.41,311.94Z" fill="#90caf9"/>
          <path id="パス_17" data-name="パス 17" d="M267.41,311.94l-16-20.75a2.59,2.59,0,0,0-2.17-.88l-14.94,2.16a4.4,4.4,0,0,1-2.44-.44c-.61-.35-.51-.75.23-.89l17.16-3.31a2.34,2.34,0,0,1,2.14.84l18.21,24.52c.44.61.31.81-.3.46A8,8,0,0,1,267.41,311.94Z" fill="#fff" opacity="0.8"/>
          <path id="パス_18" data-name="パス 18" d="M369.29,138.47a1.86,1.86,0,0,0-.83-1.54,2.54,2.54,0,0,0-2.28,0L251.78,203a3.61,3.61,0,0,0-1.47,2l-2.71,12,2.2,1.27,116.74-67.4,2.72-12a2.132,2.132,0,0,0,0-.42Z" fill="#90caf9"/>
          <path id="パス_19" data-name="パス 19" d="M369.26,138.89c.16-.73-.23-1-.88-.64L254,204.29a3.55,3.55,0,0,0-1.48,2l-2.71,12,116.74-67.4Z" opacity="0.6"/>
          <path id="パス_20" data-name="パス 20" d="M253.09,205.13a3.13,3.13,0,0,0-.57,1.16l-2.72,12L247.6,217l2.71-12a3.24,3.24,0,0,1,.58-1.16Z" opacity="0.5"/>
          <path id="パス_21" data-name="パス 21" d="M369.29,138.47c-.05-.41-.41-.52-.91-.22L254,204.29a3.08,3.08,0,0,0-.9.84l-2.2-1.27a3.18,3.18,0,0,1,.89-.84L366.18,137a2.54,2.54,0,0,1,2.28,0,1.86,1.86,0,0,1,.83,1.47Z" opacity="0.2"/>
          <path id="パス_22" data-name="パス 22" d="M372.09,141.19h0l-.14-1v-.15h0a3.13,3.13,0,0,0-1.25-1.79,2.51,2.51,0,0,0-2.28.05L254,204.29a2,2,0,0,0-.79.9h0a2,2,0,0,0-.2,1.12l2.16,15.1,2.2,1.28,116.75-67.4Z" fill="#90caf9"/>
          <path id="パス_23" data-name="パス 23" d="M374.11,155.29l-116.75,67.4-2.15-15.11a2,2,0,0,1,.19-1.12,2.17,2.17,0,0,1,.79-.9l114.4-66a.83.83,0,0,1,1.31.43v.16l.14,1h0Z" opacity="0.4"/>
          <path id="パス_24" data-name="パス 24" d="M257.36,222.69l-2.2-1.28L253,206.31a2,2,0,0,1,.2-1.12l2.21,1.27a2,2,0,0,0-.2,1.12Z" opacity="0.5"/>
          <path id="パス_25" data-name="パス 25" d="M371.91,140a.83.83,0,0,0-1.32-.47l-114.4,66a2,2,0,0,0-.78.9l-2.21-1.27a2,2,0,0,1,.79-.9l114.39-66a2.51,2.51,0,0,1,2.28-.05,3,3,0,0,1,1.25,1.79Z" opacity="0.3"/>
          <g id="グループ_1" data-name="グループ 1" opacity="0.2">
            <path id="パス_26" data-name="パス 26" d="M265.7,207.7a3.94,3.94,0,0,1,1.86-3.62c1.22-.7,2.35-.22,2.54,1.08a3.93,3.93,0,0,1-1.87,3.62,1.54,1.54,0,0,1-2.53-1.08Z"/>
            <path id="パス_27" data-name="パス 27" d="M281.13,198.8a3.91,3.91,0,0,1,1.87-3.62c1.21-.71,2.35-.22,2.53,1.07a3.94,3.94,0,0,1-1.86,3.63C282.45,200.58,281.31,200.1,281.13,198.8Z"/>
            <path id="パス_28" data-name="パス 28" d="M296.54,189.9a3.92,3.92,0,0,1,1.86-3.62c1.22-.7,2.35-.22,2.54,1.08a4,4,0,0,1-1.87,3.62C297.86,191.68,296.72,191.2,296.54,189.9Z"/>
            <path id="パス_29" data-name="パス 29" d="M327.37,172.1a3.92,3.92,0,0,1,1.86-3.62c1.22-.7,2.35-.22,2.54,1.08a3.94,3.94,0,0,1-1.87,3.62C328.69,173.88,327.55,173.4,327.37,172.1Z"/>
            <path id="パス_30" data-name="パス 30" d="M342.8,163.19a3.91,3.91,0,0,1,1.87-3.62c1.21-.7,2.35-.22,2.53,1.08a3.92,3.92,0,0,1-1.86,3.62A1.544,1.544,0,0,1,342.8,163.19Z"/>
            <path id="パス_31" data-name="パス 31" d="M358.21,154.29a3.94,3.94,0,0,1,1.86-3.62c1.22-.7,2.35-.22,2.54,1.08a3.93,3.93,0,0,1-1.87,3.62C359.53,156.07,358.39,155.59,358.21,154.29Z"/>
          </g>
          <path id="パス_32" data-name="パス 32" d="M270.37,203.06a7.232,7.232,0,0,1-.12,1.33,6.557,6.557,0,0,1-.17.67,4.08,4.08,0,0,1-1.84,2.46,3.81,3.81,0,0,1-1.95.51h-.54l-.06-.29a3.47,3.47,0,0,1,.29-1.77,2,2,0,0,0,1.23-.21,2.56,2.56,0,0,0,1-1.92.381.381,0,0,0,0-.1,6.124,6.124,0,0,0,0-.65,10.68,10.68,0,0,0-2.06-5.85,11.369,11.369,0,0,0-1.46-1.69,8.28,8.28,0,0,0-1.47-1.1,3,3,0,0,0-2.86-.39,2.92,2.92,0,0,0-1.1,2.67,8,8,0,0,0,.23,1.82l-1.85,1.07v-.12a10.39,10.39,0,0,1-.41-2.77,4.84,4.84,0,0,1,2.14-4.46c1.37-.79,3.11-.65,4.93.39a10.141,10.141,0,0,1,2.27,1.83,12.529,12.529,0,0,1,1.39,1.73,12.83,12.83,0,0,1,2.41,6.84Z" fill="#37474f"/>
          <path id="パス_33" data-name="パス 33" d="M285.8,194.15a7.148,7.148,0,0,1-.12,1.33,5,5,0,0,1-.16.69,4.12,4.12,0,0,1-1.85,2.44,3.81,3.81,0,0,1-1.95.51h-.53a1.36,1.36,0,0,1-.06-.29,3.37,3.37,0,0,1,.28-1.77,2,2,0,0,0,1.23-.21,2.51,2.51,0,0,0,1-1.92.31.31,0,0,0,0-.09,4.412,4.412,0,0,0,0-.66,11.49,11.49,0,0,0-3.52-7.54,7.931,7.931,0,0,0-1.47-1.1,3,3,0,0,0-2.86-.38,2.91,2.91,0,0,0-1.1,2.66,8,8,0,0,0,.23,1.82l-1.85,1.07v-.12a10.36,10.36,0,0,1-.4-2.77,4.84,4.84,0,0,1,2.13-4.46c1.37-.79,3.12-.65,4.93.39a10.14,10.14,0,0,1,2.27,1.83,13.85,13.85,0,0,1,1.39,1.73,12.75,12.75,0,0,1,2.41,6.84Z" fill="#37474f"/>
          <path id="パス_34" data-name="パス 34" d="M301.2,185.25a8.359,8.359,0,0,1-.11,1.34,5.2,5.2,0,0,1-.17.68,4,4,0,0,1-1.84,2.44,3.82,3.82,0,0,1-1.95.52,3.152,3.152,0,0,1-.53,0,1.363,1.363,0,0,1-.06-.29,3.37,3.37,0,0,1,.28-1.77,1.88,1.88,0,0,0,1.22-.21,2.5,2.5,0,0,0,1-1.92.281.281,0,0,0,0-.09,4.336,4.336,0,0,0,0-.66,10.73,10.73,0,0,0-2.06-5.84,10.892,10.892,0,0,0-1.46-1.69,8.351,8.351,0,0,0-1.47-1.11,3,3,0,0,0-2.86-.38,2.91,2.91,0,0,0-1.1,2.67,8,8,0,0,0,.23,1.82l-1.86,1.07v-.13a10.368,10.368,0,0,1-.41-2.76c0-2.09.76-3.67,2.13-4.46a4.837,4.837,0,0,1,4.93.39,10.36,10.36,0,0,1,2.28,1.82,13.852,13.852,0,0,1,1.39,1.73A12.82,12.82,0,0,1,301.2,185.25Z" fill="#37474f"/>
          <path id="パス_35" data-name="パス 35" d="M332,167.48a7.241,7.241,0,0,1-.11,1.33,7,7,0,0,1-.17.69,4.12,4.12,0,0,1-1.85,2.44,3.85,3.85,0,0,1-1.94.51,3.08,3.08,0,0,1-.53,0,1.552,1.552,0,0,1-.07-.31,3.41,3.41,0,0,1,.27-1.75,2,2,0,0,0,1.24-.2,2.55,2.55,0,0,0,1.05-2,.15.15,0,0,1,0-.07,6.174,6.174,0,0,0,0-.65,10.76,10.76,0,0,0-2.07-5.87,10.87,10.87,0,0,0-1.47-1.69,8.151,8.151,0,0,0-1.45-1.08,3,3,0,0,0-2.86-.39,2.94,2.94,0,0,0-1.09,2.67,7.742,7.742,0,0,0,.22,1.79L319.4,164v-.1a10.369,10.369,0,0,1-.41-2.76c0-2.09.76-3.67,2.13-4.46a4.84,4.84,0,0,1,4.93.39,9.72,9.72,0,0,1,2.26,1.81,14.09,14.09,0,0,1,1.4,1.73A12.87,12.87,0,0,1,332,167.48Z" fill="#37474f"/>
          <path id="パス_36" data-name="パス 36" d="M347.48,158.57a7.338,7.338,0,0,1-.12,1.34c-.05.24-.1.46-.17.69a4,4,0,0,1-1.84,2.43,3.81,3.81,0,0,1-2,.51,4.71,4.71,0,0,1-.53,0,1.649,1.649,0,0,1-.07-.32,3.34,3.34,0,0,1,.27-1.74,1.93,1.93,0,0,0,1.24-.21,2.52,2.52,0,0,0,1.05-2,.15.15,0,0,0,0-.07,6,6,0,0,0,0-.65,10.63,10.63,0,0,0-2.08-5.86,11,11,0,0,0-1.46-1.7,8.519,8.519,0,0,0-1.45-1.08,3,3,0,0,0-2.86-.38,2.89,2.89,0,0,0-1.1,2.67,8.309,8.309,0,0,0,.22,1.78l-1.85,1.08v-.1a10.37,10.37,0,0,1-.41-2.76c0-2.09.76-3.68,2.14-4.46a4.86,4.86,0,0,1,4.92.38A10,10,0,0,1,343.7,150h0a13.919,13.919,0,0,1,1.4,1.73,12.82,12.82,0,0,1,2.38,6.84Z" fill="#37474f"/>
          <path id="パス_37" data-name="パス 37" d="M362.88,149.67a7.338,7.338,0,0,1-.12,1.34,6.559,6.559,0,0,1-.16.67,4.11,4.11,0,0,1-1.85,2.46,3.88,3.88,0,0,1-1.95.5h-.52a1.652,1.652,0,0,1-.07-.32,3.37,3.37,0,0,1,.27-1.74,2,2,0,0,0,1.24-.21,2.53,2.53,0,0,0,1-2,.13.13,0,0,0,0-.06,4.412,4.412,0,0,0,0-.66,10.65,10.65,0,0,0-2.07-5.86,10.94,10.94,0,0,0-1.47-1.69,8,8,0,0,0-1.44-1.09,3,3,0,0,0-2.86-.38,2.89,2.89,0,0,0-1.1,2.67,7.742,7.742,0,0,0,.22,1.79l-1.86,1.07v-.1a10.37,10.37,0,0,1-.41-2.76c0-2.09.76-3.67,2.13-4.46a4.86,4.86,0,0,1,4.93.38,10,10,0,0,1,2.25,1.81,12.543,12.543,0,0,1,1.4,1.74A12.79,12.79,0,0,1,362.88,149.67Z" fill="#37474f"/>
          <path id="パス_38" data-name="パス 38" d="M259.91,240.44,376.64,173.1l-2.53-17.81L257.36,222.64Z" fill="#90caf9"/>
          <g id="グループ_2" data-name="グループ 2" opacity="0.65">
            <path id="パス_39" data-name="パス 39" d="M259.91,240.44,376.64,173.1l-2.53-17.81L257.36,222.64Z" fill="#fff"/>
          </g>
          <path id="パス_40" data-name="パス 40" d="M269.11,244.76c.15,1,1.06,1.32,2,.75l8.76-5a3.1,3.1,0,0,0,1.52-2.81c-.14-1-1.05-1.32-2-.75l-8.76,5A3.11,3.11,0,0,0,269.11,244.76Z" fill="#90caf9"/>
          <path id="パス_41" data-name="パス 41" d="M283.89,236.23c.14,1,1.05,1.32,2,.75l8.76-5a3.09,3.09,0,0,0,1.53-2.81c-.14-1-1-1.32-2-.75l-8.76,5A3.09,3.09,0,0,0,283.89,236.23Z" fill="#90caf9"/>
          <path id="パス_42" data-name="パス 42" d="M298.67,227.7c.14,1,1.05,1.32,2,.75l8.76-5a3.08,3.08,0,0,0,1.52-2.81c-.14-1-1.05-1.32-2-.75l-8.76,5a3.09,3.09,0,0,0-1.52,2.81Z" fill="#90caf9"/>
          <path id="パス_43" data-name="パス 43" d="M313.44,219.17c.14,1,1.05,1.32,2,.75l8.76-5.06a3.07,3.07,0,0,0,1.52-2.8c-.14-1-1.05-1.32-2-.76L315,216.36a3.08,3.08,0,0,0-1.56,2.81Z" fill="#90caf9"/>
          <path id="パス_44" data-name="パス 44" d="M328.22,210.63c.14,1,1,1.32,2,.76l8.76-5.06a3.09,3.09,0,0,0,1.53-2.8c-.14-1-1.05-1.32-2-.76l-8.76,5.06A3.08,3.08,0,0,0,328.22,210.63Z" fill="#90caf9"/>
          <path id="パス_45" data-name="パス 45" d="M343,202.1c.14,1,1.05,1.32,2,.76l8.76-5.06a3.09,3.09,0,0,0,1.52-2.81c-.14-1-1.05-1.32-2-.75l-8.76,5.06a3.08,3.08,0,0,0-1.52,2.8Z" fill="#90caf9"/>
          <path id="パス_46" data-name="パス 46" d="M357.77,193.57c.14,1,1.05,1.32,2,.75l8.76-5a3.08,3.08,0,0,0,1.53-2.81c-.14-1-1-1.32-2-.75l-8.76,5.06a3.07,3.07,0,0,0-1.53,2.75Z" fill="#90caf9"/>
          <g id="グループ_3" data-name="グループ 3" opacity="0.17">
            <path id="パス_47" data-name="パス 47" d="M379.8,244.86a.46.46,0,0,1-.49-.36l-7.14-49.84a.37.37,0,0,1,.39-.4.49.49,0,0,1,.5.36l7.13,49.84a.37.37,0,0,1-.39.4Z" fill="#90caf9"/>
            <path id="パス_48" data-name="パス 48" d="M365,253.4a.46.46,0,0,1-.49-.36l-7.14-49.84a.37.37,0,0,1,.39-.4.46.46,0,0,1,.49.36L365.41,253a.37.37,0,0,1-.41.4Z" fill="#90caf9"/>
            <path id="パス_49" data-name="パス 49" d="M350.24,261.93a.48.48,0,0,1-.5-.36l-7.13-49.84a.37.37,0,0,1,.38-.4.47.47,0,0,1,.5.36l7.14,49.84a.37.37,0,0,1-.39.4Z" fill="#90caf9"/>
            <path id="パス_50" data-name="パス 50" d="M335.46,270.47a.48.48,0,0,1-.5-.37l-7.14-49.84a.37.37,0,0,1,.39-.39.47.47,0,0,1,.5.36l7.13,49.84a.37.37,0,0,1-.38.4Z" fill="#90caf9"/>
            <path id="パス_51" data-name="パス 51" d="M320.68,279a.47.47,0,0,1-.5-.36L313,228.8a.37.37,0,0,1,.39-.4.48.48,0,0,1,.5.36l7.13,49.84a.37.37,0,0,1-.34.4Z" fill="#90caf9"/>
            <path id="パス_52" data-name="パス 52" d="M305.89,287.54a.47.47,0,0,1-.49-.37l-7.14-49.84a.378.378,0,0,1,.39-.39.46.46,0,0,1,.49.36l7.14,49.84a.37.37,0,0,1-.39.4Z" fill="#90caf9"/>
            <path id="パス_53" data-name="パス 53" d="M291.11,296.07a.48.48,0,0,1-.5-.36l-7.13-49.84a.37.37,0,0,1,.39-.4.46.46,0,0,1,.49.36l7.14,49.84a.37.37,0,0,1-.39.4Z" fill="#90caf9"/>
            <path id="パス_54" data-name="パス 54" d="M276.33,304.6a.47.47,0,0,1-.5-.36l-7.14-49.84a.38.38,0,0,1,.39-.4.48.48,0,0,1,.5.37l7.14,49.84a.37.37,0,0,1-.39.39Z" fill="#90caf9"/>
            <path id="パス_55" data-name="パス 55" d="M271,267.22a.47.47,0,0,1-.41-.17.33.33,0,0,1,.08-.52l103.48-59.75a.51.51,0,0,1,.62.12.33.33,0,0,1-.09.52L271.19,267.16a.42.42,0,0,1-.19.06Z" fill="#90caf9"/>
            <path id="パス_56" data-name="パス 56" d="M272.76,279.68a.5.5,0,0,1-.41-.17.33.33,0,0,1,.09-.52l103.47-59.75a.52.52,0,0,1,.63.12.34.34,0,0,1-.09.52L273,279.62A.39.39,0,0,1,272.76,279.68Z" fill="#90caf9"/>
            <path id="パス_57" data-name="パス 57" d="M274.54,292.14a.5.5,0,0,1-.41-.17.34.34,0,0,1,.09-.53L377.7,231.7a.51.51,0,0,1,.62.12.33.33,0,0,1-.09.52L274.76,292.08A.43.43,0,0,1,274.54,292.14Z" fill="#90caf9"/>
            <path id="パス_58" data-name="パス 58" d="M276.33,304.6a.45.45,0,0,1-.23,0,.41.41,0,0,1-.27-.32l-7.14-49.84a.36.36,0,0,1,.18-.34l103.47-59.74a.51.51,0,0,1,.45,0,.44.44,0,0,1,.27.31l7.13,49.84a.34.34,0,0,1-.17.34L276.54,304.54A.37.37,0,0,1,276.33,304.6Zm-6.72-50,7,49,102.66-59.27-7-49Z" fill="#90caf9"/>
          </g>
          <g id="グループ_4" data-name="グループ 4" opacity="0.17">
            <path id="パス_59" data-name="パス 59" d="M379.8,244.86a.46.46,0,0,1-.49-.36l-7.14-49.84a.37.37,0,0,1,.39-.4.49.49,0,0,1,.5.36l7.13,49.84a.37.37,0,0,1-.39.4Z"/>
            <path id="パス_60" data-name="パス 60" d="M365,253.4a.46.46,0,0,1-.49-.36l-7.14-49.84a.37.37,0,0,1,.39-.4.46.46,0,0,1,.49.36L365.41,253a.37.37,0,0,1-.41.4Z"/>
            <path id="パス_61" data-name="パス 61" d="M350.24,261.93a.48.48,0,0,1-.5-.36l-7.13-49.84a.37.37,0,0,1,.38-.4.47.47,0,0,1,.5.36l7.14,49.84a.37.37,0,0,1-.39.4Z"/>
            <path id="パス_62" data-name="パス 62" d="M335.46,270.47a.48.48,0,0,1-.5-.37l-7.14-49.84a.37.37,0,0,1,.39-.39.47.47,0,0,1,.5.36l7.13,49.84a.37.37,0,0,1-.38.4Z"/>
            <path id="パス_63" data-name="パス 63" d="M320.68,279a.47.47,0,0,1-.5-.36L313,228.8a.37.37,0,0,1,.39-.4.48.48,0,0,1,.5.36l7.13,49.84a.37.37,0,0,1-.34.4Z"/>
            <path id="パス_64" data-name="パス 64" d="M305.89,287.54a.47.47,0,0,1-.49-.37l-7.14-49.84a.378.378,0,0,1,.39-.39.46.46,0,0,1,.49.36l7.14,49.84a.37.37,0,0,1-.39.4Z"/>
            <path id="パス_65" data-name="パス 65" d="M291.11,296.07a.48.48,0,0,1-.5-.36l-7.13-49.84a.37.37,0,0,1,.39-.4.46.46,0,0,1,.49.36l7.14,49.84a.37.37,0,0,1-.39.4Z"/>
            <path id="パス_66" data-name="パス 66" d="M276.33,304.6a.47.47,0,0,1-.5-.36l-7.14-49.84a.38.38,0,0,1,.39-.4.48.48,0,0,1,.5.37l7.14,49.84a.37.37,0,0,1-.39.39Z"/>
            <path id="パス_67" data-name="パス 67" d="M271,267.22a.47.47,0,0,1-.41-.17.33.33,0,0,1,.08-.52l103.48-59.75a.51.51,0,0,1,.62.12.33.33,0,0,1-.09.52L271.19,267.16a.42.42,0,0,1-.19.06Z"/>
            <path id="パス_68" data-name="パス 68" d="M272.76,279.68a.5.5,0,0,1-.41-.17.33.33,0,0,1,.09-.52l103.47-59.75a.52.52,0,0,1,.63.12.34.34,0,0,1-.09.52L273,279.62A.39.39,0,0,1,272.76,279.68Z"/>
            <path id="パス_69" data-name="パス 69" d="M274.54,292.14a.5.5,0,0,1-.41-.17.34.34,0,0,1,.09-.53L377.7,231.7a.51.51,0,0,1,.62.12.33.33,0,0,1-.09.52L274.76,292.08A.43.43,0,0,1,274.54,292.14Z"/>
            <path id="パス_70" data-name="パス 70" d="M276.33,304.6a.45.45,0,0,1-.23,0,.41.41,0,0,1-.27-.32l-7.14-49.84a.36.36,0,0,1,.18-.34l103.47-59.74a.51.51,0,0,1,.45,0,.44.44,0,0,1,.27.31l7.13,49.84a.34.34,0,0,1-.17.34L276.54,304.54A.37.37,0,0,1,276.33,304.6Zm-6.72-50,7,49,102.66-59.27-7-49Z"/>
          </g>
        </g>
        <path id="パス_71" data-name="パス 71" d="M302.23,207.88a7.38,7.38,0,0,1-.23,1.85,6.671,6.671,0,0,1-.63,1.6,5.81,5.81,0,0,1-.92,1.28,5.249,5.249,0,0,1-1.1.88,2.86,2.86,0,0,1-1.15.41,1.47,1.47,0,0,1-.9-.18,1.51,1.51,0,0,1-.6-.76,3.55,3.55,0,0,1-.23-1.32.66.66,0,0,1,.06-.27.35.35,0,0,1,.15-.18l1.24-.72c.12-.07.2-.08.24-.05a.68.68,0,0,1,.12.28.8.8,0,0,0,.36.56c.16.08.4,0,.71-.15a2.09,2.09,0,0,0,.83-.91,3.24,3.24,0,0,0,.27-1.38v-4.16l-3.3,1.91a.15.15,0,0,1-.19,0,.33.33,0,0,1-.07-.24v-1.58a.74.74,0,0,1,.07-.32.5.5,0,0,1,.19-.23l4.85-2.8a.14.14,0,0,1,.18,0,.29.29,0,0,1,.08.24Z" fill="#455a64"/>
        <path id="パス_72" data-name="パス 72" d="M303.51,208.74a4,4,0,0,1,.49-1.91,6.521,6.521,0,0,1,1.59-1.86l1.13-.95a.76.76,0,0,0-.13-.51c-.08-.11-.23-.1-.43,0a1.13,1.13,0,0,0-.35.29,2.625,2.625,0,0,0-.17.28,1.07,1.07,0,0,1-.17.24.861.861,0,0,1-.18.14l-1.23.71a.15.15,0,0,1-.16,0,.25.25,0,0,1,0-.21,2.651,2.651,0,0,1,.19-.82,5.81,5.81,0,0,1,.48-1,6.189,6.189,0,0,1,.72-.94,4.16,4.16,0,0,1,.92-.73,2.4,2.4,0,0,1,1-.37,1,1,0,0,1,.72.2,1.35,1.35,0,0,1,.42.7,4,4,0,0,1,.14,1.12v4.51a.72.72,0,0,1-.08.32.49.49,0,0,1-.18.23l-1.22.7a.14.14,0,0,1-.18,0,.33.33,0,0,1-.08-.24v-.41a5,5,0,0,1-.58,1,3.13,3.13,0,0,1-.9.78,1.66,1.66,0,0,1-.74.25.8.8,0,0,1-.54-.18,1.2,1.2,0,0,1-.34-.55,3.231,3.231,0,0,1-.14-.79Zm2.2-.94a1.27,1.27,0,0,0,.4-.34,2.441,2.441,0,0,0,.32-.49,2.779,2.779,0,0,0,.21-.57,2.61,2.61,0,0,0,.08-.6l-.89.72a2.14,2.14,0,0,0-.42.49,1.06,1.06,0,0,0-.16.56c0,.19,0,.29.12.32s.19,0,.34-.09Z" fill="#455a64"/>
        <path id="パス_73" data-name="パス 73" d="M315.17,203.8a.67.67,0,0,1-.08.33.49.49,0,0,1-.18.23l-1.22.7a.14.14,0,0,1-.18,0,.33.33,0,0,1-.08-.24V201a1.59,1.59,0,0,0-.2-.91c-.14-.18-.35-.18-.64,0a1.44,1.44,0,0,0-.63.76,2.9,2.9,0,0,0-.2,1.14v3.76a.8.8,0,0,1-.08.33.49.49,0,0,1-.18.23l-1.22.7a.15.15,0,0,1-.19,0,.33.33,0,0,1-.07-.24v-6.94a.78.78,0,0,1,.07-.33.53.53,0,0,1,.19-.22l1.17-.68a.14.14,0,0,1,.18,0,.3.3,0,0,1,.08.23v.35c.05-.13.12-.27.19-.43a3.683,3.683,0,0,1,.28-.45,3.78,3.78,0,0,1,.38-.43,2.78,2.78,0,0,1,.51-.37,1.91,1.91,0,0,1,.85-.29.86.86,0,0,1,.67.23,1.81,1.81,0,0,1,.43.81,5.59,5.59,0,0,1,.15,1.43Z" fill="#455a64"/>
        <path id="パス_74" data-name="パス 74" d="M316.68,196a.79.79,0,0,1,.08-.32.49.49,0,0,1,.18-.23l1.22-.7a.14.14,0,0,1,.18,0,.33.33,0,0,1,.08.24v3.77a1.79,1.79,0,0,0,.18.92c.13.19.33.2.61,0a1.34,1.34,0,0,0,.61-.73,3.31,3.31,0,0,0,.18-1.13v-3.77a.78.78,0,0,1,.07-.33.47.47,0,0,1,.19-.22l1.22-.71a.14.14,0,0,1,.18,0,.32.32,0,0,1,.08.23V200a.8.8,0,0,1-.08.33.54.54,0,0,1-.18.23l-1.13.64a.14.14,0,0,1-.18,0,.33.33,0,0,1-.08-.24v-.34a3.153,3.153,0,0,1-.19.43,2.611,2.611,0,0,1-.27.44,3.78,3.78,0,0,1-.38.43,3,3,0,0,1-.52.38c-.63.36-1.12.38-1.49,0a3.08,3.08,0,0,1-.56-2.25Z" fill="#455a64"/>
        <path id="パス_75" data-name="パス 75" d="M323,197.47a4.07,4.07,0,0,1,.49-1.9,6.72,6.72,0,0,1,1.59-1.86l1.13-1a.83.83,0,0,0-.12-.51c-.09-.11-.23-.1-.44,0a1,1,0,0,0-.34.29,3,3,0,0,0-.18.28,1.091,1.091,0,0,1-.16.24.94.94,0,0,1-.19.14l-1.23.71a.15.15,0,0,1-.16,0,.3.3,0,0,1,0-.21,2.749,2.749,0,0,1,.2-.83,5.287,5.287,0,0,1,.47-1,7,7,0,0,1,.73-.94,3.9,3.9,0,0,1,.91-.73,2.48,2.48,0,0,1,1-.37,1,1,0,0,1,.72.2,1.35,1.35,0,0,1,.42.7,4,4,0,0,1,.14,1.12v4.51a.72.72,0,0,1-.08.32.45.45,0,0,1-.19.23l-1.21.7h-.19a.33.33,0,0,1-.08-.24V197a4.541,4.541,0,0,1-.57,1,3,3,0,0,1-.91.78,1.62,1.62,0,0,1-.74.25.84.84,0,0,1-.54-.18,1.28,1.28,0,0,1-.33-.55A2.88,2.88,0,0,1,323,197.47Zm2.21-.93a1.36,1.36,0,0,0,.39-.34,2.07,2.07,0,0,0,.32-.49,3.545,3.545,0,0,0,.22-.57,2.6,2.6,0,0,0,.07-.61l-.89.73a2.139,2.139,0,0,0-.42.49,1.16,1.16,0,0,0-.16.56c0,.18,0,.29.12.32a.44.44,0,0,0,.36-.09Z" fill="#455a64"/>
        <path id="パス_76" data-name="パス 76" d="M333,186.15a.14.14,0,0,1,.18,0c.06,0,.08.12.08.23v1.51a.61.61,0,0,1-.08.32.49.49,0,0,1-.18.23l-.88.51a2,2,0,0,0-.89,1.88v3.66a.78.78,0,0,1-.07.33.57.57,0,0,1-.19.23l-1.22.7a.14.14,0,0,1-.18,0,.33.33,0,0,1-.08-.24v-6.94a.8.8,0,0,1,.08-.33.46.46,0,0,1,.18-.22l1.12-.65h.19a.33.33,0,0,1,.08.24V188a4.1,4.1,0,0,1,.53-.84,2.559,2.559,0,0,1,.75-.64Z" fill="#455a64"/>
        <path id="パス_77" data-name="パス 77" d="M337.06,194a1.9,1.9,0,0,1-.09.29.49.49,0,0,1-.19.23l-1.26.73a.13.13,0,0,1-.17,0,.32.32,0,0,1-.07-.22v-.11l.74-3.09L334.08,186a.311.311,0,0,1,0-.1.75.75,0,0,1,.06-.29.49.49,0,0,1,.17-.2l1.26-.73a.14.14,0,0,1,.19,0,.69.69,0,0,1,.1.19l1.07,3.25,1.06-4.49a1.249,1.249,0,0,1,.1-.29.48.48,0,0,1,.18-.23l1.28-.73a.12.12,0,0,1,.16,0,.29.29,0,0,1,.07.22.411.411,0,0,1,0,.11Z" fill="#455a64"/>
        <path id="パス_78" data-name="パス 78" d="M367.91,214.61l.87,1.23a.19.19,0,0,0,.23.07l1.47-.57c.23-.09.37.2.24.49l-.86,1.84a.49.49,0,0,0,0,.35l.5,1.61c.08.26-.13.61-.35.6l-1.4-.09a.3.3,0,0,0-.26.15l-1.16,1.56c-.19.25-.45.18-.46-.12v-1.9a.28.28,0,0,0-.13-.26l-1.21-.64c-.19-.1-.15-.5.07-.67l1.4-1.09a.57.57,0,0,0,.18-.3l.41-2C367.47,214.59,367.77,214.42,367.91,214.61Z" fill="#f28f8f"/>
        <path id="パス_79" data-name="パス 79" d="M376.44,214.13a5.09,5.09,0,0,0-3.75-4.19c-2.8-.71-4.78,1.21-6.23,2.81-.38.43.44.59.75.29,1.52-1.47,4.51-3,6.63-1.2s1.55,4.57.9,6.64a9.66,9.66,0,0,1-9.2,6.74c-10.1-.23-1.44-15.77,4.36-16.87.47-.09.71-.74.06-.8-3-.3-4.84,2.07-6.46,3.87a17.2,17.2,0,0,0-3.86,6.73c-1.33,4.64,2.41,10.11,8.63,8.07C373.72,224.43,377.53,219.4,376.44,214.13Z" fill="#f28f8f"/>
        <path id="パス_80" data-name="パス 80" d="M304.91,269.06a5.09,5.09,0,0,0-3.75-4.19c-2.8-.71-4.78,1.2-6.23,2.81-.38.42.44.58.75.29,1.52-1.47,4.51-3,6.63-1.2s1.55,4.57.9,6.64a9.66,9.66,0,0,1-9.2,6.74c-10.1-.23-1.44-15.77,4.36-16.87.47-.09.71-.74.06-.81-3-.29-4.84,2.08-6.46,3.88a17.13,17.13,0,0,0-3.86,6.73c-1.33,4.63,2.41,10.11,8.63,8.07C302.19,279.36,306,274.32,304.91,269.06Z" fill="#f28f8f"/>
      </g>
    </g>
    <g id="freepik--Gears--inject-1--inject-193">
      <g id="freepik--gears--inject-1--inject-193-2" data-name="freepik--gears--inject-1--inject-193">
        <path id="パス_81" data-name="パス 81" d="M337.35,82.21l-1.28-7.44-6.63,4.37a9.149,9.149,0,0,0-2.53-3.06l3.18-8.59-5.91-1.32-4.37,8.32A15.81,15.81,0,0,0,315.27,76l-1.89-6.27-7.08,5.56.47,7.39a39.686,39.686,0,0,0-3.92,5.17L297,87.53l-4.1,9.19,5,2.14a30,30,0,0,0-1,5.83l-6.38,5.86,1.28,7.43,6.64-4.36a9,9,0,0,0,2.52,3.06l-3.18,8.58,5.91,1.32,6.25-6.09c1.44-.22,1.09-2.94,2.66-3.7l1.89,6.26,7.08-5.56-.18-2.91c1.43-1.59,6.84-5.1,8-6.94l1.46-2.42L335,96l-1.91-3.46L331,88.07ZM315.73,106.7c-5.42,4.27-7.08,5.2-8.06-.5s2.19-14.4,7.62-18.67,7.51-4.58,8.49,1.12S321.16,102.43,315.73,106.7Z" fill="#e0e0e0"/>
        <path id="パス_82" data-name="パス 82" d="M324.18,66.17l7.73,4.46-4.36,8.32-7.74-4.46Z" fill="#f5f5f5"/>
        <path id="パス_83" data-name="パス 83" d="M343.8,79.23l-6.63,4.37-7.73-4.46,6.63-4.37Z" fill="#f5f5f5"/>
        <path id="パス_84" data-name="パス 84" d="M342.73,100.49l-5.02-2.14-7.73-4.46L335,96.03Z" fill="#e0e0e0"/>
        <path id="パス_85" data-name="パス 85" d="M297.82,125.26l7.73,4.46,3.18-8.58L301,116.68Z" fill="#e0e0e0"/>
        <path id="パス_86" data-name="パス 86" d="M322.26,127.51l-7.73-4.46-1.89-6.27,7.73,4.46Z" fill="#e0e0e0"/>
        <path id="パス_87" data-name="パス 87" d="M345.08,86.66l-1.28-7.43-6.63,4.37a9.19,9.19,0,0,0-2.53-3.07L337.82,72l-5.91-1.32L327.55,79A15.76,15.76,0,0,0,323,80.43l-1.89-6.27L314,79.72l.47,7.39a39,39,0,0,0-3.92,5.17L304.74,92l-4.1,9.19,5,2.14a30,30,0,0,0-1,5.83L298.29,115l1.28,7.43,6.64-4.37a9,9,0,0,0,2.52,3.07l-3.18,8.58,5.91,1.32,4.37-8.32a15.809,15.809,0,0,0,4.54-1.48l1.89,6.27,7.08-5.56-.46-7.39a39.844,39.844,0,0,0,3.91-5.17l5.84.29,4.1-9.19-5-2.14a30,30,0,0,0,1-5.83Zm-21.62,24.5c-5.42,4.27-10.62,3.1-11.6-2.6s2.62-13.78,8.05-18,10.62-3.1,11.61,2.6S328.89,106.89,323.46,111.16Z" fill="#ebebeb"/>
        <path id="パス_88" data-name="パス 88" d="M321.11,74.16l-7.73-4.46-7.08,5.56,7.73,4.46Z" fill="#f5f5f5"/>
        <path id="パス_89" data-name="パス 89" d="M306.3,75.26l.47,7.39,7.73,4.46-.47-7.39Z" fill="#e0e0e0"/>
        <path id="パス_90" data-name="パス 90" d="M310.58,92.28l-7.73-4.46-5.84-.29,7.73,4.46Z" fill="#f5f5f5"/>
        <path id="パス_91" data-name="パス 91" d="M297.01,87.53l-4.1,9.19,7.73,4.46,4.1-9.19Z" fill="#e0e0e0"/>
        <path id="パス_92" data-name="パス 92" d="M304.67,109.15l-7.73-4.46-6.38,5.86,7.74,4.46Z" fill="#f5f5f5"/>
        <path id="パス_93" data-name="パス 93" d="M299.57,122.44l-7.73-4.46-1.28-7.43,7.74,4.46Z" fill="#e0e0e0"/>
        <path id="パス_94" data-name="パス 94" d="M331.91,70.63l-7.73-4.46,5.91,1.32,7.73,4.46Z" fill="#f5f5f5"/>
        <path id="パス_95" data-name="パス 95" d="M276,67V55.89l-8.84,4a15.65,15.65,0,0,0-2.38-5.25l5.56-11.23-6.79-3.92L256.57,49.9a15.75,15.75,0,0,0-5.75.56l-1-9.64-9.61,5.55-1,10.76a46.759,46.759,0,0,0-5.74,6.07l-6.94-2.42-6.8,11.77,5.57,4.8a48.412,48.412,0,0,0-2.39,8l-8.83,6.22v11.1l8.83-4a15.92,15.92,0,0,0,2.39,5.26l-5.57,11.22,6.8,3.92,6.94-10.43a15.71,15.71,0,0,0,5.74-.56l1,9.64,9.61-5.55,1-10.76a18,18,0,0,0,7.71-5.4l5,1.75L270.3,86l-4.17-3.6a26,26,0,0,0,1-9.21ZM245.05,94.7c-7.38,4.26-12,1.24-12-7.27s6.09-19,13.47-23.21,11.84-1.16,11.84,7.36S252.42,90.45,245.05,94.7Z" fill="#e0e0e0"/>
        <path id="パス_96" data-name="パス 96" d="M271.24,43.93l-7.74-4.46L256.57,49.9l7.73,4.46Z" fill="#f5f5f5"/>
        <path id="パス_97" data-name="パス 97" d="M283.69,60.35l-7.73-4.46-8.84,3.98,7.73,4.46Z" fill="#f5f5f5"/>
        <path id="パス_98" data-name="パス 98" d="M247.97,122.21l-7.73-4.46-.97-9.64,7.73,4.46Z" fill="#e0e0e0"/>
        <path id="パス_99" data-name="パス 99" d="M219.79,115.18l7.73,4.46,5.57-11.23-7.73-4.45Z" fill="#e0e0e0"/>
        <path id="パス_100" data-name="パス 100" d="M283.69,71.45V60.35l-8.84,4a15.71,15.71,0,0,0-2.38-5.26L278,47.85l-6.79-3.92L264.3,54.36a15.75,15.75,0,0,0-5.75.56l-1-9.64L248,50.83l-1,10.76a46.76,46.76,0,0,0-5.74,6.07l-6.94-2.42L227.52,77l5.57,4.8a48.413,48.413,0,0,0-2.39,8L221.87,96v11.1l8.83-4a15.86,15.86,0,0,0,2.39,5.25l-5.57,11.23,6.8,3.92,6.94-10.43a15.71,15.71,0,0,0,5.74-.56l1,9.64,9.61-5.55,1-10.76a47.509,47.509,0,0,0,5.75-6.07l6.94,2.42L278,90.48l-5.56-4.8a47.417,47.417,0,0,0,2.38-8ZM252.78,99.16c-7.38,4.26-13.35.81-13.35-7.71s6-18.87,13.35-23.13,13.35-.8,13.35,7.71S260.15,94.9,252.78,99.16Z" fill="#ebebeb"/>
        <path id="パス_101" data-name="パス 101" d="M233.53,63.2l7.73,4.46-6.94-2.42-7.73-4.46Z" fill="#f5f5f5"/>
        <rect id="長方形_1" data-name="長方形 1" width="13.59" height="8.92" transform="translate(219.786 72.547) rotate(-60.03)" fill="#f5f5f5"/>
        <path id="パス_102" data-name="パス 102" d="M219.79,72.55l7.73,4.46,5.57,4.8-7.73-4.46Z" fill="#e0e0e0"/>
        <path id="パス_103" data-name="パス 103" d="M222.97,85.36l7.73,4.46-8.83,6.22-7.73-4.46Z" fill="#f5f5f5"/>
        <path id="パス_104" data-name="パス 104" d="M214.14,91.58l7.73,4.46v11.1l-7.73-4.46Z" fill="#e0e0e0"/>
        <path id="パス_105" data-name="パス 105" d="M257.58,45.28l-7.73-4.46-9.61,5.55,7.73,4.46Z" fill="#f5f5f5"/>
      </g>
    </g>
    <g id="freepik--Wrench--inject-1--inject-193">
      <g id="freepik--wrench--inject-1--inject-193-2" data-name="freepik--wrench--inject-1--inject-193">
        <path id="パス_106" data-name="パス 106" d="M249.61,373a1.38,1.38,0,0,1-.21.74,11.659,11.659,0,0,1-4.07,3.6c-5,2.83-12.14,3.58-18.29,2.29l-60.76,35.08.11.19,1-.16v3.45c0,2.6-1.73,5.21-5.21,7.18-6.88,3.92-18,3.87-24.75-.11l-.44-.27a.58.58,0,0,1-.25-.46v-3.25l15.82.91,2.31-4.82-1.29-.76-4.78-2.8L134,415.92a.66.66,0,0,1-.75-.65v-3.62l4.28-.71s12.14-3.59,18.3-2.29l60.75-35.08a6.42,6.42,0,0,1-1.05-3.61s0-3.42,0-3.42l.92.33a11.24,11.24,0,0,1,4.29-4c6.89-3.92,25.43-2.8,25.43-2.8v3.38a.32.32,0,0,1-.28.32l-15.53,2.28-1,2.12-1.3,2.7,6.08,3.56,15.1-5.43.37.65Z" fill="#37474f"/>
        <path id="パス_107" data-name="パス 107" d="M154.82,413.88l-1.29,2.7-4.78-2.8L134,415.92a.66.66,0,0,1-.75-.65v-3.62l15.47-1.33Z" fill="#263238"/>
        <path id="パス_108" data-name="パス 108" d="M230.38,362.63l15.81-2.55v3.41a.32.32,0,0,1-.28.32l-15.53,2.28-1,2.12-1.29-.76Z" fill="#263238"/>
        <path id="パス_109" data-name="パス 109" d="M227.04,379.6v-3.46l-60.76,35.08v3.46Z" fill="#37474f"/>
        <path id="パス_110" data-name="パス 110" d="M137.57,407.48a11.62,11.62,0,0,0-4.16,3.72.82.82,0,0,0,.8,1.25l14.54-2.13,6.07,3.56-2.31,4.83-15.22,2.23c-.57.08-.76.31-.46.5l.55.34c6.79,4,17.87,4,24.75.11,5.05-2.87,6.43-7.07,4.15-10.67L227,376.14c6.15,1.3,13.31.55,18.29-2.28a11.75,11.75,0,0,0,4.15-3.72.82.82,0,0,0-.81-1.25L234.15,371l-6.07-3.56,2.3-4.83,15.23-2.23c.54-.08.73-.32.45-.5l-.55-.34c-6.78-4-17.86-4-24.75-.11-5,2.87-6.42,7.07-4.15,10.67l-60.75,35.1C149.7,403.9,142.55,404.65,137.57,407.48Z" fill="#455a64"/>
      </g>
    </g>
    <g id="freepik--Books--inject-1--inject-193">
      <g id="freepik--books--inject-1--inject-193-2" data-name="freepik--books--inject-1--inject-193">
        <path id="パス_111" data-name="パス 111" d="M322.79,328.32l51.25,29.44,73.37-42.36-51.25-29.44Z" fill="#455a64"/>
        <path id="パス_112" data-name="パス 112" d="M374.51,356,324.7,327.22q1.53-4.39-.22-10.27L374,345.47S374.79,348,374.51,356Z" fill="#f5f5f5"/>
        <path id="パス_113" data-name="パス 113" d="M372,342.26a8.39,8.39,0,0,1,3.78,6.55v7.65c0,2.41-1.7,3.39-3.78,2.19l-49.25-28.43v-1.9l48.72,28c1.26.72,2.27.14,2.27-1.31v-7.09a5,5,0,0,0-2.27-3.93l-48.68-28v-2.15Z" fill="#263238"/>
        <path id="パス_114" data-name="パス 114" d="M322.79,313.84l73.37-42.36L445.4,299.9a8.36,8.36,0,0,1,3.78,6.55v7.66a2.64,2.64,0,0,1-1.11,2.44l-73.36,42.36a2.66,2.66,0,0,0,1.1-2.44v-7.66a8.35,8.35,0,0,0-3.78-6.55Z" fill="#455a64"/>
        <path id="パス_115" data-name="パス 115" d="M374.71,345.08a7.68,7.68,0,0,1,1.11,3.73v7.66a2.66,2.66,0,0,1-1.1,2.44l73.36-42.36a2.64,2.64,0,0,0,1.11-2.44v-7.66a7.65,7.65,0,0,0-1.11-3.72Z" fill="#37474f"/>
        <path id="パス_116" data-name="パス 116" d="M339.36,310.65l40.8,23.4,67.4-38.91-40.8-23.4Z" fill="#90caf9"/>
        <path id="パス_117" data-name="パス 117" d="M339.36,310.65l40.8,23.4,67.4-38.91-40.8-23.4Z" opacity="0.35"/>
        <path id="パス_118" data-name="パス 118" d="M380.62,332.27l-39.36-22.72q1.55-4.4-.21-10.27l39.11,22.48S380.9,324.24,380.62,332.27Z" fill="#ebebeb"/>
        <path id="パス_119" data-name="パス 119" d="M380.62,332.27l-39.36-22.72q1.55-4.4-.21-10.27l39.11,22.48S380.9,324.24,380.62,332.27Z" fill="#f5f5f5"/>
        <path id="パス_120" data-name="パス 120" d="M378.15,318.56a8.33,8.33,0,0,1,3.78,6.55v7.65c0,2.41-1.69,3.39-3.78,2.18l-38.79-22.39v-1.9l38.27,22c1.25.72,2.26.13,2.26-1.31v-7.09a5,5,0,0,0-2.27-3.93l-38.23-22v-2.15Z" fill="#90caf9"/>
        <path id="パス_121" data-name="パス 121" d="M378.15,318.56a8.33,8.33,0,0,1,3.78,6.55v7.65c0,2.41-1.69,3.39-3.78,2.18l-38.79-22.39v-1.9l38.27,22c1.25.72,2.26.13,2.26-1.31v-7.09a5,5,0,0,0-2.27-3.93l-38.23-22v-2.15Z" opacity="0.25"/>
        <path id="パス_122" data-name="パス 122" d="M339.36,296.17l67.4-38.92,38.79,22.39a8.39,8.39,0,0,1,3.78,6.55v7.66a2.64,2.64,0,0,1-1.11,2.44l-67.4,38.92a2.68,2.68,0,0,0,1.11-2.45V325.1a8.36,8.36,0,0,0-3.78-6.55Z" fill="#90caf9"/>
        <path id="パス_123" data-name="パス 123" d="M380.83,321.38a7.74,7.74,0,0,1,1.1,3.72v7.66a2.68,2.68,0,0,1-1.11,2.45l67.4-38.92a2.64,2.64,0,0,0,1.11-2.44v-7.66a7.761,7.761,0,0,0-1.11-3.72Z" opacity="0.15"/>
      </g>
    </g>
    <g id="freepik--List--inject-1--inject-193">
      <g id="freepik--list--inject-1--inject-193-2" data-name="freepik--list--inject-1--inject-193">
        <path id="パス_124" data-name="パス 124" d="M382.58,401.13v1.7a1.85,1.85,0,0,1-.84,1.46L287.4,458.76a1.91,1.91,0,0,1-1.68,0l-67.58-39a1.85,1.85,0,0,1-.84-1.46v-1.69a1.85,1.85,0,0,1,.84-1.46l94.34-54.47a1.84,1.84,0,0,1,1.68,0l67.58,39a1.84,1.84,0,0,1,.84,1.45Z" fill="#90caf9"/>
        <path id="パス_125" data-name="パス 125" d="M218,415.21c-.34.27-.31.65.12.89l67.58,39a1.63,1.63,0,0,0,.84.2V459a1.771,1.771,0,0,1-.84-.2l-67.58-39a1.85,1.85,0,0,1-.84-1.46v-1.69A1.87,1.87,0,0,1,218,415.21Z" fill="#fff" opacity="0.4"/>
        <path id="パス_126" data-name="パス 126" d="M381.88,399.78h0l.07.06h0l.12.12h0a1.81,1.81,0,0,1,.42.91.711.711,0,0,1,0,.2v1.7a1.9,1.9,0,0,1-.84,1.46L287.4,458.76a1.771,1.771,0,0,1-.84.2v-3.64a1.56,1.56,0,0,0,.84-.2l94.35-54.47a.65.65,0,0,0,.31-.33.43.43,0,0,0-.1-.46.3.3,0,0,0-.08-.08Z" opacity="0.15"/>
        <path id="パス_127" data-name="パス 127" d="M357,375.73c0-.63-.38-1.26-1.4-1.85a6.27,6.27,0,0,0-3-.8h-.26c-2.63,0-5.37,1.22-7.7,1.56h-.1c-3.27.45-5-.57-6.6-.73a7.151,7.151,0,0,0-.78,0h-1.1a22.75,22.75,0,0,1-4.26-.09c-1.13-.12-2-.18-2.59-.19H329a3.41,3.41,0,0,0-1.91.37l-3.78,2.19v1.25l28.32,16.36,3.78-2.19a1.11,1.11,0,0,0,.64-1.15v-1.24a5.31,5.31,0,0,0-.31-1.6,6.493,6.493,0,0,1-.22-.94,6.461,6.461,0,0,0,.12-.89c0-.15,0-1,0-1.28a1.388,1.388,0,0,0-.07-.44c-.18-.64-1.07-1.31-1.36-2.27a2.786,2.786,0,0,1,.12-.34c.59-1.36,2.71-3,2.71-4.47A12.437,12.437,0,0,1,357,375.73Zm-5.82,3.62a7.271,7.271,0,0,1-2.05.79,5.68,5.68,0,0,1-3.85-.3,1.8,1.8,0,0,1-.68-.66,3.64,3.64,0,0,1,1.53-1.48,7.18,7.18,0,0,1,5.18-.78,3,3,0,0,1,.71.29,1.8,1.8,0,0,1,.68.66,3.55,3.55,0,0,1-1.48,1.48Z" fill="#263238"/>
        <path id="パス_128" data-name="パス 128" d="M327.09,374l-3.78,2.19,28.32,16.35,3.78-2.18c.48-.28,1-.66.33-2.74s.13-2.6-.17-3.55-2.07-1.95-1.24-3.87,4.77-4.33,1.31-6.33a6.27,6.27,0,0,0-3-.8h-.26c-2.63,0-5.37,1.22-7.7,1.56h-.1c-3.27.45-5-.57-6.6-.73a7.151,7.151,0,0,0-.78,0h-1.1a22.75,22.75,0,0,1-4.26-.09c-1.13-.12-2-.18-2.59-.19H329a3.41,3.41,0,0,0-1.91.38Zm23.36,14.66a1.76,1.76,0,0,1,1.56-.14c.37.22.26.62-.23.91a1.77,1.77,0,0,1-1.55.13c-.38-.21-.23-.56.22-.89Zm-4.28-12.23a7.23,7.23,0,0,1,5.18-.78,3,3,0,0,1,.71.29c1.39.81,1,2.33-.84,3.41a7.561,7.561,0,0,1-2.05.78,5.68,5.68,0,0,1-3.85-.3c-1.39-.83-1.01-2.32.85-3.39Zm-17.57-.39a1.77,1.77,0,0,1,1.55-.13c.38.22.28.62-.22.9a1.75,1.75,0,0,1-1.56.13c-.37-.2-.26-.61.23-.89Z" fill="#37474f"/>
        <path id="パス_129" data-name="パス 129" d="M289.18,449.19l-58.81-33.95a1.11,1.11,0,0,1-.51-.87v-.66a1.11,1.11,0,0,1,.51-.87L308.07,368a1.12,1.12,0,0,1,1,0l58.81,33.95a1.13,1.13,0,0,1,.5.88v.65a1.13,1.13,0,0,1-.5.87l-77.7,44.86a1.06,1.06,0,0,1-1-.02Z" fill="#f5f5f5"/>
        <path id="パス_130" data-name="パス 130" d="M230.24,412.93c-.14.16-.1.36.13.49l58.81,34a1,1,0,0,0,.5.12v1.81a.93.93,0,0,1-.5-.12l-58.81-33.95a1.08,1.08,0,0,1-.5-.87v-.66a1.21,1.21,0,0,1,.37-.82Z" fill="#fafafa"/>
        <path id="パス_131" data-name="パス 131" d="M368,402l.14.14.06.08a1.712,1.712,0,0,1,.14.27,1.206,1.206,0,0,1,.05.18.572.572,0,0,1,0,.13v.65a1.1,1.1,0,0,1-.5.87l-77.7,44.86a1,1,0,0,1-.51.12v-1.8a1.07,1.07,0,0,0,.51-.12l77.7-44.86C368.12,402.38,368.16,402.17,368,402Z" fill="#e0e0e0"/>
        <path id="パス_132" data-name="パス 132" d="M303.18,378.07l9.45,5.38-9.45,5.45-9.45-5.37Z" fill="#fafafa"/>
        <path id="パス_133" data-name="パス 133" d="M303.18,378.52l-8.67,5,8.67,4.93,8.67-5Zm-9.78,5.2a.41.41,0,0,1,0-.19.39.39,0,0,1,.19-.34l9.45-5.45a.37.37,0,0,1,.38,0l9.45,5.37a.4.4,0,0,1,0,.68l-9.45,5.45a.37.37,0,0,1-.38,0l-9.45-5.38A.32.32,0,0,1,293.4,383.72Z" fill="#455a64"/>
        <path id="パス_134" data-name="パス 134" d="M317,386.37l-.68.39a.41.41,0,0,0,0,.78l33.29,19.22a1.5,1.5,0,0,0,1.34,0l.69-.4a.41.41,0,0,0,0-.77l-33.29-19.22a1.46,1.46,0,0,0-1.35,0Z" fill="#e0e0e0"/>
        <path id="パス_135" data-name="パス 135" d="M312.89,388.75l-.68.39c-.37.22-.37.57,0,.78l33.28,19.22a1.53,1.53,0,0,0,1.35,0l.68-.4a.41.41,0,0,0,0-.77l-33.29-19.22a1.5,1.5,0,0,0-1.34,0Z" fill="#e0e0e0"/>
        <path id="パス_136" data-name="パス 136" d="M308.79,391.12l-.69.39a.41.41,0,0,0,0,.78l33.29,19.22a1.5,1.5,0,0,0,1.34,0l.69-.4a.41.41,0,0,0,0-.77l-33.29-19.22a1.44,1.44,0,0,0-1.34,0Z" fill="#e0e0e0"/>
        <path id="パス_137" data-name="パス 137" d="M300.77,385.06l.73-2.94,2.19-.18-.41,1.67,12.05-.99-.31,1.26Z" fill="#90caf9"/>
        <path id="パス_138" data-name="パス 138" d="M285.86,388.07l9.45,5.38-9.45,5.45-9.44-5.38Z" fill="#fafafa"/>
        <path id="パス_139" data-name="パス 139" d="M285.86,388.52l-8.66,5,8.66,4.93,8.67-5Zm-9.78,5.2a.41.41,0,0,1-.05-.19.39.39,0,0,1,.19-.34l9.45-5.45a.37.37,0,0,1,.38,0l9.45,5.37a.4.4,0,0,1,.2.34.37.37,0,0,1-.2.33l-9.44,5.46a.39.39,0,0,1-.39,0l-9.44-5.38A.4.4,0,0,1,276.08,393.72Z" fill="#455a64"/>
        <path id="パス_140" data-name="パス 140" d="M299.7,396.37l-.68.39c-.38.21-.38.56,0,.78l33.28,19.22a1.5,1.5,0,0,0,1.34,0l.69-.4a.41.41,0,0,0,0-.77L301,396.37A1.44,1.44,0,0,0,299.7,396.37Z" fill="#e0e0e0"/>
        <path id="パス_141" data-name="パス 141" d="M295.57,398.75l-.68.39a.41.41,0,0,0,0,.78l33.29,19.22a1.5,1.5,0,0,0,1.34,0l.68-.4c.38-.21.38-.56,0-.77l-33.28-19.22a1.46,1.46,0,0,0-1.35,0Z" fill="#e0e0e0"/>
        <path id="パス_142" data-name="パス 142" d="M291.47,401.12l-.68.39a.41.41,0,0,0,0,.78l33.28,19.22a1.53,1.53,0,0,0,1.35,0l.68-.4a.41.41,0,0,0,0-.77l-33.29-19.22a1.44,1.44,0,0,0-1.34,0Z" fill="#e0e0e0"/>
        <path id="パス_143" data-name="パス 143" d="M283.46,395.06l.73-2.94,2.19-.18-.42,1.67,12.06-.99-.32,1.26Z" fill="#90caf9"/>
        <path id="パス_144" data-name="パス 144" d="M268.55,398.52l-8.67,5,8.67,4.93,8.66-5Zm-9.78,5.2a.36.36,0,0,1-.06-.2.38.38,0,0,1,.2-.33l9.44-5.46a.41.41,0,0,1,.39,0l9.44,5.38a.4.4,0,0,1,.2.34.39.39,0,0,1-.19.33l-9.45,5.45a.41.41,0,0,1-.39,0l-9.44-5.38a.38.38,0,0,1-.14-.13Z" fill="#455a64"/>
        <path id="パス_145" data-name="パス 145" d="M282.38,406.36l-.68.4a.41.41,0,0,0,0,.77L315,426.75a1.44,1.44,0,0,0,1.34,0l.68-.39a.41.41,0,0,0,0-.78l-33.29-19.22a1.5,1.5,0,0,0-1.35,0Z" fill="#e0e0e0"/>
        <path id="パス_146" data-name="パス 146" d="M278.26,408.75l-.69.39a.41.41,0,0,0,0,.77l33.29,19.23a1.5,1.5,0,0,0,1.34,0l.69-.4a.41.41,0,0,0,0-.77L279.6,408.75A1.44,1.44,0,0,0,278.26,408.75Z" fill="#e0e0e0"/>
        <path id="パス_147" data-name="パス 147" d="M274.15,411.11l-.68.4a.41.41,0,0,0,0,.77l33.29,19.22a1.44,1.44,0,0,0,1.34,0l.69-.39a.41.41,0,0,0,0-.78L275.5,411.11a1.53,1.53,0,0,0-1.35,0Z" fill="#e0e0e0"/>
        <path id="パス_148" data-name="パス 148" d="M265.91,405.46l.73-2.94,2.19-.18-.41,1.68,12.05-1-.31,1.27Z" fill="#90caf9"/>
        <path id="パス_149" data-name="パス 149" d="M251.23,408.51l-8.67,5,8.67,4.93,8.67-5Zm-9.78,5.2a.38.38,0,0,1,0-.19.39.39,0,0,1,.19-.34l9.45-5.45a.37.37,0,0,1,.38,0l9.45,5.38a.37.37,0,0,1,.19.33.39.39,0,0,1-.19.34l-9.45,5.45a.37.37,0,0,1-.38,0l-9.45-5.37A.4.4,0,0,1,241.45,413.71Z" fill="#455a64"/>
        <path id="パス_150" data-name="パス 150" d="M265.07,416.36l-.69.4a.41.41,0,0,0,0,.77l33.29,19.22a1.44,1.44,0,0,0,1.34,0l.69-.39c.37-.22.37-.57,0-.78l-33.29-19.22A1.5,1.5,0,0,0,265.07,416.36Z" fill="#e0e0e0"/>
        <path id="パス_151" data-name="パス 151" d="M260.94,418.74l-.68.4a.41.41,0,0,0,0,.77l33.28,19.22a1.46,1.46,0,0,0,1.35,0l.68-.39a.41.41,0,0,0,0-.78l-33.29-19.22a1.5,1.5,0,0,0-1.34,0Z" fill="#e0e0e0"/>
        <path id="パス_152" data-name="パス 152" d="M256.84,421.11l-.69.4a.41.41,0,0,0,0,.77l33.29,19.22a1.44,1.44,0,0,0,1.34,0l.69-.39a.41.41,0,0,0,0-.78l-33.29-19.22a1.5,1.5,0,0,0-1.34,0Z" fill="#e0e0e0"/>
        <path id="パス_153" data-name="パス 153" d="M248.37,415.87l.73-2.94,2.19-.18-.42,1.67,12.06-.99-.32,1.26Z" fill="#90caf9"/>
        <path id="パス_154" data-name="パス 154" d="M346.52,391.3l-4.19-3.3a2.762,2.762,0,0,1-.24-.34l.12-.12,1-.95,3.25-3a.81.81,0,0,0,.31-.63V381.7a1.33,1.33,0,0,0-.37-.84,3.3,3.3,0,0,1-.68-1.61,2.6,2.6,0,0,1,.77-1.48,3.38,3.38,0,0,0,1.21-3.23,3.43,3.43,0,0,0-2.1-3.74,7.19,7.19,0,0,0-3.2-.77h-.14a7.24,7.24,0,0,0-4.82,1.71,6.33,6.33,0,0,1-3.13,1.19,9,9,0,0,1-2.88,0,5.735,5.735,0,0,0-.66-.07h-.07a1.71,1.71,0,0,0-1.33.43l-2.8,2.6-1,.95h-.05a2.56,2.56,0,0,1-2.36.34c-1.54-.65-2.27-1-4.78-2.15a5.651,5.651,0,0,0-2.31-.47h0a7.62,7.62,0,0,0-3.38.85v1.26l34.65,20a3,3,0,0,0,.66-1.73V393.8a3.48,3.48,0,0,0-1.48-2.5Zm-7.15-17.47a4.72,4.72,0,0,1,4.53-.8,3.482,3.482,0,0,1,.48.21,2.5,2.5,0,0,1,1.23,1.29,2.4,2.4,0,0,1-.67,1,4,4,0,0,1-1.39.8,4.82,4.82,0,0,1-3.64-.22,1.18,1.18,0,0,1-.54-2.25Z" fill="#37474f"/>
        <path id="パス_155" data-name="パス 155" d="M312.64,375.54l34.65,20c.94-1.28,1-2.61-.77-4.24l-4.19-3.3s-.91-1-.12-1.72l1-.95,3.25-3s.74-.52-.06-1.47-1.18-3.19.09-4.35c2-1.84,1.61-4.39-.89-5.71a7.191,7.191,0,0,0-3.2-.77h-.14a7.24,7.24,0,0,0-4.82,1.71,6.33,6.33,0,0,1-3.13,1.19,9,9,0,0,1-2.88,0,5.735,5.735,0,0,0-.66-.07h-.07a1.71,1.71,0,0,0-1.33.43l-2.8,2.6-1,.95h-.05a2.56,2.56,0,0,1-2.36.34c-1.54-.65-2.27-1-4.78-2.15a5.651,5.651,0,0,0-2.31-.47h0a7.621,7.621,0,0,0-3.43.98Zm31.26-3.77a3.507,3.507,0,0,1,.48.22,2,2,0,0,1,.56,3.51,4,4,0,0,1-1.39.8,4.82,4.82,0,0,1-3.64-.22,2,2,0,0,1-.54-3.51,4.72,4.72,0,0,1,4.53-.8Z" fill="#455a64"/>
      </g>
    </g>
    <g id="freepik--Pencil--inject-1--inject-193">
      <g id="freepik--pencil--inject-1--inject-193-2" data-name="freepik--pencil--inject-1--inject-193">
        <path id="パス_156" data-name="パス 156" d="M441,346.89l-1,.58-1.15.71-41.61,25.24c.34-.82,0-2.45-.85-4-1-1.81-2.54-3.21-3.62-3.24l41.3-25.06,2.21-1.34C434.9,340.74,439.56,347.82,441,346.89Z" fill="#90caf9"/>
        <path id="パス_157" data-name="パス 157" d="M436.14,339.88c.61-.4,1.71.73,2.77,2.18,1.42,1.91,2.6,4.47,1.79,5l-1.58,1-.57.33c.81-.52-.37-3.08-1.78-5-1-1.39-2.18-2.44-2.8-2.16h0Z" fill="#ebebeb"/>
        <path id="パス_158" data-name="パス 158" d="M434.43,340.9c1.42-.92,6.07,6.2,4.66,7.13l-2.14,1.3c1.41-.92-3.24-8.05-4.66-7.12Z" fill="#90caf9"/>
        <path id="パス_159" data-name="パス 159" d="M430.25,343.45l2.12-1.29c1.38-.92,5.94,5.92,4.77,7a.22.22,0,0,1-.07.06l-2.14,1.28C436.32,349.6,431.65,342.52,430.25,343.45Z" fill="#ebebeb"/>
        <path id="パス_160" data-name="パス 160" d="M392.77,366.18v.01h0l.01-.01h-.01l-6.28,7.48h.01Z" fill="#fafafa"/>
        <path id="パス_161" data-name="パス 161" d="M386.49,373.66l-1.52,1.81,1.52-1.81Z" fill="#e0e0e0"/>
        <path id="パス_162" data-name="パス 162" d="M396.14,368.06a4.56,4.56,0,0,0-3.36-1.88h0l-6.28,7.48a1.1,1.1,0,0,1,.68.35c.77,1,.71,1.49.71,1.49l9.36-2.08C398.14,372,397.47,369.68,396.14,368.06Z" fill="#ffa8a7"/>
        <path id="パス_163" data-name="パス 163" d="M387.17,374a.85.85,0,0,0-.68-.35L385,375.47h0a.36.36,0,0,0,0,.51.35.35,0,0,0,.33.09l2.54-.57S388,375,387.17,374Z" fill="#37474f"/>
        <path id="パス_164" data-name="パス 164" d="M449.39,341.77,441,346.9a.471.471,0,0,1-.15.06c.57-.69-.55-3.08-1.9-4.9-1-1.33-2.13-2.35-2.77-2.18l8.78-5.35c1.92-1.39,4.55,2.23,5.11,4.85a2.19,2.19,0,0,1-.68,2.39Z" fill="#f28f8f"/>
        <path id="パス_165" data-name="パス 165" d="M449.39,341.77a2.19,2.19,0,0,0,.64-2.39,1.43,1.43,0,0,0-.1-.38l-52.44,31.67L385,376a.35.35,0,0,0,.33.09l2.54-.57,9.36-2.08h0Z" opacity="0.15"/>
      </g>
    </g>
    <g id="freepik--Character--inject-1--inject-193">
      <g id="freepik--Clock--inject-1--inject-193">
        <path id="パス_166" data-name="パス 166" d="M76.84,365.22,63.92,390.43a6.69,6.69,0,1,0,11.8,6.29l13-25.35c1.26-2.43-.38-5.78-3.67-7.47S78.09,362.79,76.84,365.22Z" fill="#455a64"/>
        <path id="パス_167" data-name="パス 167" d="M177.79,312.45,203,325.37a6.69,6.69,0,0,0,6.29-11.8l-25.35-13c-2.43-1.26-5.78.39-7.48,3.67S175.36,311.2,177.79,312.45Z" fill="#455a64"/>
        <path id="パス_168" data-name="パス 168" d="M199.57,200.62h0l-.12-.06h0L153.9,177.19h0l-.17-.08h0c-13.47-6.82-31.47-4.82-50.85,7.66-38.93,25.07-68.67,82.89-66.43,129.14,1.12,23.06,10,38.88,23.4,45.85h0l.12.06h0l45.57,23.37h0l.14.07h0c13.48,6.85,31.49,4.85,50.89-7.64,38.93-25.08,68.67-82.89,66.42-129.15C221.85,223.42,213,207.6,199.57,200.62Z" fill="#90caf9"/>
        <path id="パス_169" data-name="パス 169" d="M104.52,382.65,60,359.8h0l-.13-.08c-13.41-7-22.27-22.82-23.39-45.84-1-20.63,4.37-43.54,14.06-64.82L96,272.44c-9.67,21.28-15,44.19-14,64.82C83.08,359.82,91.58,375.45,104.52,382.65Z" opacity="0.1"/>
        <ellipse id="楕円形_1" data-name="楕円形 1" cx="102.69" cy="59.29" rx="102.69" ry="59.29" transform="translate(52.789 356.078) rotate(-62.78)" fill="#fff" opacity="0.4"/>
        <path id="パス_170" data-name="パス 170" d="M123.92,372.39c-23,1.12-26.68-24.69-27.23-35.84-2-40.79,25.36-93.94,59.69-116,8.74-5.63,17.27-8.79,24.66-9.15,23-1.12,26.69,24.69,27.23,35.84,2,40.79-25.35,93.94-59.69,116.05-8.74,5.63-17.27,8.79-24.65,9.15Z" fill="#fafafa"/>
        <path id="パス_171" data-name="パス 171" d="M142.89,345.76a1.1,1.1,0,0,1-.35-.05,1.05,1.05,0,0,1-.71-1.3l13.85-46.68a1.043,1.043,0,1,1,2,.59L143.85,345a1.08,1.08,0,0,1-.96.76Z" fill="#90caf9"/>
        <path id="パス_172" data-name="パス 172" d="M182,285.31a3.14,3.14,0,0,1-.88.94L158,302.56l-37.3-22.8a3.153,3.153,0,0,1,3.29-5.38L157.72,295l19.79-13.94a3.16,3.16,0,0,1,4.51,4.23Z" fill="#37474f"/>
        <path id="パス_173" data-name="パス 173" d="M156.19,287.87c4.58-2.95,8.51-.93,8.78,4.51s-3.24,12.24-7.82,15.19-8.51.93-8.77-4.51S151.61,290.82,156.19,287.87Z" fill="#90caf9"/>
      </g>
      <g id="freepik--character--inject-1--inject-193-2" data-name="freepik--character--inject-1--inject-193">
        <path id="パス_174" data-name="パス 174" d="M180.07,127.8a7,7,0,0,1,4.9-1.55,18.27,18.27,0,0,0,2.74,0,3.52,3.52,0,0,0,2.88-1.82c.13-.28.2-.57.33-.84.21-.43.55-.78.78-1.2a2.76,2.76,0,0,0,.25-2,1.63,1.63,0,0,1-.11-.78,1.54,1.54,0,0,1,.35-.59,2.82,2.82,0,0,0,.26-2.87,4,4,0,0,1-.34-.73c-.13-.55.17-1.1.19-1.66.11-2.51-4.06-2.15-5.55-1.81-.42.1-2.51.52-3.46.75a13.38,13.38,0,0,0,0-4.14c-.35-2.65-2.88-3.9-3.18-2.34-.17.89,0,3.39-1.07,5.47a11.66,11.66,0,0,0-1.53,3c-.39,1.41-.87,2.4-4,5.39-2.92,2.79-14,11.67-14,11.67S147.88,111.65,145,106.3c-5.81-10.87-16.08-8.58-16.08-8.58l2.2,14.43s18.5,29.34,21.67,33.39,7.41,2.8,9.69.76C165.77,143.37,174.32,133.48,180.07,127.8Z" fill="#b16668"/>
        <path id="パス_175" data-name="パス 175" d="M127.39,97.9s8.78-2.09,13.08,2c4,3.8,5.63,7,10.74,16.72,4.7,8.9,8,14,8,14s-4.07,9-11.46,8.44L136.24,122.2Z" fill="#90caf9"/>
        <path id="パス_176" data-name="パス 176" d="M127.39,97.9s8.78-2.09,13.08,2c4,3.8,5.63,7,10.74,16.72,4.7,8.9,8,14,8,14s-4.07,9-11.46,8.44L136.24,122.2Z" opacity="0.6"/>
        <path id="パス_177" data-name="パス 177" d="M184.36,113.63c-1.18.34-1.94,1.15-2.27,3.23-.2,1.24-1.13,3.36-2.63,4a3.29,3.29,0,0,0,1.88-.44c.75-.54.93-.58,1.22-.14a2.3,2.3,0,0,0,.83.69,1.63,1.63,0,0,0-.49,1.88c.45,1.17,3.33,1.72,5.91.93,0,0-4.05.49-4.72-.88s1.64-2.54,3.22-2.68c0,0-3.86.22-4.21-1.1s1.35-2,3.63-2.11c0,0-3.16,0-3.5-1.13a1.92,1.92,0,0,1,1.13-2.25Z" fill="#9a4a4d"/>
        <path id="パス_178" data-name="パス 178" d="M142.12,126.47s-1.33,7.27-.12,13.4,2.1,11.34,2.1,11.34-3.71,4.25-10.73,3.28c-7.64-1.06-5.31-19.19-.92-23.64a14.42,14.42,0,0,1,9.67-4.38Z" fill="#90caf9"/>
        <path id="パス_179" data-name="パス 179" d="M142.12,126.47s-1.33,7.27-.12,13.4,2.1,11.34,2.1,11.34-3.71,4.25-10.73,3.28c-7.64-1.06-5.31-19.19-.92-23.64a14.42,14.42,0,0,1,9.67-4.38Z" opacity="0.5"/>
        <path id="パス_180" data-name="パス 180" d="M141.34,272.65l1-.16c0-3-.23-5.8.5-7.24l-1.46-3.69Z" fill="#263238"/>
        <path id="パス_181" data-name="パス 181" d="M138.69,258.91c.26,2.07,1.48,4.18,1.65,8.27a35.338,35.338,0,0,1,0,5.23l1,.24V261.56Z" fill="#263238"/>
        <path id="パス_182" data-name="パス 182" d="M162.53,275a2.76,2.76,0,0,1-.63,1.53c-.52.41-2.15,1.78-7.49,1.58s-7.23-1.48-9.08-3.11-2.43-6-2.74-8a15.2,15.2,0,0,0-3.9-8,3.52,3.52,0,0,1-.2-2.07,6.73,6.73,0,0,1,6.41,4.51c2,4.84,3.62,10.48,7.95,11.74A66.861,66.861,0,0,0,162.53,275Z" fill="#263238"/>
        <path id="パス_183" data-name="パス 183" d="M159.73,270.37c1.66,1.37,2.91,2,2.79,3.28s-1.48,1.93-2.58,2.28c-2.6.84-5.57.57-8.2.16S146.15,274.5,145,272a10,10,0,0,1-.67-2.29,33.24,33.24,0,0,0-2.16-7.57,18,18,0,0,0-1.52-2.92,7.48,7.48,0,0,1-1.72-3.28c-.13-1,.64-2.51,1.64-4.1h0a6.38,6.38,0,0,0,1.17-4.82l-.43-7.53,11.9,2.59s-.95,6.56-1,8.27a29.81,29.81,0,0,0,.77,7.49,37.75,37.75,0,0,0,3.2,8.48,8.19,8.19,0,0,0,1.27,1.9A21.43,21.43,0,0,0,159.73,270.37Z" fill="#b16668"/>
        <path id="パス_184" data-name="パス 184" d="M138.89,253.8c.73-1.35,1.75-2.18,2.45-3.35a13.091,13.091,0,0,1,1.46,3.21c.34,1.06,1.3,6.27,2.68,10.41,1,3.11,2.68,4.73,4.93,5.53a8.94,8.94,0,0,0,4.41.41h0c2.76-.44,2.07-2.41,2.07-2.41a34.94,34.94,0,0,0,5.34,4.23,2.25,2.25,0,0,1,.28,3.13c-.76.68-3.35,2.35-10,1.53-5.89-.73-7.32-3.42-7.9-4.63a29.11,29.11,0,0,1-1.34-5.49,17.28,17.28,0,0,0-2.18-5.8,6.7,6.7,0,0,0-.4-.62h0a22.094,22.094,0,0,0-1.43-1.83c-.42-.49-.74-.72-.87-1.19a4.47,4.47,0,0,1,.5-3.13Z" fill="#37474f"/>
        <path id="パス_185" data-name="パス 185" d="M161.63,263.79l1-.14c.09-3-.06-5.8.7-7.22L162,252.7Z" fill="#263238"/>
        <path id="パス_186" data-name="パス 186" d="M159.37,250c.2,2.07,1.36,4.21,1.41,8.31a33.651,33.651,0,0,1-.15,5.22l1,.28L162,252.7Z" fill="#263238"/>
        <path id="パス_187" data-name="パス 187" d="M182.74,266.7a2.71,2.71,0,0,1-.68,1.51c-.52.39-2.19,1.65-7.52,1.29s-7.19-1.62-9-3.3-2.25-6-2.5-8.1a15.15,15.15,0,0,0-3.67-8.12,3.65,3.65,0,0,1-.14-2.08,6.74,6.74,0,0,1,6.28,4.69c1.86,4.9,3.31,10.58,7.61,12a67.653,67.653,0,0,0,9.62,2.11Z" fill="#263238"/>
        <path id="パス_188" data-name="パス 188" d="M180.07,262c1.62,1.42,2.85,2.06,2.7,3.36s-1.54,1.88-2.65,2.2a18,18,0,0,1-8.2-.07c-2.69-.51-5.54-1.75-6.63-4.26a10.079,10.079,0,0,1-.61-2.31,33.18,33.18,0,0,0-1.94-7.62,16.871,16.871,0,0,0-1.44-3,7.5,7.5,0,0,1-1.62-3.34c-.1-1,.71-2.49,1.76-4h0c1.19-1.76,1.57-2.46,1.57-5.65l-.38-6.67,11.83,2.93s-.89,4.38-1.27,7.74a24.19,24.19,0,0,0,.45,8,37.672,37.672,0,0,0,3,8.57,8.06,8.06,0,0,0,1.2,1.94,22.437,22.437,0,0,0,2.23,2.18Z" fill="#b16668"/>
        <path id="パス_189" data-name="パス 189" d="M159.88,244.55a34.867,34.867,0,0,1,2.38-2.86,11,11,0,0,1,1.41,2.94c.48,1.36,1.09,6.53,2.34,10.7.94,3.13,2.55,4.8,4.77,5.67a8.88,8.88,0,0,0,4.39.53h0c2.78-.36,2.15-2.36,2.15-2.36a35,35,0,0,0,5.21,4.4,2.23,2.23,0,0,1,.19,3.13c-.78.66-3.42,2.26-10,1.24-5.87-.9-7.22-3.63-7.77-4.86a29.86,29.86,0,0,1-1.17-5.52,17.19,17.19,0,0,0-2-5.87c-.13-.23-.26-.44-.38-.62h0c-.39-.59-.86-1.24-1.38-1.88s-.72-.74-.84-1.21A5,5,0,0,1,159.88,244.55Z" fill="#37474f"/>
        <path id="パス_190" data-name="パス 190" d="M110,166.77a39.08,39.08,0,0,1,3.67-9.48c11.32,5.38,15.66,3.81,27.08.15,5.33,5.88,12.95,8.89,20.23,12.61s15.54,7.6,20.1,12.3c2.06,2.12,1.44,7.29.4,13.93-1.41,9-7,37.44-7,37.44-7.75,2.76-11.75-1.82-11.75-1.82s-1.22-12-2.2-21.68S163,196,163,196s-23.27-8.82-32.07-10.64C116.27,182.28,108.09,180.41,110,166.77Z" fill="#37474f"/>
        <path id="パス_191" data-name="パス 191" d="M93.09,171.94c1-6.4,7.48-19.83,8.69-22.15,11.32,5.38,27.57,11.31,39,7.65a39.28,39.28,0,0,1-8.4,19.34c17.21,12.58,20.74,17,24.94,22.18,1.16,1.45,2.29,4.43,1.6,8.58-1.47,9-6,37.09-6,37.09a13.62,13.62,0,0,1-11.64-1s-1.41-10.64-2.39-20.32.06-14.43.06-14.43-23.24-10.36-32-14.4C92.1,187.72,92.07,178.33,93.09,171.94Z" fill="#455a64"/>
        <path id="パス_192" data-name="パス 192" d="M113.72,98.3S101,99.77,99.47,100.45c11.94,8.4,2.27,27.08,2.27,27.08l4.58,14.34c-1.9,5-8.06,11.45-9.94,19.36,16.57,10,37.57,8.1,44.39-3.79-.35-5.79-.3-14.55-.83-18.23.16-2.71-.08-5.82.23-10.25a12.77,12.77,0,0,0,2.7-14.82c-4.74-9.4-12.88-16.24-15.48-16.24Z" fill="#90caf9"/>
        <path id="パス_193" data-name="パス 193" d="M109.8,98.69s-8,.65-10.33,1.76-6.22,7.83-2.74,17.6,6.63,21.23,6.27,23.54-6.62,15.7-6.62,15.7a9,9,0,0,0,6,4.24l3.82-11.33L105,162.5s7.9,1.63,13.37,1.16C118.37,163.66,118.49,124,109.8,98.69Z" fill="#90caf9"/>
        <g id="グループ_5" data-name="グループ 5" opacity="0.5">
          <path id="パス_194" data-name="パス 194" d="M109.8,98.69s-8,.65-10.33,1.76-6.22,7.83-2.74,17.6,6.63,21.23,6.27,23.54-6.62,15.7-6.62,15.7a9.14,9.14,0,0,0,6,4.24l3.82-11.33L105,162.5s7.9,1.63,13.37,1.16C118.37,163.66,118.49,124,109.8,98.69Z"/>
        </g>
        <path id="パス_195" data-name="パス 195" d="M124.15,51.88c-11.81-.82-23.77,8.64-21.29,24.43,1.69,10.74,8,14.48,10,14.54l12.09.49c2.79-8.49,16.27-9.55,19.17-22.1S136,52.7,124.15,51.88Z" fill="#263238"/>
        <path id="パス_196" data-name="パス 196" d="M101.33,57.1c-4.71,1.51-7,5.57-8.32,10.09-1,3.33-1.54,6.81-2.94,10a10.37,10.37,0,0,1-1.79,2.89,19.451,19.451,0,0,1-3.59,2.62,7.55,7.55,0,0,0-3,3.18c-.76,1.86,1,3.62,2.52,4.58a11,11,0,0,0,9.53.87,10.42,10.42,0,0,0,6.44-6.62,24.23,24.23,0,0,0,.94-8.71,22.548,22.548,0,0,1,1.36-9.24,6.66,6.66,0,0,1,2-2.77,12.16,12.16,0,0,1,2.93-1.4,5.12,5.12,0,0,0,2.59-1.9c1.53-2.53-2.15-3.8-4-4a10.65,10.65,0,0,0-4.67.41Z" fill="#263238"/>
        <path id="パス_197" data-name="パス 197" d="M109.06,57.9l-5.12-2.37a2.75,2.75,0,0,1,3.69-1.47,3,3,0,0,1,1.43,3.84Z" fill="#263238"/>
        <path id="パス_198" data-name="パス 198" d="M109.07,57.19,108,51.67a2.72,2.72,0,0,1,3.35,2.1A3,3,0,0,1,109.07,57.19Z" fill="#263238"/>
        <path id="パス_199" data-name="パス 199" d="M135.81,62.37c3.91,2.19,5.41,7.36,4.31,19.25-.93,10.07-4.37,12.34-6.07,12.94s-4.82,0-7.87-.77L125.83,98s5,6.6,4.49,9.35-7.49,3.54-11.28.55-6.8-8.45-6.8-8.45l1.05-14s-1.94,1.63-4.82-1.27c-2.39-2.39-3-6.19-.86-8.06A4.43,4.43,0,0,1,114.54,78a30.84,30.84,0,0,0,12.25-3.77C133.22,70.75,135.24,66.47,135.81,62.37Z" fill="#b16668"/>
        <path id="パス_200" data-name="パス 200" d="M127.79,77.66A1.3,1.3,0,0,1,126.5,79a1.33,1.33,0,0,1,0-2.65A1.3,1.3,0,0,1,127.79,77.66Z" fill="#263238"/>
        <path id="パス_201" data-name="パス 201" d="M128.78,86.88,131.66,88a1.52,1.52,0,0,1-2,.93,1.62,1.62,0,0,1-.88-2.05Z" fill="#9a4a4d"/>
        <path id="パス_202" data-name="パス 202" d="M139.14,75.13l-2.83-1.33a1.51,1.51,0,0,1,2-.79A1.65,1.65,0,0,1,139.14,75.13Z" fill="#263238"/>
        <path id="パス_203" data-name="パス 203" d="M137.79,77.66a1.28,1.28,0,1,1-1.25-1.35,1.31,1.31,0,0,1,1.25,1.35Z" fill="#263238"/>
        <path id="パス_204" data-name="パス 204" d="M131.79,76.31l-.65,8.27,4.1-.97Z" fill="#9a4a4d"/>
        <path id="パス_205" data-name="パス 205" d="M126.18,93.79c-3.21-.65-9.76-3-10.62-5.75a6.89,6.89,0,0,0,2.11,3.53c1.88,1.85,8.37,4.24,8.37,4.24Z" fill="#9a4a4d"/>
        <path id="パス_206" data-name="パス 206" d="M112.35,97.9l-5.5,1.1s2.55,11,9.34,13,9.33-2.2,9.33-2.2A24.85,24.85,0,0,1,112.35,97.9Z" fill="#90caf9"/>
        <path id="パス_207" data-name="パス 207" d="M112.35,97.9l-5.5,1.1s2.55,11,9.34,13,9.33-2.2,9.33-2.2A24.85,24.85,0,0,1,112.35,97.9Z" fill="#fff" opacity="0.7"/>
        <path id="パス_208" data-name="パス 208" d="M125.83,98s3.8,8.62-.31,11.81c0,0,5.44,1.62,6.89-.68s-1.2-8.85-3.47-11.37Z" fill="#90caf9"/>
        <path id="パス_209" data-name="パス 209" d="M125.83,98s3.8,8.62-.31,11.81c0,0,5.44,1.62,6.89-.68s-1.2-8.85-3.47-11.37Z" fill="#fff" opacity="0.7"/>
        <path id="パス_210" data-name="パス 210" d="M103.53,189.12v.95a2.74,2.74,0,0,0,1.31,2.36l25.51,15.17a2.69,2.69,0,0,0,2.69,0l47.57-26.56a2.7,2.7,0,0,0,1.39-2.32v-.65l-50.3,28.11Z" fill="#ebebeb"/>
        <path id="パス_211" data-name="パス 211" d="M182,178.11l-27.74-16.55a1.6,1.6,0,0,0-1.61,0l-48.93,27.32a.36.36,0,0,0,0,.62l28,16.71Z" fill="#fafafa"/>
        <path id="パス_212" data-name="パス 212" d="M131.47,203.8l-14.96-8.92L161,170.05l15.04,8.88Z" fill="#e0e0e0"/>
        <path id="パス_213" data-name="パス 213" d="M124.41,179.49l.28.17,7.33,4.37,13.26-7.4.28-.15-7.61-4.54Z" fill="#e0e0e0"/>
        <path id="パス_214" data-name="パス 214" d="M124.69,179.66l7.33,4.37,13.26-7.4-7.34-4.38Z" fill="#e6e6e6"/>
        <path id="パス_215" data-name="パス 215" d="M131.7,206.18v1.8a2.79,2.79,0,0,0,1.35-.34l47.57-26.56a2.7,2.7,0,0,0,1.39-2.32v-.65Z" fill="#ebebeb"/>
        <g id="グループ_6" data-name="グループ 6" opacity="0.5" style="mix-blend-mode: multiply;isolation: isolate">
          <path id="パス_216" data-name="パス 216" d="M131.7,206.18v1.8a2.79,2.79,0,0,0,1.35-.34l47.57-26.56a2.7,2.7,0,0,0,1.39-2.32v-.65Z" fill="#e0e0e0"/>
        </g>
        <path id="パス_217" data-name="パス 217" d="M132.45,206.59a3.19,3.19,0,0,0,2.76-.17L182.57,180a3.23,3.23,0,0,0,1.59-2.21l5.58-30.59a3.22,3.22,0,0,0-.86-2.81l-49.22,27.48a2.37,2.37,0,0,0-1.17,1.64Z" fill="#90caf9"/>
        <g id="グループ_7" data-name="グループ 7" opacity="0.7">
          <path id="パス_218" data-name="パス 218" d="M132.45,206.59a3.19,3.19,0,0,0,2.76-.17L182.57,180a3.23,3.23,0,0,0,1.59-2.21l5.58-30.59a3.22,3.22,0,0,0-.86-2.81l-49.22,27.48a2.37,2.37,0,0,0-1.17,1.64Z" fill="#fff"/>
        </g>
        <path id="パス_219" data-name="パス 219" d="M131.7,206.18l.32.19a3.48,3.48,0,0,0,.43.22l6-33.1a2.37,2.37,0,0,1,1.17-1.64l49.22-27.48a4,4,0,0,0-.64-.51l-49.32,27.53a2.35,2.35,0,0,0-1.17,1.64Z" fill="#fafafa"/>
        <path id="パス_220" data-name="パス 220" d="M159.32,178.67c.37-2,2.53-4.75,4.82-6s3.84-.65,3.47,1.4-2.54,4.74-4.83,6S158.94,180.71,159.32,178.67Z" fill="#90caf9"/>
        <path id="パス_221" data-name="パス 221" d="M107.74,184.18c-2.59-1.78-19.07-13.76-25.66-18.87-6.85-5.31-6.43-7-5.6-10.85,1.64-7.57,10.1-31.82,13-38.89,3.2-7.89,4.21-13.26,9.85-14.27,4.3,3.39,7.56,11.43,2.68,25.61l-9.25,27.63s7.06,8.37,11.7,12.71,8.75,8.41,12.09,9.39c3,.88,6.45,1.48,7.5,2.44a81.878,81.878,0,0,1,7.08,8.21c1,1.62,3.32,4.9,0,6-3,1-5.49-.34-8-2a31.147,31.147,0,0,1-3.29-2.72,12,12,0,0,1-7.11-1.41C110.87,186,107.74,184.18,107.74,184.18Z" fill="#b16668"/>
        <path id="パス_222" data-name="パス 222" d="M99.47,100.45c-5,.85-6.45,4.32-10.16,14-2.61,6.81-12,36.52-12,36.52s5.22,6,15.36,3.55l11.7-31.68S108.1,107.84,99.47,100.45Z" fill="#90caf9"/>
        <g id="グループ_8" data-name="グループ 8" opacity="0.6">
          <path id="パス_223" data-name="パス 223" d="M99.47,100.45c-5,.85-6.45,4.32-10.16,14-2.61,6.81-12,36.52-12,36.52s5.22,6,15.36,3.55l11.7-31.68S108.1,107.84,99.47,100.45Z"/>
        </g>
      </g>
    </g>
  </g>
</svg>
